<ttFont>
    <TTGlyph name="A" xMin="12" yMin="0" xMax="627" yMax="708">
      <contour>
        <pt x="12" y="0" on="1"/>
        <pt x="256" y="708" on="1"/>
        <pt x="374" y="708" on="1"/>
        <pt x="627" y="0" on="1"/>
        <pt x="534" y="0" on="1"/>
        <pt x="460" y="208" on="1"/>
        <pt x="179" y="208" on="1"/>
        <pt x="108" y="0" on="1"/>
      </contour>
      <contour>
        <pt x="317" y="609" on="1"/>
        <pt x="207" y="288" on="1"/>
        <pt x="431" y="288" on="1"/>
      </contour>
    </TTGlyph>
    <TTGlyph name="AE" xMin="0" yMin="0" xMax="909" yMax="708">
      <contour>
        <pt x="477" y="0" on="1"/>
        <pt x="477" y="208" on="1"/>
        <pt x="222" y="208" on="1"/>
        <pt x="102" y="0" on="1"/>
        <pt x="0" y="0" on="1"/>
        <pt x="409" y="708" on="1"/>
        <pt x="898" y="708" on="1"/>
        <pt x="898" y="627" on="1"/>
        <pt x="572" y="627" on="1"/>
        <pt x="572" y="412" on="1"/>
        <pt x="865" y="412" on="1"/>
        <pt x="865" y="330" on="1"/>
        <pt x="572" y="330" on="1"/>
        <pt x="572" y="83" on="1"/>
        <pt x="909" y="83" on="1"/>
        <pt x="909" y="0" on="1"/>
      </contour>
      <contour>
        <pt x="268" y="288" on="1"/>
        <pt x="477" y="288" on="1"/>
        <pt x="477" y="650" on="1"/>
      </contour>
    </TTGlyph>
    <TTGlyph name="Aacute" xMin="12" yMin="0" xMax="627" yMax="945">
      <contour>
        <pt x="12" y="0" on="1"/>
        <pt x="256" y="708" on="1"/>
        <pt x="374" y="708" on="1"/>
        <pt x="627" y="0" on="1"/>
        <pt x="534" y="0" on="1"/>
        <pt x="460" y="208" on="1"/>
        <pt x="179" y="208" on="1"/>
        <pt x="108" y="0" on="1"/>
      </contour>
      <contour>
        <pt x="317" y="609" on="1"/>
        <pt x="207" y="288" on="1"/>
        <pt x="431" y="288" on="1"/>
      </contour>
      <contour>
        <pt x="223" y="781" on="1"/>
        <pt x="356" y="945" on="1"/>
        <pt x="416" y="883" on="1"/>
        <pt x="260" y="747" on="1"/>
      </contour>
    </TTGlyph>
    <TTGlyph name="Acircumflex" xMin="12" yMin="0" xMax="627" yMax="922">
      <contour>
        <pt x="12" y="0" on="1"/>
        <pt x="256" y="708" on="1"/>
        <pt x="374" y="708" on="1"/>
        <pt x="627" y="0" on="1"/>
        <pt x="534" y="0" on="1"/>
        <pt x="460" y="208" on="1"/>
        <pt x="179" y="208" on="1"/>
        <pt x="108" y="0" on="1"/>
      </contour>
      <contour>
        <pt x="317" y="609" on="1"/>
        <pt x="207" y="288" on="1"/>
        <pt x="431" y="288" on="1"/>
      </contour>
      <contour>
        <pt x="307" y="922" on="1"/>
        <pt x="329" y="922" on="1"/>
        <pt x="482" y="795" on="1"/>
        <pt x="452" y="754" on="1"/>
        <pt x="318" y="846" on="1"/>
        <pt x="181" y="754" on="1"/>
        <pt x="154" y="795" on="1"/>
      </contour>
    </TTGlyph>
    <TTGlyph name="Adieresis" xMin="12" yMin="0" xMax="627" yMax="896">
      <contour>
        <pt x="12" y="0" on="1"/>
        <pt x="256" y="708" on="1"/>
        <pt x="374" y="708" on="1"/>
        <pt x="627" y="0" on="1"/>
        <pt x="534" y="0" on="1"/>
        <pt x="460" y="208" on="1"/>
        <pt x="179" y="208" on="1"/>
        <pt x="108" y="0" on="1"/>
      </contour>
      <contour>
        <pt x="317" y="609" on="1"/>
        <pt x="207" y="288" on="1"/>
        <pt x="431" y="288" on="1"/>
      </contour>
      <contour>
        <pt x="181" y="896" on="1"/>
        <pt x="274" y="896" on="1"/>
        <pt x="274" y="803" on="1"/>
        <pt x="181" y="803" on="1"/>
      </contour>
      <contour>
        <pt x="363" y="896" on="1"/>
        <pt x="455" y="896" on="1"/>
        <pt x="455" y="803" on="1"/>
        <pt x="363" y="803" on="1"/>
      </contour>
    </TTGlyph>
    <TTGlyph name="Agrave" xMin="12" yMin="0" xMax="627" yMax="945">
      <contour>
        <pt x="12" y="0" on="1"/>
        <pt x="256" y="708" on="1"/>
        <pt x="374" y="708" on="1"/>
        <pt x="627" y="0" on="1"/>
        <pt x="534" y="0" on="1"/>
        <pt x="460" y="208" on="1"/>
        <pt x="179" y="208" on="1"/>
        <pt x="108" y="0" on="1"/>
      </contour>
      <contour>
        <pt x="317" y="609" on="1"/>
        <pt x="207" y="288" on="1"/>
        <pt x="431" y="288" on="1"/>
      </contour>
      <contour>
        <pt x="197" y="883" on="1"/>
        <pt x="257" y="945" on="1"/>
        <pt x="390" y="781" on="1"/>
        <pt x="353" y="747" on="1"/>
      </contour>
    </TTGlyph>
    <TTGlyph name="Aring" xMin="12" yMin="0" xMax="627" yMax="935">
      <contour>
        <pt x="12" y="0" on="1"/>
        <pt x="256" y="708" on="1"/>
        <pt x="374" y="708" on="1"/>
        <pt x="627" y="0" on="1"/>
        <pt x="534" y="0" on="1"/>
        <pt x="460" y="208" on="1"/>
        <pt x="179" y="208" on="1"/>
        <pt x="108" y="0" on="1"/>
      </contour>
      <contour>
        <pt x="317" y="609" on="1"/>
        <pt x="207" y="288" on="1"/>
        <pt x="431" y="288" on="1"/>
      </contour>
      <contour>
        <pt x="220" y="795" on="0"/>
        <pt x="220" y="877" on="0"/>
        <pt x="278" y="935" on="0"/>
        <pt x="360" y="935" on="0"/>
        <pt x="418" y="877" on="0"/>
        <pt x="418" y="795" on="0"/>
        <pt x="360" y="737" on="0"/>
        <pt x="278" y="737" on="0"/>
      </contour>
      <contour>
        <pt x="369" y="813" on="0"/>
        <pt x="369" y="859" on="0"/>
        <pt x="341" y="891" on="0"/>
        <pt x="297" y="891" on="0"/>
        <pt x="270" y="860" on="0"/>
        <pt x="270" y="813" on="0"/>
        <pt x="297" y="782" on="0"/>
        <pt x="341" y="782" on="0"/>
      </contour>
    </TTGlyph>
    <TTGlyph name="Atilde" xMin="12" yMin="0" xMax="627" yMax="898">
      <contour>
        <pt x="12" y="0" on="1"/>
        <pt x="256" y="708" on="1"/>
        <pt x="374" y="708" on="1"/>
        <pt x="627" y="0" on="1"/>
        <pt x="534" y="0" on="1"/>
        <pt x="460" y="208" on="1"/>
        <pt x="179" y="208" on="1"/>
        <pt x="108" y="0" on="1"/>
      </contour>
      <contour>
        <pt x="317" y="609" on="1"/>
        <pt x="207" y="288" on="1"/>
        <pt x="431" y="288" on="1"/>
      </contour>
      <contour>
        <pt x="135" y="779" on="1"/>
        <pt x="135" y="833" on="0"/>
        <pt x="196" y="898" on="0"/>
        <pt x="248" y="898" on="1"/>
        <pt x="296" y="898" on="0"/>
        <pt x="359" y="835" on="0"/>
        <pt x="385" y="835" on="1"/>
        <pt x="436" y="835" on="0"/>
        <pt x="436" y="889" on="1"/>
        <pt x="495" y="889" on="1"/>
        <pt x="495" y="835" on="0"/>
        <pt x="436" y="770" on="0"/>
        <pt x="387" y="770" on="1"/>
        <pt x="355" y="770" on="0"/>
        <pt x="307" y="802" on="0"/>
        <pt x="268" y="834" on="0"/>
        <pt x="223" y="834" on="0"/>
        <pt x="194" y="804" on="0"/>
        <pt x="194" y="779" on="1"/>
      </contour>
    </TTGlyph>
    <TTGlyph name="B" xMin="85" yMin="0" xMax="566" yMax="708">
      <contour>
        <pt x="85" y="0" on="1"/>
        <pt x="85" y="708" on="1"/>
        <pt x="294" y="708" on="1"/>
        <pt x="415" y="708" on="0"/>
        <pt x="537" y="610" on="0"/>
        <pt x="537" y="520" on="1"/>
        <pt x="537" y="413" on="0"/>
        <pt x="429" y="372" on="1"/>
        <pt x="566" y="335" on="0"/>
        <pt x="566" y="209" on="1"/>
        <pt x="566" y="111" on="0"/>
        <pt x="441" y="0" on="0"/>
        <pt x="323" y="0" on="1"/>
      </contour>
      <contour>
        <pt x="308" y="326" on="1"/>
        <pt x="180" y="326" on="1"/>
        <pt x="180" y="80" on="1"/>
        <pt x="323" y="80" on="1"/>
        <pt x="392" y="80" on="0"/>
        <pt x="466" y="146" on="0"/>
        <pt x="466" y="209" on="1"/>
        <pt x="466" y="326" on="0"/>
      </contour>
      <contour>
        <pt x="180" y="628" on="1"/>
        <pt x="180" y="406" on="1"/>
        <pt x="294" y="406" on="1"/>
        <pt x="437" y="406" on="0"/>
        <pt x="437" y="520" on="1"/>
        <pt x="437" y="628" on="0"/>
        <pt x="294" y="628" on="1"/>
      </contour>
    </TTGlyph>
    <TTGlyph name="C" xMin="50" yMin="-9" xMax="596" yMax="716">
      <contour>
        <pt x="50" y="179" on="0"/>
        <pt x="50" y="531" on="0"/>
        <pt x="215" y="716" on="0"/>
        <pt x="518" y="716" on="0"/>
        <pt x="596" y="613" on="1"/>
        <pt x="530" y="559" on="1"/>
        <pt x="473" y="634" on="0"/>
        <pt x="265" y="634" on="0"/>
        <pt x="152" y="491" on="0"/>
        <pt x="152" y="215" on="0"/>
        <pt x="269" y="71" on="0"/>
        <pt x="383" y="71" on="1"/>
        <pt x="461" y="71" on="0"/>
        <pt x="552" y="118" on="1"/>
        <pt x="580" y="43" on="1"/>
        <pt x="499" y="-9" on="0"/>
        <pt x="369" y="-9" on="1"/>
        <pt x="215" y="-9" on="0"/>
      </contour>
    </TTGlyph>
    <TTGlyph name="Ccedilla" xMin="50" yMin="-219" xMax="596" yMax="716">
      <contour>
        <pt x="340" y="-91" on="1"/>
        <pt x="318" y="-91" on="1"/>
        <pt x="306" y="-71" on="1"/>
        <pt x="335" y="-8" on="1"/>
        <pt x="196" y="2" on="0"/>
        <pt x="50" y="188" on="0"/>
        <pt x="50" y="531" on="0"/>
        <pt x="215" y="716" on="0"/>
        <pt x="518" y="716" on="0"/>
        <pt x="596" y="613" on="1"/>
        <pt x="530" y="559" on="1"/>
        <pt x="473" y="634" on="0"/>
        <pt x="265" y="634" on="0"/>
        <pt x="152" y="491" on="0"/>
        <pt x="152" y="215" on="0"/>
        <pt x="269" y="71" on="0"/>
        <pt x="383" y="71" on="1"/>
        <pt x="461" y="71" on="0"/>
        <pt x="552" y="118" on="1"/>
        <pt x="580" y="43" on="1"/>
        <pt x="505" y="-6" on="0"/>
        <pt x="378" y="-9" on="1"/>
        <pt x="365" y="-52" on="1"/>
        <pt x="407" y="-57" on="0"/>
        <pt x="455" y="-102" on="0"/>
        <pt x="455" y="-173" on="0"/>
        <pt x="400" y="-219" on="0"/>
        <pt x="354" y="-219" on="1"/>
        <pt x="318" y="-219" on="0"/>
        <pt x="292" y="-199" on="1"/>
        <pt x="283" y="-192" on="0"/>
        <pt x="270" y="-178" on="1"/>
        <pt x="296" y="-147" on="1"/>
        <pt x="320" y="-175" on="0"/>
        <pt x="346" y="-175" on="1"/>
        <pt x="395" y="-175" on="0"/>
        <pt x="395" y="-135" on="1"/>
        <pt x="395" y="-114" on="0"/>
        <pt x="366" y="-91" on="0"/>
      </contour>
    </TTGlyph>
    <TTGlyph name="D" xMin="85" yMin="0" xMax="639" yMax="708">
      <contour>
        <pt x="85" y="0" on="1"/>
        <pt x="85" y="708" on="1"/>
        <pt x="314" y="708" on="1"/>
        <pt x="471" y="708" on="0"/>
        <pt x="639" y="523" on="0"/>
        <pt x="639" y="188" on="0"/>
        <pt x="470" y="0" on="0"/>
        <pt x="314" y="0" on="1"/>
      </contour>
      <contour>
        <pt x="314" y="628" on="1"/>
        <pt x="181" y="628" on="1"/>
        <pt x="181" y="80" on="1"/>
        <pt x="314" y="80" on="1"/>
        <pt x="422" y="80" on="0"/>
        <pt x="539" y="218" on="0"/>
        <pt x="539" y="493" on="0"/>
        <pt x="422" y="628" on="0"/>
      </contour>
    </TTGlyph>
    <TTGlyph name="E" xMin="85" yMin="0" xMax="517" yMax="708">
      <contour>
        <pt x="85" y="0" on="1"/>
        <pt x="85" y="708" on="1"/>
        <pt x="506" y="708" on="1"/>
        <pt x="506" y="627" on="1"/>
        <pt x="180" y="627" on="1"/>
        <pt x="180" y="412" on="1"/>
        <pt x="473" y="412" on="1"/>
        <pt x="473" y="330" on="1"/>
        <pt x="180" y="330" on="1"/>
        <pt x="180" y="83" on="1"/>
        <pt x="517" y="83" on="1"/>
        <pt x="517" y="0" on="1"/>
      </contour>
    </TTGlyph>
    <TTGlyph name="Eacute" xMin="85" yMin="0" xMax="517" yMax="945">
      <contour>
        <pt x="85" y="0" on="1"/>
        <pt x="85" y="708" on="1"/>
        <pt x="506" y="708" on="1"/>
        <pt x="506" y="627" on="1"/>
        <pt x="180" y="627" on="1"/>
        <pt x="180" y="412" on="1"/>
        <pt x="473" y="412" on="1"/>
        <pt x="473" y="330" on="1"/>
        <pt x="180" y="330" on="1"/>
        <pt x="180" y="83" on="1"/>
        <pt x="517" y="83" on="1"/>
        <pt x="517" y="0" on="1"/>
      </contour>
      <contour>
        <pt x="207" y="781" on="1"/>
        <pt x="340" y="945" on="1"/>
        <pt x="400" y="883" on="1"/>
        <pt x="244" y="747" on="1"/>
      </contour>
    </TTGlyph>
    <TTGlyph name="Ecircumflex" xMin="85" yMin="0" xMax="517" yMax="922">
      <contour>
        <pt x="85" y="0" on="1"/>
        <pt x="85" y="708" on="1"/>
        <pt x="506" y="708" on="1"/>
        <pt x="506" y="627" on="1"/>
        <pt x="180" y="627" on="1"/>
        <pt x="180" y="412" on="1"/>
        <pt x="473" y="412" on="1"/>
        <pt x="473" y="330" on="1"/>
        <pt x="180" y="330" on="1"/>
        <pt x="180" y="83" on="1"/>
        <pt x="517" y="83" on="1"/>
        <pt x="517" y="0" on="1"/>
      </contour>
      <contour>
        <pt x="291" y="922" on="1"/>
        <pt x="313" y="922" on="1"/>
        <pt x="466" y="795" on="1"/>
        <pt x="436" y="754" on="1"/>
        <pt x="302" y="846" on="1"/>
        <pt x="165" y="754" on="1"/>
        <pt x="138" y="795" on="1"/>
      </contour>
    </TTGlyph>
    <TTGlyph name="Edieresis" xMin="85" yMin="0" xMax="517" yMax="896">
      <contour>
        <pt x="85" y="0" on="1"/>
        <pt x="85" y="708" on="1"/>
        <pt x="506" y="708" on="1"/>
        <pt x="506" y="627" on="1"/>
        <pt x="180" y="627" on="1"/>
        <pt x="180" y="412" on="1"/>
        <pt x="473" y="412" on="1"/>
        <pt x="473" y="330" on="1"/>
        <pt x="180" y="330" on="1"/>
        <pt x="180" y="83" on="1"/>
        <pt x="517" y="83" on="1"/>
        <pt x="517" y="0" on="1"/>
      </contour>
      <contour>
        <pt x="165" y="896" on="1"/>
        <pt x="258" y="896" on="1"/>
        <pt x="258" y="803" on="1"/>
        <pt x="165" y="803" on="1"/>
      </contour>
      <contour>
        <pt x="347" y="896" on="1"/>
        <pt x="439" y="896" on="1"/>
        <pt x="439" y="803" on="1"/>
        <pt x="347" y="803" on="1"/>
      </contour>
    </TTGlyph>
    <TTGlyph name="Egrave" xMin="85" yMin="0" xMax="517" yMax="945">
      <contour>
        <pt x="85" y="0" on="1"/>
        <pt x="85" y="708" on="1"/>
        <pt x="506" y="708" on="1"/>
        <pt x="506" y="627" on="1"/>
        <pt x="180" y="627" on="1"/>
        <pt x="180" y="412" on="1"/>
        <pt x="473" y="412" on="1"/>
        <pt x="473" y="330" on="1"/>
        <pt x="180" y="330" on="1"/>
        <pt x="180" y="83" on="1"/>
        <pt x="517" y="83" on="1"/>
        <pt x="517" y="0" on="1"/>
      </contour>
      <contour>
        <pt x="181" y="883" on="1"/>
        <pt x="241" y="945" on="1"/>
        <pt x="374" y="781" on="1"/>
        <pt x="337" y="747" on="1"/>
      </contour>
    </TTGlyph>
    <TTGlyph name="Eth" xMin="0" yMin="0" xMax="639" yMax="708">
      <contour>
        <pt x="0" y="321" on="1"/>
        <pt x="0" y="401" on="1"/>
        <pt x="85" y="401" on="1"/>
        <pt x="85" y="708" on="1"/>
        <pt x="314" y="708" on="1"/>
        <pt x="471" y="708" on="0"/>
        <pt x="639" y="523" on="0"/>
        <pt x="639" y="188" on="0"/>
        <pt x="470" y="0" on="0"/>
        <pt x="314" y="0" on="1"/>
        <pt x="85" y="0" on="1"/>
        <pt x="85" y="321" on="1"/>
      </contour>
      <contour>
        <pt x="335" y="321" on="1"/>
        <pt x="181" y="321" on="1"/>
        <pt x="181" y="80" on="1"/>
        <pt x="314" y="80" on="1"/>
        <pt x="422" y="80" on="0"/>
        <pt x="539" y="218" on="0"/>
        <pt x="539" y="493" on="0"/>
        <pt x="422" y="628" on="0"/>
        <pt x="314" y="628" on="1"/>
        <pt x="181" y="628" on="1"/>
        <pt x="181" y="401" on="1"/>
        <pt x="335" y="401" on="1"/>
      </contour>
    </TTGlyph>
    <TTGlyph name="Euro" xMin="38" yMin="-8" xMax="655" yMax="716">
      <contour>
        <pt x="41" y="394" on="1"/>
        <pt x="61" y="466" on="1"/>
        <pt x="145" y="466" on="1"/>
        <pt x="172" y="582" on="0"/>
        <pt x="338" y="716" on="0"/>
        <pt x="587" y="716" on="0"/>
        <pt x="655" y="678" on="1"/>
        <pt x="624" y="600" on="1"/>
        <pt x="601" y="615" on="0"/>
        <pt x="513" y="636" on="0"/>
        <pt x="473" y="636" on="1"/>
        <pt x="384" y="636" on="0"/>
        <pt x="270" y="546" on="0"/>
        <pt x="247" y="466" on="1"/>
        <pt x="580" y="466" on="1"/>
        <pt x="554" y="394" on="1"/>
        <pt x="234" y="394" on="1"/>
        <pt x="233" y="381" on="0"/>
        <pt x="233" y="338" on="0"/>
        <pt x="235" y="310" on="1"/>
        <pt x="526" y="310" on="1"/>
        <pt x="501" y="238" on="1"/>
        <pt x="249" y="238" on="1"/>
        <pt x="273" y="160" on="0"/>
        <pt x="392" y="72" on="0"/>
        <pt x="486" y="72" on="1"/>
        <pt x="552" y="72" on="0"/>
        <pt x="618" y="101" on="1"/>
        <pt x="655" y="29" on="1"/>
        <pt x="579" y="-8" on="0"/>
        <pt x="472" y="-8" on="1"/>
        <pt x="342" y="-8" on="0"/>
        <pt x="174" y="122" on="0"/>
        <pt x="146" y="238" on="1"/>
        <pt x="38" y="238" on="1"/>
        <pt x="58" y="310" on="1"/>
        <pt x="135" y="310" on="1"/>
        <pt x="133" y="338" on="0"/>
        <pt x="133" y="381" on="0"/>
        <pt x="134" y="394" on="1"/>
      </contour>
    </TTGlyph>
    <TTGlyph name="F" xMin="85" yMin="0" xMax="506" yMax="708">
      <contour>
        <pt x="85" y="0" on="1"/>
        <pt x="85" y="708" on="1"/>
        <pt x="506" y="708" on="1"/>
        <pt x="506" y="627" on="1"/>
        <pt x="180" y="627" on="1"/>
        <pt x="180" y="412" on="1"/>
        <pt x="470" y="412" on="1"/>
        <pt x="470" y="330" on="1"/>
        <pt x="180" y="330" on="1"/>
        <pt x="180" y="0" on="1"/>
      </contour>
    </TTGlyph>
    <TTGlyph name="G" xMin="50" yMin="-9" xMax="619" yMax="716">
      <contour>
        <pt x="50" y="179" on="0"/>
        <pt x="50" y="531" on="0"/>
        <pt x="215" y="716" on="0"/>
        <pt x="532" y="716" on="0"/>
        <pt x="616" y="613" on="1"/>
        <pt x="551" y="559" on="1"/>
        <pt x="484" y="636" on="0"/>
        <pt x="265" y="636" on="0"/>
        <pt x="152" y="492" on="0"/>
        <pt x="152" y="215" on="0"/>
        <pt x="269" y="71" on="0"/>
        <pt x="383" y="71" on="1"/>
        <pt x="456" y="71" on="0"/>
        <pt x="523" y="94" on="1"/>
        <pt x="523" y="347" on="1"/>
        <pt x="619" y="347" on="1"/>
        <pt x="619" y="48" on="1"/>
        <pt x="518" y="-9" on="0"/>
        <pt x="215" y="-9" on="0"/>
      </contour>
    </TTGlyph>
    <TTGlyph name="H" xMin="85" yMin="0" xMax="639" yMax="708">
      <contour>
        <pt x="85" y="0" on="1"/>
        <pt x="85" y="708" on="1"/>
        <pt x="181" y="708" on="1"/>
        <pt x="181" y="407" on="1"/>
        <pt x="543" y="407" on="1"/>
        <pt x="543" y="708" on="1"/>
        <pt x="639" y="708" on="1"/>
        <pt x="639" y="0" on="1"/>
        <pt x="543" y="0" on="1"/>
        <pt x="543" y="327" on="1"/>
        <pt x="181" y="327" on="1"/>
        <pt x="181" y="0" on="1"/>
      </contour>
    </TTGlyph>
    <TTGlyph name="I" xMin="88" yMin="0" xMax="183" yMax="711">
      <contour>
        <pt x="88" y="0" on="1"/>
        <pt x="88" y="711" on="1"/>
        <pt x="183" y="711" on="1"/>
        <pt x="183" y="0" on="1"/>
      </contour>
    </TTGlyph>
    <TTGlyph name="IJ" xMin="88" yMin="-139" xMax="545" yMax="711">
      <contour>
        <pt x="88" y="0" on="1"/>
        <pt x="88" y="711" on="1"/>
        <pt x="183" y="711" on="1"/>
        <pt x="183" y="0" on="1"/>
      </contour>
      <contour>
        <pt x="293" y="-64" on="1"/>
        <pt x="299" y="-61" on="0"/>
        <pt x="321" y="-51" on="0"/>
        <pt x="375" y="-16" on="0"/>
        <pt x="417" y="23" on="0"/>
        <pt x="451" y="87" on="0"/>
        <pt x="451" y="121" on="1"/>
        <pt x="451" y="627" on="1"/>
        <pt x="312" y="627" on="1"/>
        <pt x="312" y="708" on="1"/>
        <pt x="545" y="708" on="1"/>
        <pt x="545" y="121" on="1"/>
        <pt x="545" y="70" on="0"/>
        <pt x="502" y="-21" on="0"/>
        <pt x="470" y="-50" on="1"/>
        <pt x="407" y="-108" on="0"/>
        <pt x="356" y="-130" on="1"/>
        <pt x="334" y="-139" on="1"/>
      </contour>
    </TTGlyph>
    <TTGlyph name="Iacute" xMin="41" yMin="0" xMax="234" yMax="945">
      <contour>
        <pt x="88" y="0" on="1"/>
        <pt x="88" y="711" on="1"/>
        <pt x="183" y="711" on="1"/>
        <pt x="183" y="0" on="1"/>
      </contour>
      <contour>
        <pt x="41" y="781" on="1"/>
        <pt x="174" y="945" on="1"/>
        <pt x="234" y="883" on="1"/>
        <pt x="78" y="747" on="1"/>
      </contour>
    </TTGlyph>
    <TTGlyph name="Icircumflex" xMin="-28" yMin="0" xMax="300" yMax="922">
      <contour>
        <pt x="88" y="0" on="1"/>
        <pt x="88" y="711" on="1"/>
        <pt x="183" y="711" on="1"/>
        <pt x="183" y="0" on="1"/>
      </contour>
      <contour>
        <pt x="125" y="922" on="1"/>
        <pt x="147" y="922" on="1"/>
        <pt x="300" y="795" on="1"/>
        <pt x="270" y="754" on="1"/>
        <pt x="136" y="846" on="1"/>
        <pt x="-1" y="754" on="1"/>
        <pt x="-28" y="795" on="1"/>
      </contour>
    </TTGlyph>
    <TTGlyph name="Idieresis" xMin="-1" yMin="0" xMax="273" yMax="896">
      <contour>
        <pt x="88" y="0" on="1"/>
        <pt x="88" y="711" on="1"/>
        <pt x="183" y="711" on="1"/>
        <pt x="183" y="0" on="1"/>
      </contour>
      <contour>
        <pt x="-1" y="896" on="1"/>
        <pt x="92" y="896" on="1"/>
        <pt x="92" y="803" on="1"/>
        <pt x="-1" y="803" on="1"/>
      </contour>
      <contour>
        <pt x="181" y="896" on="1"/>
        <pt x="273" y="896" on="1"/>
        <pt x="273" y="803" on="1"/>
        <pt x="181" y="803" on="1"/>
      </contour>
    </TTGlyph>
    <TTGlyph name="Igrave" xMin="15" yMin="0" xMax="208" yMax="945">
      <contour>
        <pt x="88" y="0" on="1"/>
        <pt x="88" y="711" on="1"/>
        <pt x="183" y="711" on="1"/>
        <pt x="183" y="0" on="1"/>
      </contour>
      <contour>
        <pt x="15" y="883" on="1"/>
        <pt x="75" y="945" on="1"/>
        <pt x="208" y="781" on="1"/>
        <pt x="171" y="747" on="1"/>
      </contour>
    </TTGlyph>
    <TTGlyph name="Itilde" xMin="-47" yMin="0" xMax="313" yMax="898">
      <contour>
        <pt x="88" y="0" on="1"/>
        <pt x="88" y="711" on="1"/>
        <pt x="183" y="711" on="1"/>
        <pt x="183" y="0" on="1"/>
      </contour>
      <contour>
        <pt x="-47" y="779" on="1"/>
        <pt x="-47" y="833" on="0"/>
        <pt x="14" y="898" on="0"/>
        <pt x="66" y="898" on="1"/>
        <pt x="114" y="898" on="0"/>
        <pt x="177" y="835" on="0"/>
        <pt x="203" y="835" on="1"/>
        <pt x="254" y="835" on="0"/>
        <pt x="254" y="889" on="1"/>
        <pt x="313" y="889" on="1"/>
        <pt x="313" y="835" on="0"/>
        <pt x="254" y="770" on="0"/>
        <pt x="205" y="770" on="1"/>
        <pt x="173" y="770" on="0"/>
        <pt x="125" y="802" on="0"/>
        <pt x="86" y="834" on="0"/>
        <pt x="41" y="834" on="0"/>
        <pt x="12" y="804" on="0"/>
        <pt x="12" y="779" on="1"/>
      </contour>
    </TTGlyph>
    <TTGlyph name="J" xMin="22" yMin="-139" xMax="274" yMax="708">
      <contour>
        <pt x="22" y="-64" on="1"/>
        <pt x="28" y="-61" on="0"/>
        <pt x="50" y="-51" on="0"/>
        <pt x="104" y="-16" on="0"/>
        <pt x="146" y="23" on="0"/>
        <pt x="180" y="87" on="0"/>
        <pt x="180" y="121" on="1"/>
        <pt x="180" y="627" on="1"/>
        <pt x="41" y="627" on="1"/>
        <pt x="41" y="708" on="1"/>
        <pt x="274" y="708" on="1"/>
        <pt x="274" y="121" on="1"/>
        <pt x="274" y="70" on="0"/>
        <pt x="231" y="-21" on="0"/>
        <pt x="200" y="-50" on="1"/>
        <pt x="136" y="-108" on="0"/>
        <pt x="84" y="-130" on="1"/>
        <pt x="63" y="-139" on="1"/>
      </contour>
    </TTGlyph>
    <TTGlyph name="Jcircumflex" xMin="10" yMin="-139" xMax="338" yMax="922">
      <contour>
        <pt x="22" y="-64" on="1"/>
        <pt x="28" y="-61" on="0"/>
        <pt x="50" y="-51" on="0"/>
        <pt x="104" y="-16" on="0"/>
        <pt x="146" y="23" on="0"/>
        <pt x="180" y="87" on="0"/>
        <pt x="180" y="121" on="1"/>
        <pt x="180" y="627" on="1"/>
        <pt x="41" y="627" on="1"/>
        <pt x="41" y="708" on="1"/>
        <pt x="274" y="708" on="1"/>
        <pt x="274" y="121" on="1"/>
        <pt x="274" y="70" on="0"/>
        <pt x="231" y="-21" on="0"/>
        <pt x="200" y="-50" on="1"/>
        <pt x="136" y="-108" on="0"/>
        <pt x="84" y="-130" on="1"/>
        <pt x="63" y="-139" on="1"/>
      </contour>
      <contour>
        <pt x="163" y="922" on="1"/>
        <pt x="185" y="922" on="1"/>
        <pt x="338" y="795" on="1"/>
        <pt x="308" y="754" on="1"/>
        <pt x="174" y="846" on="1"/>
        <pt x="37" y="754" on="1"/>
        <pt x="10" y="795" on="1"/>
      </contour>
    </TTGlyph>
    <TTGlyph name="K" xMin="85" yMin="0" xMax="630" yMax="708">
      <contour>
        <pt x="202" y="382" on="1"/>
        <pt x="478" y="708" on="1"/>
        <pt x="608" y="708" on="1"/>
        <pt x="328" y="386" on="1"/>
        <pt x="630" y="0" on="1"/>
        <pt x="504" y="0" on="1"/>
      </contour>
      <contour>
        <pt x="85" y="0" on="1"/>
        <pt x="85" y="708" on="1"/>
        <pt x="180" y="708" on="1"/>
        <pt x="180" y="0" on="1"/>
      </contour>
    </TTGlyph>
    <TTGlyph name="L" xMin="85" yMin="0" xMax="504" yMax="708">
      <contour>
        <pt x="85" y="0" on="1"/>
        <pt x="85" y="708" on="1"/>
        <pt x="180" y="708" on="1"/>
        <pt x="180" y="83" on="1"/>
        <pt x="504" y="83" on="1"/>
        <pt x="504" y="0" on="1"/>
      </contour>
    </TTGlyph>
    <TTGlyph name="Ldotaccent" xMin="85" yMin="0" xMax="504" yMax="708">
      <contour>
        <pt x="85" y="0" on="1"/>
        <pt x="85" y="708" on="1"/>
        <pt x="180" y="708" on="1"/>
        <pt x="180" y="83" on="1"/>
        <pt x="504" y="83" on="1"/>
        <pt x="504" y="0" on="1"/>
      </contour>
      <contour>
        <pt x="335" y="582" on="1"/>
        <pt x="427" y="582" on="1"/>
        <pt x="427" y="496" on="1"/>
        <pt x="335" y="496" on="1"/>
      </contour>
    </TTGlyph>
    <TTGlyph name="Lslash" xMin="-6" yMin="0" xMax="504" yMax="708">
      <contour>
        <pt x="34" y="251" on="1"/>
        <pt x="-6" y="321" on="1"/>
        <pt x="85" y="373" on="1"/>
        <pt x="85" y="708" on="1"/>
        <pt x="180" y="708" on="1"/>
        <pt x="180" y="428" on="1"/>
        <pt x="288" y="491" on="1"/>
        <pt x="328" y="421" on="1"/>
        <pt x="180" y="335" on="1"/>
        <pt x="180" y="83" on="1"/>
        <pt x="504" y="83" on="1"/>
        <pt x="504" y="0" on="1"/>
        <pt x="85" y="0" on="1"/>
        <pt x="85" y="280" on="1"/>
      </contour>
    </TTGlyph>
    <TTGlyph name="M" xMin="65" yMin="0" xMax="874" yMax="708">
      <contour>
        <pt x="156" y="0" on="1"/>
        <pt x="65" y="0" on="1"/>
        <pt x="155" y="708" on="1"/>
        <pt x="274" y="708" on="1"/>
        <pt x="469" y="138" on="1"/>
        <pt x="665" y="708" on="1"/>
        <pt x="784" y="708" on="1"/>
        <pt x="874" y="0" on="1"/>
        <pt x="783" y="0" on="1"/>
        <pt x="709" y="579" on="1"/>
        <pt x="518" y="0" on="1"/>
        <pt x="421" y="0" on="1"/>
        <pt x="229" y="579" on="1"/>
      </contour>
    </TTGlyph>
    <TTGlyph name="N" xMin="83" yMin="0" xMax="620" yMax="708">
      <contour>
        <pt x="83" y="0" on="1"/>
        <pt x="83" y="708" on="1"/>
        <pt x="195" y="708" on="1"/>
        <pt x="427" y="333" on="1"/>
        <pt x="444" y="308" on="0"/>
        <pt x="500" y="205" on="0"/>
        <pt x="526" y="159" on="0"/>
        <pt x="526" y="158" on="1"/>
        <pt x="526" y="708" on="1"/>
        <pt x="620" y="708" on="1"/>
        <pt x="620" y="0" on="1"/>
        <pt x="523" y="0" on="1"/>
        <pt x="274" y="410" on="1"/>
        <pt x="175" y="585" on="1"/>
        <pt x="175" y="0" on="1"/>
      </contour>
    </TTGlyph>
    <TTGlyph name="Nacute" xMin="83" yMin="0" xMax="620" yMax="945">
      <contour>
        <pt x="83" y="0" on="1"/>
        <pt x="83" y="708" on="1"/>
        <pt x="195" y="708" on="1"/>
        <pt x="427" y="333" on="1"/>
        <pt x="444" y="308" on="0"/>
        <pt x="500" y="205" on="0"/>
        <pt x="526" y="159" on="0"/>
        <pt x="526" y="158" on="1"/>
        <pt x="526" y="708" on="1"/>
        <pt x="620" y="708" on="1"/>
        <pt x="620" y="0" on="1"/>
        <pt x="523" y="0" on="1"/>
        <pt x="274" y="410" on="1"/>
        <pt x="175" y="585" on="1"/>
        <pt x="175" y="0" on="1"/>
      </contour>
      <contour>
        <pt x="261" y="781" on="1"/>
        <pt x="394" y="945" on="1"/>
        <pt x="454" y="883" on="1"/>
        <pt x="298" y="747" on="1"/>
      </contour>
    </TTGlyph>
    <TTGlyph name="Ntilde" xMin="83" yMin="0" xMax="620" yMax="898">
      <contour>
        <pt x="83" y="0" on="1"/>
        <pt x="83" y="708" on="1"/>
        <pt x="195" y="708" on="1"/>
        <pt x="427" y="333" on="1"/>
        <pt x="444" y="308" on="0"/>
        <pt x="500" y="205" on="0"/>
        <pt x="526" y="159" on="0"/>
        <pt x="526" y="158" on="1"/>
        <pt x="526" y="708" on="1"/>
        <pt x="620" y="708" on="1"/>
        <pt x="620" y="0" on="1"/>
        <pt x="523" y="0" on="1"/>
        <pt x="274" y="410" on="1"/>
        <pt x="175" y="585" on="1"/>
        <pt x="175" y="0" on="1"/>
      </contour>
      <contour>
        <pt x="173" y="779" on="1"/>
        <pt x="173" y="833" on="0"/>
        <pt x="234" y="898" on="0"/>
        <pt x="286" y="898" on="1"/>
        <pt x="334" y="898" on="0"/>
        <pt x="397" y="835" on="0"/>
        <pt x="423" y="835" on="1"/>
        <pt x="474" y="835" on="0"/>
        <pt x="474" y="889" on="1"/>
        <pt x="533" y="889" on="1"/>
        <pt x="533" y="835" on="0"/>
        <pt x="474" y="770" on="0"/>
        <pt x="425" y="770" on="1"/>
        <pt x="393" y="770" on="0"/>
        <pt x="345" y="802" on="0"/>
        <pt x="306" y="834" on="0"/>
        <pt x="261" y="834" on="0"/>
        <pt x="232" y="804" on="0"/>
        <pt x="232" y="779" on="1"/>
      </contour>
    </TTGlyph>
    <TTGlyph name="O" xMin="50" yMin="-11" xMax="700" yMax="716">
      <contour>
        <pt x="219" y="-11" on="0"/>
        <pt x="50" y="183" on="0"/>
        <pt x="50" y="526" on="0"/>
        <pt x="218" y="716" on="0"/>
        <pt x="532" y="716" on="0"/>
        <pt x="700" y="526" on="0"/>
        <pt x="700" y="184" on="0"/>
        <pt x="530" y="-11" on="0"/>
      </contour>
      <contour>
        <pt x="267" y="69" on="0"/>
        <pt x="483" y="69" on="0"/>
        <pt x="600" y="214" on="0"/>
        <pt x="600" y="495" on="0"/>
        <pt x="483" y="636" on="0"/>
        <pt x="267" y="636" on="0"/>
        <pt x="150" y="496" on="0"/>
        <pt x="150" y="213" on="0"/>
      </contour>
    </TTGlyph>
    <TTGlyph name="OE" xMin="50" yMin="-11" xMax="1033" yMax="716">
      <contour>
        <pt x="601" y="0" on="1"/>
        <pt x="601" y="86" on="1"/>
        <pt x="521" y="-11" on="0"/>
        <pt x="219" y="-11" on="0"/>
        <pt x="50" y="183" on="0"/>
        <pt x="50" y="526" on="0"/>
        <pt x="218" y="716" on="0"/>
        <pt x="520" y="716" on="0"/>
        <pt x="601" y="621" on="1"/>
        <pt x="601" y="708" on="1"/>
        <pt x="1022" y="708" on="1"/>
        <pt x="1022" y="627" on="1"/>
        <pt x="696" y="627" on="1"/>
        <pt x="696" y="412" on="1"/>
        <pt x="989" y="412" on="1"/>
        <pt x="989" y="330" on="1"/>
        <pt x="696" y="330" on="1"/>
        <pt x="696" y="83" on="1"/>
        <pt x="1033" y="83" on="1"/>
        <pt x="1033" y="0" on="1"/>
      </contour>
      <contour>
        <pt x="267" y="69" on="0"/>
        <pt x="483" y="69" on="0"/>
        <pt x="600" y="214" on="0"/>
        <pt x="600" y="495" on="0"/>
        <pt x="483" y="636" on="0"/>
        <pt x="267" y="636" on="0"/>
        <pt x="150" y="496" on="0"/>
        <pt x="150" y="213" on="0"/>
      </contour>
    </TTGlyph>
    <TTGlyph name="Oacute" xMin="50" yMin="-11" xMax="700" yMax="945">
      <contour>
        <pt x="219" y="-11" on="0"/>
        <pt x="50" y="183" on="0"/>
        <pt x="50" y="526" on="0"/>
        <pt x="218" y="716" on="0"/>
        <pt x="532" y="716" on="0"/>
        <pt x="700" y="526" on="0"/>
        <pt x="700" y="184" on="0"/>
        <pt x="530" y="-11" on="0"/>
      </contour>
      <contour>
        <pt x="267" y="69" on="0"/>
        <pt x="483" y="69" on="0"/>
        <pt x="600" y="214" on="0"/>
        <pt x="600" y="495" on="0"/>
        <pt x="483" y="636" on="0"/>
        <pt x="267" y="636" on="0"/>
        <pt x="150" y="496" on="0"/>
        <pt x="150" y="213" on="0"/>
      </contour>
      <contour>
        <pt x="277" y="781" on="1"/>
        <pt x="410" y="945" on="1"/>
        <pt x="470" y="883" on="1"/>
        <pt x="314" y="747" on="1"/>
      </contour>
    </TTGlyph>
    <TTGlyph name="Ocircumflex" xMin="50" yMin="-11" xMax="700" yMax="922">
      <contour>
        <pt x="219" y="-11" on="0"/>
        <pt x="50" y="183" on="0"/>
        <pt x="50" y="526" on="0"/>
        <pt x="218" y="716" on="0"/>
        <pt x="532" y="716" on="0"/>
        <pt x="700" y="526" on="0"/>
        <pt x="700" y="184" on="0"/>
        <pt x="530" y="-11" on="0"/>
      </contour>
      <contour>
        <pt x="267" y="69" on="0"/>
        <pt x="483" y="69" on="0"/>
        <pt x="600" y="214" on="0"/>
        <pt x="600" y="495" on="0"/>
        <pt x="483" y="636" on="0"/>
        <pt x="267" y="636" on="0"/>
        <pt x="150" y="496" on="0"/>
        <pt x="150" y="213" on="0"/>
      </contour>
      <contour>
        <pt x="361" y="922" on="1"/>
        <pt x="383" y="922" on="1"/>
        <pt x="536" y="795" on="1"/>
        <pt x="506" y="754" on="1"/>
        <pt x="372" y="846" on="1"/>
        <pt x="235" y="754" on="1"/>
        <pt x="208" y="795" on="1"/>
      </contour>
    </TTGlyph>
    <TTGlyph name="Odieresis" xMin="50" yMin="-11" xMax="700" yMax="896">
      <contour>
        <pt x="219" y="-11" on="0"/>
        <pt x="50" y="183" on="0"/>
        <pt x="50" y="526" on="0"/>
        <pt x="218" y="716" on="0"/>
        <pt x="532" y="716" on="0"/>
        <pt x="700" y="526" on="0"/>
        <pt x="700" y="184" on="0"/>
        <pt x="530" y="-11" on="0"/>
      </contour>
      <contour>
        <pt x="267" y="69" on="0"/>
        <pt x="483" y="69" on="0"/>
        <pt x="600" y="214" on="0"/>
        <pt x="600" y="495" on="0"/>
        <pt x="483" y="636" on="0"/>
        <pt x="267" y="636" on="0"/>
        <pt x="150" y="496" on="0"/>
        <pt x="150" y="213" on="0"/>
      </contour>
      <contour>
        <pt x="235" y="896" on="1"/>
        <pt x="328" y="896" on="1"/>
        <pt x="328" y="803" on="1"/>
        <pt x="235" y="803" on="1"/>
      </contour>
      <contour>
        <pt x="417" y="896" on="1"/>
        <pt x="509" y="896" on="1"/>
        <pt x="509" y="803" on="1"/>
        <pt x="417" y="803" on="1"/>
      </contour>
    </TTGlyph>
    <TTGlyph name="Ograve" xMin="50" yMin="-11" xMax="700" yMax="945">
      <contour>
        <pt x="219" y="-11" on="0"/>
        <pt x="50" y="183" on="0"/>
        <pt x="50" y="526" on="0"/>
        <pt x="218" y="716" on="0"/>
        <pt x="532" y="716" on="0"/>
        <pt x="700" y="526" on="0"/>
        <pt x="700" y="184" on="0"/>
        <pt x="530" y="-11" on="0"/>
      </contour>
      <contour>
        <pt x="267" y="69" on="0"/>
        <pt x="483" y="69" on="0"/>
        <pt x="600" y="214" on="0"/>
        <pt x="600" y="495" on="0"/>
        <pt x="483" y="636" on="0"/>
        <pt x="267" y="636" on="0"/>
        <pt x="150" y="496" on="0"/>
        <pt x="150" y="213" on="0"/>
      </contour>
      <contour>
        <pt x="251" y="883" on="1"/>
        <pt x="311" y="945" on="1"/>
        <pt x="444" y="781" on="1"/>
        <pt x="407" y="747" on="1"/>
      </contour>
    </TTGlyph>
    <TTGlyph name="Oslash" xMin="50" yMin="-61" xMax="700" yMax="742">
      <contour>
        <pt x="205" y="-61" on="1"/>
        <pt x="230" y="17" on="1"/>
        <pt x="142" y="55" on="0"/>
        <pt x="50" y="229" on="0"/>
        <pt x="50" y="356" on="1"/>
        <pt x="50" y="526" on="0"/>
        <pt x="218" y="716" on="0"/>
        <pt x="375" y="716" on="1"/>
        <pt x="409" y="716" on="0"/>
        <pt x="451" y="709" on="1"/>
        <pt x="462" y="742" on="1"/>
        <pt x="544" y="742" on="1"/>
        <pt x="526" y="686" on="1"/>
        <pt x="611" y="648" on="0"/>
        <pt x="700" y="479" on="0"/>
        <pt x="700" y="356" on="1"/>
        <pt x="700" y="184" on="0"/>
        <pt x="530" y="-11" on="0"/>
        <pt x="375" y="-11" on="1"/>
        <pt x="349" y="-11" on="0"/>
        <pt x="305" y="-5" on="1"/>
        <pt x="287" y="-61" on="1"/>
      </contour>
      <contour>
        <pt x="150" y="356" on="1"/>
        <pt x="150" y="162" on="0"/>
        <pt x="256" y="99" on="1"/>
        <pt x="426" y="631" on="1"/>
        <pt x="399" y="636" on="0"/>
        <pt x="375" y="636" on="1"/>
        <pt x="267" y="636" on="0"/>
        <pt x="150" y="496" on="0"/>
      </contour>
      <contour>
        <pt x="375" y="69" on="1"/>
        <pt x="483" y="69" on="0"/>
        <pt x="600" y="214" on="0"/>
        <pt x="600" y="356" on="1"/>
        <pt x="600" y="539" on="0"/>
        <pt x="499" y="603" on="1"/>
        <pt x="330" y="72" on="1"/>
        <pt x="351" y="69" on="0"/>
      </contour>
    </TTGlyph>
    <TTGlyph name="Otilde" xMin="50" yMin="-11" xMax="700" yMax="898">
      <contour>
        <pt x="219" y="-11" on="0"/>
        <pt x="50" y="183" on="0"/>
        <pt x="50" y="526" on="0"/>
        <pt x="218" y="716" on="0"/>
        <pt x="532" y="716" on="0"/>
        <pt x="700" y="526" on="0"/>
        <pt x="700" y="184" on="0"/>
        <pt x="530" y="-11" on="0"/>
      </contour>
      <contour>
        <pt x="267" y="69" on="0"/>
        <pt x="483" y="69" on="0"/>
        <pt x="600" y="214" on="0"/>
        <pt x="600" y="495" on="0"/>
        <pt x="483" y="636" on="0"/>
        <pt x="267" y="636" on="0"/>
        <pt x="150" y="496" on="0"/>
        <pt x="150" y="213" on="0"/>
      </contour>
      <contour>
        <pt x="189" y="779" on="1"/>
        <pt x="189" y="833" on="0"/>
        <pt x="250" y="898" on="0"/>
        <pt x="302" y="898" on="1"/>
        <pt x="350" y="898" on="0"/>
        <pt x="413" y="835" on="0"/>
        <pt x="439" y="835" on="1"/>
        <pt x="490" y="835" on="0"/>
        <pt x="490" y="889" on="1"/>
        <pt x="549" y="889" on="1"/>
        <pt x="549" y="835" on="0"/>
        <pt x="490" y="770" on="0"/>
        <pt x="441" y="770" on="1"/>
        <pt x="409" y="770" on="0"/>
        <pt x="361" y="802" on="0"/>
        <pt x="322" y="834" on="0"/>
        <pt x="277" y="834" on="0"/>
        <pt x="248" y="804" on="0"/>
        <pt x="248" y="779" on="1"/>
      </contour>
    </TTGlyph>
    <TTGlyph name="P" xMin="85" yMin="0" xMax="537" yMax="708">
      <contour>
        <pt x="85" y="0" on="1"/>
        <pt x="85" y="708" on="1"/>
        <pt x="294" y="708" on="1"/>
        <pt x="415" y="708" on="0"/>
        <pt x="537" y="599" on="0"/>
        <pt x="537" y="402" on="0"/>
        <pt x="412" y="291" on="0"/>
        <pt x="294" y="291" on="1"/>
        <pt x="181" y="291" on="1"/>
        <pt x="181" y="0" on="1"/>
      </contour>
      <contour>
        <pt x="181" y="628" on="1"/>
        <pt x="181" y="371" on="1"/>
        <pt x="294" y="371" on="1"/>
        <pt x="363" y="371" on="0"/>
        <pt x="437" y="437" on="0"/>
        <pt x="437" y="563" on="0"/>
        <pt x="364" y="628" on="0"/>
        <pt x="294" y="628" on="1"/>
      </contour>
    </TTGlyph>
    <TTGlyph name="Q" xMin="50" yMin="-214" xMax="700" yMax="716">
      <contour>
        <pt x="188" y="10" on="0"/>
        <pt x="50" y="200" on="0"/>
        <pt x="50" y="526" on="0"/>
        <pt x="218" y="716" on="0"/>
        <pt x="532" y="716" on="0"/>
        <pt x="700" y="526" on="0"/>
        <pt x="700" y="190" on="0"/>
        <pt x="543" y="-3" on="0"/>
        <pt x="399" y="-10" on="1"/>
        <pt x="409" y="-65" on="0"/>
        <pt x="484" y="-127" on="0"/>
        <pt x="573" y="-127" on="0"/>
        <pt x="611" y="-114" on="1"/>
        <pt x="639" y="-196" on="1"/>
        <pt x="584" y="-214" on="0"/>
        <pt x="532" y="-214" on="1"/>
        <pt x="444" y="-214" on="0"/>
        <pt x="328" y="-108" on="0"/>
        <pt x="318" y="-7" on="1"/>
      </contour>
      <contour>
        <pt x="267" y="69" on="0"/>
        <pt x="483" y="69" on="0"/>
        <pt x="600" y="214" on="0"/>
        <pt x="600" y="495" on="0"/>
        <pt x="483" y="636" on="0"/>
        <pt x="267" y="636" on="0"/>
        <pt x="150" y="496" on="0"/>
        <pt x="150" y="213" on="0"/>
      </contour>
    </TTGlyph>
    <TTGlyph name="R" xMin="85" yMin="0" xMax="572" yMax="708">
      <contour>
        <pt x="572" y="0" on="1"/>
        <pt x="467" y="0" on="1"/>
        <pt x="295" y="291" on="1"/>
        <pt x="181" y="291" on="1"/>
        <pt x="181" y="0" on="1"/>
        <pt x="85" y="0" on="1"/>
        <pt x="85" y="708" on="1"/>
        <pt x="294" y="708" on="1"/>
        <pt x="415" y="708" on="0"/>
        <pt x="537" y="599" on="0"/>
        <pt x="537" y="500" on="1"/>
        <pt x="537" y="425" on="0"/>
        <pt x="464" y="324" on="0"/>
        <pt x="393" y="304" on="1"/>
      </contour>
      <contour>
        <pt x="181" y="628" on="1"/>
        <pt x="181" y="371" on="1"/>
        <pt x="294" y="371" on="1"/>
        <pt x="363" y="371" on="0"/>
        <pt x="437" y="437" on="0"/>
        <pt x="437" y="563" on="0"/>
        <pt x="364" y="628" on="0"/>
        <pt x="294" y="628" on="1"/>
      </contour>
    </TTGlyph>
    <TTGlyph name="Racute" xMin="85" yMin="0" xMax="572" yMax="945">
      <contour>
        <pt x="572" y="0" on="1"/>
        <pt x="467" y="0" on="1"/>
        <pt x="295" y="291" on="1"/>
        <pt x="181" y="291" on="1"/>
        <pt x="181" y="0" on="1"/>
        <pt x="85" y="0" on="1"/>
        <pt x="85" y="708" on="1"/>
        <pt x="294" y="708" on="1"/>
        <pt x="415" y="708" on="0"/>
        <pt x="537" y="599" on="0"/>
        <pt x="537" y="500" on="1"/>
        <pt x="537" y="425" on="0"/>
        <pt x="464" y="324" on="0"/>
        <pt x="393" y="304" on="1"/>
      </contour>
      <contour>
        <pt x="181" y="628" on="1"/>
        <pt x="181" y="371" on="1"/>
        <pt x="294" y="371" on="1"/>
        <pt x="363" y="371" on="0"/>
        <pt x="437" y="437" on="0"/>
        <pt x="437" y="563" on="0"/>
        <pt x="364" y="628" on="0"/>
        <pt x="294" y="628" on="1"/>
      </contour>
      <contour>
        <pt x="188" y="781" on="1"/>
        <pt x="321" y="945" on="1"/>
        <pt x="381" y="883" on="1"/>
        <pt x="225" y="747" on="1"/>
      </contour>
    </TTGlyph>
    <TTGlyph name="Rcaron" xMin="85" yMin="0" xMax="572" yMax="922">
      <contour>
        <pt x="572" y="0" on="1"/>
        <pt x="467" y="0" on="1"/>
        <pt x="295" y="291" on="1"/>
        <pt x="181" y="291" on="1"/>
        <pt x="181" y="0" on="1"/>
        <pt x="85" y="0" on="1"/>
        <pt x="85" y="708" on="1"/>
        <pt x="294" y="708" on="1"/>
        <pt x="415" y="708" on="0"/>
        <pt x="537" y="599" on="0"/>
        <pt x="537" y="500" on="1"/>
        <pt x="537" y="425" on="0"/>
        <pt x="464" y="324" on="0"/>
        <pt x="393" y="304" on="1"/>
      </contour>
      <contour>
        <pt x="181" y="628" on="1"/>
        <pt x="181" y="371" on="1"/>
        <pt x="294" y="371" on="1"/>
        <pt x="363" y="371" on="0"/>
        <pt x="437" y="437" on="0"/>
        <pt x="437" y="563" on="0"/>
        <pt x="364" y="628" on="0"/>
        <pt x="294" y="628" on="1"/>
      </contour>
      <contour>
        <pt x="286" y="830" on="1"/>
        <pt x="420" y="922" on="1"/>
        <pt x="450" y="881" on="1"/>
        <pt x="297" y="754" on="1"/>
        <pt x="275" y="754" on="1"/>
        <pt x="122" y="881" on="1"/>
        <pt x="149" y="922" on="1"/>
      </contour>
    </TTGlyph>
    <TTGlyph name="Rcommaaccent" xMin="85" yMin="-260" xMax="572" yMax="708">
      <contour>
        <pt x="572" y="0" on="1"/>
        <pt x="467" y="0" on="1"/>
        <pt x="295" y="291" on="1"/>
        <pt x="181" y="291" on="1"/>
        <pt x="181" y="0" on="1"/>
        <pt x="85" y="0" on="1"/>
        <pt x="85" y="708" on="1"/>
        <pt x="294" y="708" on="1"/>
        <pt x="415" y="708" on="0"/>
        <pt x="537" y="599" on="0"/>
        <pt x="537" y="500" on="1"/>
        <pt x="537" y="425" on="0"/>
        <pt x="464" y="324" on="0"/>
        <pt x="393" y="304" on="1"/>
      </contour>
      <contour>
        <pt x="181" y="628" on="1"/>
        <pt x="181" y="371" on="1"/>
        <pt x="294" y="371" on="1"/>
        <pt x="363" y="371" on="0"/>
        <pt x="437" y="437" on="0"/>
        <pt x="437" y="563" on="0"/>
        <pt x="364" y="628" on="0"/>
        <pt x="294" y="628" on="1"/>
      </contour>
      <contour>
        <pt x="259" y="-42" on="1"/>
        <pt x="359" y="-42" on="1"/>
        <pt x="359" y="-122" on="1"/>
        <pt x="340" y="-260" on="1"/>
        <pt x="304" y="-260" on="1"/>
        <pt x="304" y="-142" on="1"/>
        <pt x="259" y="-142" on="1"/>
      </contour>
    </TTGlyph>
    <TTGlyph name="S" xMin="47" yMin="-19" xMax="501" yMax="706">
      <contour>
        <pt x="47" y="31" on="1"/>
        <pt x="74" y="110" on="1"/>
        <pt x="91" y="101" on="0"/>
        <pt x="155" y="78" on="0"/>
        <pt x="178" y="72" on="0"/>
        <pt x="194" y="68" on="1"/>
        <pt x="222" y="62" on="0"/>
        <pt x="257" y="62" on="1"/>
        <pt x="324" y="62" on="0"/>
        <pt x="402" y="127" on="0"/>
        <pt x="402" y="184" on="1"/>
        <pt x="402" y="242" on="0"/>
        <pt x="358" y="269" on="1"/>
        <pt x="323" y="291" on="0"/>
        <pt x="231" y="318" on="0"/>
        <pt x="209" y="325" on="0"/>
        <pt x="155" y="346" on="0"/>
        <pt x="131" y="362" on="0"/>
        <pt x="93" y="394" on="0"/>
        <pt x="84" y="411" on="1"/>
        <pt x="62" y="456" on="0"/>
        <pt x="62" y="507" on="1"/>
        <pt x="62" y="596" on="0"/>
        <pt x="183" y="706" on="0"/>
        <pt x="303" y="706" on="1"/>
        <pt x="385" y="706" on="0"/>
        <pt x="478" y="667" on="1"/>
        <pt x="455" y="590" on="1"/>
        <pt x="370" y="625" on="0"/>
        <pt x="237" y="625" on="0"/>
        <pt x="162" y="569" on="0"/>
        <pt x="162" y="519" on="1"/>
        <pt x="162" y="463" on="0"/>
        <pt x="204" y="436" on="1"/>
        <pt x="235" y="415" on="0"/>
        <pt x="324" y="388" on="0"/>
        <pt x="343" y="381" on="0"/>
        <pt x="393" y="363" on="0"/>
        <pt x="415" y="349" on="0"/>
        <pt x="453" y="324" on="0"/>
        <pt x="471" y="296" on="0"/>
        <pt x="482" y="278" on="1"/>
        <pt x="501" y="246" on="0"/>
        <pt x="501" y="184" on="1"/>
        <pt x="501" y="86" on="0"/>
        <pt x="370" y="-19" on="0"/>
        <pt x="165" y="-19" on="0"/>
      </contour>
    </TTGlyph>
    <TTGlyph name="T" xMin="0" yMin="0" xMax="522" yMax="708">
      <contour>
        <pt x="219" y="0" on="1"/>
        <pt x="219" y="628" on="1"/>
        <pt x="0" y="628" on="1"/>
        <pt x="0" y="708" on="1"/>
        <pt x="522" y="708" on="1"/>
        <pt x="522" y="628" on="1"/>
        <pt x="315" y="628" on="1"/>
        <pt x="315" y="0" on="1"/>
      </contour>
    </TTGlyph>
    <TTGlyph name="Thorn" xMin="85" yMin="0" xMax="537" yMax="708">
      <contour>
        <pt x="181" y="708" on="1"/>
        <pt x="181" y="582" on="1"/>
        <pt x="294" y="582" on="1"/>
        <pt x="415" y="582" on="0"/>
        <pt x="537" y="473" on="0"/>
        <pt x="537" y="276" on="0"/>
        <pt x="412" y="165" on="0"/>
        <pt x="294" y="165" on="1"/>
        <pt x="181" y="165" on="1"/>
        <pt x="181" y="0" on="1"/>
        <pt x="85" y="0" on="1"/>
        <pt x="85" y="708" on="1"/>
      </contour>
      <contour>
        <pt x="294" y="502" on="1"/>
        <pt x="181" y="502" on="1"/>
        <pt x="181" y="245" on="1"/>
        <pt x="294" y="245" on="1"/>
        <pt x="363" y="245" on="0"/>
        <pt x="437" y="311" on="0"/>
        <pt x="437" y="437" on="0"/>
        <pt x="364" y="502" on="0"/>
      </contour>
    </TTGlyph>
    <TTGlyph name="U" xMin="78" yMin="-8" xMax="631" yMax="708">
      <contour>
        <pt x="78" y="225" on="1"/>
        <pt x="78" y="708" on="1"/>
        <pt x="174" y="708" on="1"/>
        <pt x="174" y="230" on="1"/>
        <pt x="174" y="75" on="0"/>
        <pt x="535" y="75" on="0"/>
        <pt x="535" y="225" on="1"/>
        <pt x="535" y="708" on="1"/>
        <pt x="631" y="708" on="1"/>
        <pt x="631" y="225" on="1"/>
        <pt x="631" y="114" on="0"/>
        <pt x="493" y="-8" on="0"/>
        <pt x="215" y="-8" on="0"/>
        <pt x="78" y="114" on="0"/>
      </contour>
    </TTGlyph>
    <TTGlyph name="Uacute" xMin="78" yMin="-8" xMax="631" yMax="945">
      <contour>
        <pt x="78" y="225" on="1"/>
        <pt x="78" y="708" on="1"/>
        <pt x="174" y="708" on="1"/>
        <pt x="174" y="230" on="1"/>
        <pt x="174" y="75" on="0"/>
        <pt x="535" y="75" on="0"/>
        <pt x="535" y="225" on="1"/>
        <pt x="535" y="708" on="1"/>
        <pt x="631" y="708" on="1"/>
        <pt x="631" y="225" on="1"/>
        <pt x="631" y="114" on="0"/>
        <pt x="493" y="-8" on="0"/>
        <pt x="215" y="-8" on="0"/>
        <pt x="78" y="114" on="0"/>
      </contour>
      <contour>
        <pt x="259" y="781" on="1"/>
        <pt x="392" y="945" on="1"/>
        <pt x="452" y="883" on="1"/>
        <pt x="296" y="747" on="1"/>
      </contour>
    </TTGlyph>
    <TTGlyph name="Ucircumflex" xMin="78" yMin="-8" xMax="631" yMax="922">
      <contour>
        <pt x="78" y="225" on="1"/>
        <pt x="78" y="708" on="1"/>
        <pt x="174" y="708" on="1"/>
        <pt x="174" y="230" on="1"/>
        <pt x="174" y="75" on="0"/>
        <pt x="535" y="75" on="0"/>
        <pt x="535" y="225" on="1"/>
        <pt x="535" y="708" on="1"/>
        <pt x="631" y="708" on="1"/>
        <pt x="631" y="225" on="1"/>
        <pt x="631" y="114" on="0"/>
        <pt x="493" y="-8" on="0"/>
        <pt x="215" y="-8" on="0"/>
        <pt x="78" y="114" on="0"/>
      </contour>
      <contour>
        <pt x="343" y="922" on="1"/>
        <pt x="365" y="922" on="1"/>
        <pt x="518" y="795" on="1"/>
        <pt x="488" y="754" on="1"/>
        <pt x="354" y="846" on="1"/>
        <pt x="217" y="754" on="1"/>
        <pt x="190" y="795" on="1"/>
      </contour>
    </TTGlyph>
    <TTGlyph name="Udieresis" xMin="78" yMin="-8" xMax="631" yMax="896">
      <contour>
        <pt x="78" y="225" on="1"/>
        <pt x="78" y="708" on="1"/>
        <pt x="174" y="708" on="1"/>
        <pt x="174" y="230" on="1"/>
        <pt x="174" y="75" on="0"/>
        <pt x="535" y="75" on="0"/>
        <pt x="535" y="225" on="1"/>
        <pt x="535" y="708" on="1"/>
        <pt x="631" y="708" on="1"/>
        <pt x="631" y="225" on="1"/>
        <pt x="631" y="114" on="0"/>
        <pt x="493" y="-8" on="0"/>
        <pt x="215" y="-8" on="0"/>
        <pt x="78" y="114" on="0"/>
      </contour>
      <contour>
        <pt x="217" y="896" on="1"/>
        <pt x="310" y="896" on="1"/>
        <pt x="310" y="803" on="1"/>
        <pt x="217" y="803" on="1"/>
      </contour>
      <contour>
        <pt x="399" y="896" on="1"/>
        <pt x="491" y="896" on="1"/>
        <pt x="491" y="803" on="1"/>
        <pt x="399" y="803" on="1"/>
      </contour>
    </TTGlyph>
    <TTGlyph name="Ugrave" xMin="78" yMin="-8" xMax="631" yMax="945">
      <contour>
        <pt x="78" y="225" on="1"/>
        <pt x="78" y="708" on="1"/>
        <pt x="174" y="708" on="1"/>
        <pt x="174" y="230" on="1"/>
        <pt x="174" y="75" on="0"/>
        <pt x="535" y="75" on="0"/>
        <pt x="535" y="225" on="1"/>
        <pt x="535" y="708" on="1"/>
        <pt x="631" y="708" on="1"/>
        <pt x="631" y="225" on="1"/>
        <pt x="631" y="114" on="0"/>
        <pt x="493" y="-8" on="0"/>
        <pt x="215" y="-8" on="0"/>
        <pt x="78" y="114" on="0"/>
      </contour>
      <contour>
        <pt x="233" y="883" on="1"/>
        <pt x="293" y="945" on="1"/>
        <pt x="426" y="781" on="1"/>
        <pt x="389" y="747" on="1"/>
      </contour>
    </TTGlyph>
    <TTGlyph name="V" xMin="20" yMin="0" xMax="611" yMax="708">
      <contour>
        <pt x="252" y="0" on="1"/>
        <pt x="20" y="708" on="1"/>
        <pt x="116" y="708" on="1"/>
        <pt x="313" y="103" on="1"/>
        <pt x="518" y="708" on="1"/>
        <pt x="611" y="708" on="1"/>
        <pt x="370" y="0" on="1"/>
      </contour>
    </TTGlyph>
    <TTGlyph name="W" xMin="28" yMin="0" xMax="1005" yMax="707">
      <contour>
        <pt x="362" y="0" on="1"/>
        <pt x="217" y="0" on="1"/>
        <pt x="28" y="707" on="1"/>
        <pt x="125" y="707" on="1"/>
        <pt x="291" y="88" on="1"/>
        <pt x="454" y="707" on="1"/>
        <pt x="579" y="707" on="1"/>
        <pt x="742" y="86" on="1"/>
        <pt x="909" y="707" on="1"/>
        <pt x="1005" y="707" on="1"/>
        <pt x="816" y="0" on="1"/>
        <pt x="671" y="0" on="1"/>
        <pt x="516" y="590" on="1"/>
      </contour>
    </TTGlyph>
    <TTGlyph name="X" xMin="4" yMin="0" xMax="642" yMax="708">
      <contour>
        <pt x="642" y="0" on="1"/>
        <pt x="532" y="0" on="1"/>
        <pt x="322" y="293" on="1"/>
        <pt x="113" y="0" on="1"/>
        <pt x="4" y="0" on="1"/>
        <pt x="266" y="370" on="1"/>
        <pt x="24" y="708" on="1"/>
        <pt x="134" y="708" on="1"/>
        <pt x="326" y="440" on="1"/>
        <pt x="518" y="708" on="1"/>
        <pt x="627" y="708" on="1"/>
        <pt x="381" y="363" on="1"/>
      </contour>
    </TTGlyph>
    <TTGlyph name="Y" xMin="2" yMin="0" xMax="566" yMax="708">
      <contour>
        <pt x="236" y="0" on="1"/>
        <pt x="236" y="298" on="1"/>
        <pt x="2" y="708" on="1"/>
        <pt x="107" y="708" on="1"/>
        <pt x="284" y="391" on="1"/>
        <pt x="462" y="708" on="1"/>
        <pt x="566" y="708" on="1"/>
        <pt x="331" y="298" on="1"/>
        <pt x="331" y="0" on="1"/>
      </contour>
    </TTGlyph>
    <TTGlyph name="Yacute" xMin="2" yMin="0" xMax="566" yMax="945">
      <contour>
        <pt x="236" y="0" on="1"/>
        <pt x="236" y="298" on="1"/>
        <pt x="2" y="708" on="1"/>
        <pt x="107" y="708" on="1"/>
        <pt x="284" y="391" on="1"/>
        <pt x="462" y="708" on="1"/>
        <pt x="566" y="708" on="1"/>
        <pt x="331" y="298" on="1"/>
        <pt x="331" y="0" on="1"/>
      </contour>
      <contour>
        <pt x="187" y="781" on="1"/>
        <pt x="320" y="945" on="1"/>
        <pt x="380" y="883" on="1"/>
        <pt x="224" y="747" on="1"/>
      </contour>
    </TTGlyph>
    <TTGlyph name="Z" xMin="43" yMin="0" xMax="520" yMax="708">
      <contour>
        <pt x="43" y="0" on="1"/>
        <pt x="43" y="75" on="1"/>
        <pt x="400" y="627" on="1"/>
        <pt x="55" y="627" on="1"/>
        <pt x="55" y="708" on="1"/>
        <pt x="520" y="708" on="1"/>
        <pt x="520" y="637" on="1"/>
        <pt x="161" y="83" on="1"/>
        <pt x="515" y="83" on="1"/>
        <pt x="515" y="0" on="1"/>
      </contour>
    </TTGlyph>
    <TTGlyph name="a" xMin="44" yMin="-12" xMax="467" yMax="523">
      <contour>
        <pt x="136" y="-12" on="0"/>
        <pt x="44" y="70" on="0"/>
        <pt x="44" y="221" on="0"/>
        <pt x="176" y="311" on="0"/>
        <pt x="297" y="311" on="1"/>
        <pt x="373" y="311" on="1"/>
        <pt x="373" y="331" on="1"/>
        <pt x="373" y="395" on="0"/>
        <pt x="320" y="449" on="0"/>
        <pt x="186" y="449" on="0"/>
        <pt x="101" y="412" on="1"/>
        <pt x="73" y="477" on="1"/>
        <pt x="167" y="523" on="0"/>
        <pt x="367" y="523" on="0"/>
        <pt x="467" y="430" on="0"/>
        <pt x="467" y="329" on="1"/>
        <pt x="467" y="0" on="1"/>
        <pt x="394" y="0" on="1"/>
        <pt x="390" y="24" on="0"/>
        <pt x="381" y="60" on="1"/>
        <pt x="309" y="-12" on="0"/>
        <pt x="213" y="-12" on="1"/>
      </contour>
      <contour>
        <pt x="138" y="141" on="1"/>
        <pt x="138" y="62" on="0"/>
        <pt x="231" y="62" on="1"/>
        <pt x="271" y="62" on="0"/>
        <pt x="347" y="99" on="0"/>
        <pt x="373" y="131" on="1"/>
        <pt x="373" y="241" on="1"/>
        <pt x="303" y="241" on="1"/>
        <pt x="138" y="241" on="0"/>
      </contour>
    </TTGlyph>
    <TTGlyph name="aacute" xMin="44" yMin="-12" xMax="467" yMax="765">
      <contour>
        <pt x="136" y="-12" on="0"/>
        <pt x="44" y="70" on="0"/>
        <pt x="44" y="221" on="0"/>
        <pt x="176" y="311" on="0"/>
        <pt x="297" y="311" on="1"/>
        <pt x="373" y="311" on="1"/>
        <pt x="373" y="331" on="1"/>
        <pt x="373" y="395" on="0"/>
        <pt x="320" y="449" on="0"/>
        <pt x="186" y="449" on="0"/>
        <pt x="101" y="412" on="1"/>
        <pt x="73" y="477" on="1"/>
        <pt x="167" y="523" on="0"/>
        <pt x="367" y="523" on="0"/>
        <pt x="467" y="430" on="0"/>
        <pt x="467" y="329" on="1"/>
        <pt x="467" y="0" on="1"/>
        <pt x="394" y="0" on="1"/>
        <pt x="390" y="24" on="0"/>
        <pt x="381" y="60" on="1"/>
        <pt x="309" y="-12" on="0"/>
        <pt x="213" y="-12" on="1"/>
      </contour>
      <contour>
        <pt x="138" y="141" on="1"/>
        <pt x="138" y="62" on="0"/>
        <pt x="231" y="62" on="1"/>
        <pt x="271" y="62" on="0"/>
        <pt x="347" y="99" on="0"/>
        <pt x="373" y="131" on="1"/>
        <pt x="373" y="241" on="1"/>
        <pt x="303" y="241" on="1"/>
        <pt x="138" y="241" on="0"/>
      </contour>
      <contour>
        <pt x="176" y="601" on="1"/>
        <pt x="309" y="765" on="1"/>
        <pt x="369" y="703" on="1"/>
        <pt x="213" y="567" on="1"/>
      </contour>
    </TTGlyph>
    <TTGlyph name="acircumflex" xMin="44" yMin="-12" xMax="467" yMax="742">
      <contour>
        <pt x="136" y="-12" on="0"/>
        <pt x="44" y="70" on="0"/>
        <pt x="44" y="221" on="0"/>
        <pt x="176" y="311" on="0"/>
        <pt x="297" y="311" on="1"/>
        <pt x="373" y="311" on="1"/>
        <pt x="373" y="331" on="1"/>
        <pt x="373" y="395" on="0"/>
        <pt x="320" y="449" on="0"/>
        <pt x="186" y="449" on="0"/>
        <pt x="101" y="412" on="1"/>
        <pt x="73" y="477" on="1"/>
        <pt x="167" y="523" on="0"/>
        <pt x="367" y="523" on="0"/>
        <pt x="467" y="430" on="0"/>
        <pt x="467" y="329" on="1"/>
        <pt x="467" y="0" on="1"/>
        <pt x="394" y="0" on="1"/>
        <pt x="390" y="24" on="0"/>
        <pt x="381" y="60" on="1"/>
        <pt x="309" y="-12" on="0"/>
        <pt x="213" y="-12" on="1"/>
      </contour>
      <contour>
        <pt x="138" y="141" on="1"/>
        <pt x="138" y="62" on="0"/>
        <pt x="231" y="62" on="1"/>
        <pt x="271" y="62" on="0"/>
        <pt x="347" y="99" on="0"/>
        <pt x="373" y="131" on="1"/>
        <pt x="373" y="241" on="1"/>
        <pt x="303" y="241" on="1"/>
        <pt x="138" y="241" on="0"/>
      </contour>
      <contour>
        <pt x="260" y="742" on="1"/>
        <pt x="282" y="742" on="1"/>
        <pt x="435" y="615" on="1"/>
        <pt x="405" y="574" on="1"/>
        <pt x="271" y="666" on="1"/>
        <pt x="134" y="574" on="1"/>
        <pt x="107" y="615" on="1"/>
      </contour>
    </TTGlyph>
    <TTGlyph name="acute" xMin="20" yMin="567" xMax="213" yMax="765">
      <contour>
        <pt x="20" y="601" on="1"/>
        <pt x="153" y="765" on="1"/>
        <pt x="213" y="703" on="1"/>
        <pt x="57" y="567" on="1"/>
      </contour>
    </TTGlyph>
    <TTGlyph name="adieresis" xMin="44" yMin="-12" xMax="467" yMax="716">
      <contour>
        <pt x="136" y="-12" on="0"/>
        <pt x="44" y="70" on="0"/>
        <pt x="44" y="221" on="0"/>
        <pt x="176" y="311" on="0"/>
        <pt x="297" y="311" on="1"/>
        <pt x="373" y="311" on="1"/>
        <pt x="373" y="331" on="1"/>
        <pt x="373" y="395" on="0"/>
        <pt x="320" y="449" on="0"/>
        <pt x="186" y="449" on="0"/>
        <pt x="101" y="412" on="1"/>
        <pt x="73" y="477" on="1"/>
        <pt x="167" y="523" on="0"/>
        <pt x="367" y="523" on="0"/>
        <pt x="467" y="430" on="0"/>
        <pt x="467" y="329" on="1"/>
        <pt x="467" y="0" on="1"/>
        <pt x="394" y="0" on="1"/>
        <pt x="390" y="24" on="0"/>
        <pt x="381" y="60" on="1"/>
        <pt x="309" y="-12" on="0"/>
        <pt x="213" y="-12" on="1"/>
      </contour>
      <contour>
        <pt x="138" y="141" on="1"/>
        <pt x="138" y="62" on="0"/>
        <pt x="231" y="62" on="1"/>
        <pt x="271" y="62" on="0"/>
        <pt x="347" y="99" on="0"/>
        <pt x="373" y="131" on="1"/>
        <pt x="373" y="241" on="1"/>
        <pt x="303" y="241" on="1"/>
        <pt x="138" y="241" on="0"/>
      </contour>
      <contour>
        <pt x="134" y="716" on="1"/>
        <pt x="227" y="716" on="1"/>
        <pt x="227" y="623" on="1"/>
        <pt x="134" y="623" on="1"/>
      </contour>
      <contour>
        <pt x="316" y="716" on="1"/>
        <pt x="408" y="716" on="1"/>
        <pt x="408" y="623" on="1"/>
        <pt x="316" y="623" on="1"/>
      </contour>
    </TTGlyph>
    <TTGlyph name="ae" xMin="44" yMin="-12" xMax="826" yMax="523">
      <contour>
        <pt x="136" y="-12" on="0"/>
        <pt x="44" y="70" on="0"/>
        <pt x="44" y="221" on="0"/>
        <pt x="176" y="311" on="0"/>
        <pt x="297" y="311" on="1"/>
        <pt x="373" y="311" on="1"/>
        <pt x="373" y="331" on="1"/>
        <pt x="373" y="395" on="0"/>
        <pt x="320" y="449" on="0"/>
        <pt x="186" y="449" on="0"/>
        <pt x="101" y="412" on="1"/>
        <pt x="73" y="477" on="1"/>
        <pt x="167" y="523" on="0"/>
        <pt x="258" y="523" on="1"/>
        <pt x="393" y="523" on="0"/>
        <pt x="438" y="450" on="1"/>
        <pt x="500" y="523" on="0"/>
        <pt x="612" y="523" on="1"/>
        <pt x="826" y="523" on="0"/>
        <pt x="826" y="261" on="1"/>
        <pt x="826" y="245" on="1"/>
        <pt x="467" y="245" on="1"/>
        <pt x="469" y="158" on="0"/>
        <pt x="547" y="66" on="0"/>
        <pt x="692" y="66" on="0"/>
        <pt x="779" y="105" on="1"/>
        <pt x="806" y="41" on="1"/>
        <pt x="711" y="-8" on="0"/>
        <pt x="615" y="-8" on="1"/>
        <pt x="486" y="-8" on="0"/>
        <pt x="426" y="84" on="1"/>
        <pt x="329" y="-12" on="0"/>
        <pt x="213" y="-12" on="1"/>
      </contour>
      <contour>
        <pt x="138" y="141" on="1"/>
        <pt x="138" y="62" on="0"/>
        <pt x="231" y="62" on="1"/>
        <pt x="271" y="62" on="0"/>
        <pt x="347" y="99" on="0"/>
        <pt x="373" y="131" on="1"/>
        <pt x="373" y="241" on="1"/>
        <pt x="303" y="241" on="1"/>
        <pt x="138" y="241" on="0"/>
      </contour>
      <contour>
        <pt x="612" y="449" on="1"/>
        <pt x="493" y="449" on="0"/>
        <pt x="471" y="315" on="1"/>
        <pt x="727" y="315" on="1"/>
        <pt x="720" y="384" on="0"/>
        <pt x="664" y="449" on="0"/>
      </contour>
    </TTGlyph>
    <TTGlyph name="agrave" xMin="44" yMin="-12" xMax="467" yMax="765">
      <contour>
        <pt x="136" y="-12" on="0"/>
        <pt x="44" y="70" on="0"/>
        <pt x="44" y="221" on="0"/>
        <pt x="176" y="311" on="0"/>
        <pt x="297" y="311" on="1"/>
        <pt x="373" y="311" on="1"/>
        <pt x="373" y="331" on="1"/>
        <pt x="373" y="395" on="0"/>
        <pt x="320" y="449" on="0"/>
        <pt x="186" y="449" on="0"/>
        <pt x="101" y="412" on="1"/>
        <pt x="73" y="477" on="1"/>
        <pt x="167" y="523" on="0"/>
        <pt x="367" y="523" on="0"/>
        <pt x="467" y="430" on="0"/>
        <pt x="467" y="329" on="1"/>
        <pt x="467" y="0" on="1"/>
        <pt x="394" y="0" on="1"/>
        <pt x="390" y="24" on="0"/>
        <pt x="381" y="60" on="1"/>
        <pt x="309" y="-12" on="0"/>
        <pt x="213" y="-12" on="1"/>
      </contour>
      <contour>
        <pt x="138" y="141" on="1"/>
        <pt x="138" y="62" on="0"/>
        <pt x="231" y="62" on="1"/>
        <pt x="271" y="62" on="0"/>
        <pt x="347" y="99" on="0"/>
        <pt x="373" y="131" on="1"/>
        <pt x="373" y="241" on="1"/>
        <pt x="303" y="241" on="1"/>
        <pt x="138" y="241" on="0"/>
      </contour>
      <contour>
        <pt x="150" y="703" on="1"/>
        <pt x="210" y="765" on="1"/>
        <pt x="343" y="601" on="1"/>
        <pt x="306" y="567" on="1"/>
      </contour>
    </TTGlyph>
    <TTGlyph name="ampersand" xMin="46" yMin="-12" xMax="697" yMax="716">
      <contour>
        <pt x="327" y="433" on="1"/>
        <pt x="446" y="433" on="1"/>
        <pt x="462" y="598" on="1"/>
        <pt x="532" y="583" on="1"/>
        <pt x="532" y="433" on="1"/>
        <pt x="689" y="433" on="1"/>
        <pt x="689" y="363" on="1"/>
        <pt x="532" y="363" on="1"/>
        <pt x="532" y="156" on="1"/>
        <pt x="532" y="69" on="0"/>
        <pt x="607" y="69" on="1"/>
        <pt x="640" y="69" on="0"/>
        <pt x="681" y="83" on="1"/>
        <pt x="697" y="17" on="1"/>
        <pt x="642" y="-6" on="0"/>
        <pt x="521" y="-6" on="0"/>
        <pt x="480" y="35" on="1"/>
        <pt x="393" y="-12" on="0"/>
        <pt x="181" y="-12" on="0"/>
        <pt x="46" y="106" on="0"/>
        <pt x="46" y="206" on="1"/>
        <pt x="46" y="349" on="0"/>
        <pt x="178" y="399" on="1"/>
        <pt x="96" y="439" on="0"/>
        <pt x="96" y="543" on="1"/>
        <pt x="96" y="618" on="0"/>
        <pt x="210" y="716" on="0"/>
        <pt x="383" y="716" on="0"/>
        <pt x="447" y="681" on="1"/>
        <pt x="417" y="611" on="1"/>
        <pt x="365" y="636" on="0"/>
        <pt x="254" y="636" on="0"/>
        <pt x="196" y="587" on="0"/>
        <pt x="196" y="493" on="0"/>
        <pt x="260" y="433" on="0"/>
      </contour>
      <contour>
        <pt x="438" y="151" on="1"/>
        <pt x="438" y="363" on="1"/>
        <pt x="318" y="363" on="1"/>
        <pt x="234" y="363" on="0"/>
        <pt x="146" y="285" on="0"/>
        <pt x="146" y="145" on="0"/>
        <pt x="236" y="69" on="0"/>
        <pt x="389" y="69" on="0"/>
        <pt x="446" y="92" on="1"/>
        <pt x="438" y="119" on="0"/>
      </contour>
    </TTGlyph>
    <TTGlyph name="aring" xMin="44" yMin="-12" xMax="467" yMax="755">
      <contour>
        <pt x="136" y="-12" on="0"/>
        <pt x="44" y="70" on="0"/>
        <pt x="44" y="221" on="0"/>
        <pt x="176" y="311" on="0"/>
        <pt x="297" y="311" on="1"/>
        <pt x="373" y="311" on="1"/>
        <pt x="373" y="331" on="1"/>
        <pt x="373" y="395" on="0"/>
        <pt x="320" y="449" on="0"/>
        <pt x="186" y="449" on="0"/>
        <pt x="101" y="412" on="1"/>
        <pt x="73" y="477" on="1"/>
        <pt x="167" y="523" on="0"/>
        <pt x="367" y="523" on="0"/>
        <pt x="467" y="430" on="0"/>
        <pt x="467" y="329" on="1"/>
        <pt x="467" y="0" on="1"/>
        <pt x="394" y="0" on="1"/>
        <pt x="390" y="24" on="0"/>
        <pt x="381" y="60" on="1"/>
        <pt x="309" y="-12" on="0"/>
        <pt x="213" y="-12" on="1"/>
      </contour>
      <contour>
        <pt x="138" y="141" on="1"/>
        <pt x="138" y="62" on="0"/>
        <pt x="231" y="62" on="1"/>
        <pt x="271" y="62" on="0"/>
        <pt x="347" y="99" on="0"/>
        <pt x="373" y="131" on="1"/>
        <pt x="373" y="241" on="1"/>
        <pt x="303" y="241" on="1"/>
        <pt x="138" y="241" on="0"/>
      </contour>
      <contour>
        <pt x="173" y="615" on="0"/>
        <pt x="173" y="697" on="0"/>
        <pt x="231" y="755" on="0"/>
        <pt x="313" y="755" on="0"/>
        <pt x="371" y="697" on="0"/>
        <pt x="371" y="615" on="0"/>
        <pt x="313" y="557" on="0"/>
        <pt x="231" y="557" on="0"/>
      </contour>
      <contour>
        <pt x="322" y="633" on="0"/>
        <pt x="322" y="679" on="0"/>
        <pt x="294" y="711" on="0"/>
        <pt x="250" y="711" on="0"/>
        <pt x="223" y="680" on="0"/>
        <pt x="223" y="633" on="0"/>
        <pt x="250" y="602" on="0"/>
        <pt x="294" y="602" on="0"/>
      </contour>
    </TTGlyph>
    <TTGlyph name="asciicircum" xMin="88" yMin="363" xMax="585" yMax="707">
      <contour>
        <pt x="309" y="707" on="1"/>
        <pt x="363" y="707" on="1"/>
        <pt x="585" y="364" on="1"/>
        <pt x="500" y="364" on="1"/>
        <pt x="336" y="631" on="1"/>
        <pt x="172" y="363" on="1"/>
        <pt x="88" y="363" on="1"/>
      </contour>
    </TTGlyph>
    <TTGlyph name="asciitilde" xMin="18" yMin="271" xMax="519" yMax="455">
      <contour>
        <pt x="268" y="416" on="1"/>
        <pt x="285" y="400" on="0"/>
        <pt x="300" y="384" on="1"/>
        <pt x="335" y="345" on="0"/>
        <pt x="402" y="345" on="0"/>
        <pt x="438" y="393" on="0"/>
        <pt x="438" y="434" on="1"/>
        <pt x="519" y="434" on="1"/>
        <pt x="519" y="360" on="0"/>
        <pt x="440" y="271" on="0"/>
        <pt x="373" y="271" on="1"/>
        <pt x="334" y="271" on="0"/>
        <pt x="272" y="305" on="0"/>
        <pt x="255" y="326" on="1"/>
        <pt x="210" y="381" on="0"/>
        <pt x="173" y="381" on="1"/>
        <pt x="99" y="381" on="0"/>
        <pt x="99" y="292" on="1"/>
        <pt x="18" y="292" on="1"/>
        <pt x="18" y="366" on="0"/>
        <pt x="97" y="455" on="0"/>
        <pt x="227" y="455" on="0"/>
      </contour>
    </TTGlyph>
    <TTGlyph name="asterisk" xMin="30" yMin="396" xMax="365" yMax="720">
      <contour>
        <pt x="125" y="396" on="1"/>
        <pt x="64" y="439" on="1"/>
        <pt x="168" y="545" on="1"/>
        <pt x="30" y="573" on="1"/>
        <pt x="51" y="644" on="1"/>
        <pt x="178" y="580" on="1"/>
        <pt x="160" y="720" on="1"/>
        <pt x="235" y="720" on="1"/>
        <pt x="214" y="581" on="1"/>
        <pt x="343" y="641" on="1"/>
        <pt x="365" y="573" on="1"/>
        <pt x="225" y="547" on="1"/>
        <pt x="325" y="440" on="1"/>
        <pt x="264" y="396" on="1"/>
        <pt x="195" y="528" on="1"/>
      </contour>
    </TTGlyph>
    <TTGlyph name="at" xMin="49" yMin="-224" xMax="955" yMax="714">
      <contour>
        <pt x="673" y="-118" on="1"/>
        <pt x="697" y="-190" on="1"/>
        <pt x="614" y="-224" on="0"/>
        <pt x="505" y="-224" on="1"/>
        <pt x="292" y="-224" on="0"/>
        <pt x="49" y="16" on="0"/>
        <pt x="49" y="437" on="0"/>
        <pt x="322" y="714" on="0"/>
        <pt x="726" y="714" on="0"/>
        <pt x="955" y="498" on="0"/>
        <pt x="955" y="318" on="1"/>
        <pt x="955" y="184" on="0"/>
        <pt x="840" y="27" on="0"/>
        <pt x="743" y="27" on="1"/>
        <pt x="694" y="27" on="0"/>
        <pt x="619" y="79" on="0"/>
        <pt x="605" y="121" on="1"/>
        <pt x="553" y="27" on="0"/>
        <pt x="449" y="27" on="1"/>
        <pt x="380" y="27" on="0"/>
        <pt x="296" y="119" on="0"/>
        <pt x="296" y="197" on="1"/>
        <pt x="296" y="320" on="0"/>
        <pt x="444" y="465" on="0"/>
        <pt x="558" y="465" on="1"/>
        <pt x="620" y="465" on="0"/>
        <pt x="686" y="441" on="1"/>
        <pt x="665" y="283" on="1"/>
        <pt x="662" y="263" on="0"/>
        <pt x="662" y="228" on="1"/>
        <pt x="662" y="105" on="0"/>
        <pt x="748" y="105" on="1"/>
        <pt x="794" y="105" on="0"/>
        <pt x="857" y="205" on="0"/>
        <pt x="857" y="315" on="1"/>
        <pt x="857" y="463" on="0"/>
        <pt x="694" y="636" on="0"/>
        <pt x="366" y="636" on="0"/>
        <pt x="147" y="394" on="0"/>
        <pt x="147" y="57" on="0"/>
        <pt x="342" y="-146" on="0"/>
        <pt x="505" y="-146" on="1"/>
        <pt x="598" y="-146" on="0"/>
      </contour>
      <contour>
        <pt x="386" y="212" on="1"/>
        <pt x="386" y="161" on="0"/>
        <pt x="427" y="105" on="0"/>
        <pt x="508" y="105" on="0"/>
        <pt x="573" y="186" on="0"/>
        <pt x="583" y="252" on="1"/>
        <pt x="602" y="383" on="1"/>
        <pt x="575" y="390" on="0"/>
        <pt x="546" y="390" on="1"/>
        <pt x="476" y="390" on="0"/>
        <pt x="390" y="295" on="0"/>
      </contour>
    </TTGlyph>
    <TTGlyph name="atilde" xMin="44" yMin="-12" xMax="467" yMax="718">
      <contour>
        <pt x="136" y="-12" on="0"/>
        <pt x="44" y="70" on="0"/>
        <pt x="44" y="221" on="0"/>
        <pt x="176" y="311" on="0"/>
        <pt x="297" y="311" on="1"/>
        <pt x="373" y="311" on="1"/>
        <pt x="373" y="331" on="1"/>
        <pt x="373" y="395" on="0"/>
        <pt x="320" y="449" on="0"/>
        <pt x="186" y="449" on="0"/>
        <pt x="101" y="412" on="1"/>
        <pt x="73" y="477" on="1"/>
        <pt x="167" y="523" on="0"/>
        <pt x="367" y="523" on="0"/>
        <pt x="467" y="430" on="0"/>
        <pt x="467" y="329" on="1"/>
        <pt x="467" y="0" on="1"/>
        <pt x="394" y="0" on="1"/>
        <pt x="390" y="24" on="0"/>
        <pt x="381" y="60" on="1"/>
        <pt x="309" y="-12" on="0"/>
        <pt x="213" y="-12" on="1"/>
      </contour>
      <contour>
        <pt x="138" y="141" on="1"/>
        <pt x="138" y="62" on="0"/>
        <pt x="231" y="62" on="1"/>
        <pt x="271" y="62" on="0"/>
        <pt x="347" y="99" on="0"/>
        <pt x="373" y="131" on="1"/>
        <pt x="373" y="241" on="1"/>
        <pt x="303" y="241" on="1"/>
        <pt x="138" y="241" on="0"/>
      </contour>
      <contour>
        <pt x="88" y="599" on="1"/>
        <pt x="88" y="653" on="0"/>
        <pt x="149" y="718" on="0"/>
        <pt x="201" y="718" on="1"/>
        <pt x="249" y="718" on="0"/>
        <pt x="312" y="655" on="0"/>
        <pt x="338" y="655" on="1"/>
        <pt x="389" y="655" on="0"/>
        <pt x="389" y="709" on="1"/>
        <pt x="448" y="709" on="1"/>
        <pt x="448" y="655" on="0"/>
        <pt x="389" y="590" on="0"/>
        <pt x="340" y="590" on="1"/>
        <pt x="308" y="590" on="0"/>
        <pt x="260" y="622" on="0"/>
        <pt x="221" y="654" on="0"/>
        <pt x="176" y="654" on="0"/>
        <pt x="147" y="624" on="0"/>
        <pt x="147" y="599" on="1"/>
      </contour>
    </TTGlyph>
    <TTGlyph name="b" xMin="85" yMin="-8" xMax="551" yMax="759">
      <contour>
        <pt x="85" y="33" on="1"/>
        <pt x="85" y="759" on="1"/>
        <pt x="179" y="759" on="1"/>
        <pt x="179" y="458" on="1"/>
        <pt x="233" y="523" on="0"/>
        <pt x="432" y="523" on="0"/>
        <pt x="551" y="390" on="0"/>
        <pt x="551" y="137" on="0"/>
        <pt x="410" y="-8" on="0"/>
        <pt x="287" y="-8" on="1"/>
        <pt x="208" y="-8" on="0"/>
        <pt x="133" y="21" on="1"/>
      </contour>
      <contour>
        <pt x="455" y="354" on="0"/>
        <pt x="384" y="449" on="0"/>
        <pt x="267" y="449" on="0"/>
        <pt x="193" y="393" on="0"/>
        <pt x="179" y="343" on="1"/>
        <pt x="179" y="81" on="1"/>
        <pt x="230" y="66" on="0"/>
        <pt x="286" y="66" on="1"/>
        <pt x="365" y="66" on="0"/>
        <pt x="455" y="171" on="0"/>
      </contour>
    </TTGlyph>
    <TTGlyph name="backslash" xMin="-20" yMin="-193" xMax="445" yMax="803">
      <contour>
        <pt x="356" y="-193" on="1"/>
        <pt x="-20" y="803" on="1"/>
        <pt x="71" y="803" on="1"/>
        <pt x="445" y="-193" on="1"/>
      </contour>
    </TTGlyph>
    <TTGlyph name="bar" xMin="85" yMin="-193" xMax="169" yMax="774">
      <contour>
        <pt x="85" y="-193" on="1"/>
        <pt x="85" y="774" on="1"/>
        <pt x="169" y="774" on="1"/>
        <pt x="169" y="-193" on="1"/>
      </contour>
    </TTGlyph>
    <TTGlyph name="braceleft" xMin="40" yMin="-193" xMax="334" yMax="774">
      <contour>
        <pt x="121" y="-21" on="1"/>
        <pt x="121" y="115" on="1"/>
        <pt x="121" y="174" on="0"/>
        <pt x="76" y="264" on="0"/>
        <pt x="40" y="277" on="1"/>
        <pt x="40" y="322" on="1"/>
        <pt x="121" y="355" on="0"/>
        <pt x="121" y="477" on="1"/>
        <pt x="121" y="602" on="1"/>
        <pt x="121" y="692" on="0"/>
        <pt x="202" y="774" on="0"/>
        <pt x="292" y="774" on="1"/>
        <pt x="334" y="774" on="1"/>
        <pt x="334" y="708" on="1"/>
        <pt x="289" y="708" on="1"/>
        <pt x="245" y="708" on="0"/>
        <pt x="205" y="668" on="0"/>
        <pt x="205" y="623" on="1"/>
        <pt x="205" y="449" on="1"/>
        <pt x="205" y="369" on="0"/>
        <pt x="129" y="299" on="1"/>
        <pt x="129" y="292" on="1"/>
        <pt x="205" y="217" on="0"/>
        <pt x="205" y="145" on="1"/>
        <pt x="205" y="-40" on="1"/>
        <pt x="205" y="-86" on="0"/>
        <pt x="245" y="-127" on="0"/>
        <pt x="289" y="-127" on="1"/>
        <pt x="334" y="-127" on="1"/>
        <pt x="334" y="-193" on="1"/>
        <pt x="288" y="-193" on="1"/>
        <pt x="197" y="-193" on="0"/>
        <pt x="121" y="-115" on="0"/>
      </contour>
    </TTGlyph>
    <TTGlyph name="braceright" xMin="10" yMin="-193" xMax="304" yMax="774">
      <contour>
        <pt x="223" y="115" on="1"/>
        <pt x="223" y="-21" on="1"/>
        <pt x="223" y="-115" on="0"/>
        <pt x="147" y="-193" on="0"/>
        <pt x="56" y="-193" on="1"/>
        <pt x="10" y="-193" on="1"/>
        <pt x="10" y="-127" on="1"/>
        <pt x="55" y="-127" on="1"/>
        <pt x="99" y="-127" on="0"/>
        <pt x="139" y="-86" on="0"/>
        <pt x="139" y="-40" on="1"/>
        <pt x="139" y="145" on="1"/>
        <pt x="139" y="217" on="0"/>
        <pt x="215" y="292" on="1"/>
        <pt x="215" y="299" on="1"/>
        <pt x="139" y="369" on="0"/>
        <pt x="139" y="449" on="1"/>
        <pt x="139" y="623" on="1"/>
        <pt x="139" y="668" on="0"/>
        <pt x="99" y="708" on="0"/>
        <pt x="55" y="708" on="1"/>
        <pt x="10" y="708" on="1"/>
        <pt x="10" y="774" on="1"/>
        <pt x="52" y="774" on="1"/>
        <pt x="142" y="774" on="0"/>
        <pt x="223" y="692" on="0"/>
        <pt x="223" y="602" on="1"/>
        <pt x="223" y="477" on="1"/>
        <pt x="223" y="355" on="0"/>
        <pt x="304" y="322" on="1"/>
        <pt x="304" y="277" on="1"/>
        <pt x="268" y="264" on="0"/>
        <pt x="223" y="174" on="0"/>
      </contour>
    </TTGlyph>
    <TTGlyph name="bracketleft" xMin="85" yMin="-193" xMax="298" yMax="774">
      <contour>
        <pt x="85" y="-193" on="1"/>
        <pt x="85" y="774" on="1"/>
        <pt x="298" y="774" on="1"/>
        <pt x="298" y="702" on="1"/>
        <pt x="169" y="702" on="1"/>
        <pt x="169" y="-121" on="1"/>
        <pt x="298" y="-121" on="1"/>
        <pt x="298" y="-193" on="1"/>
      </contour>
    </TTGlyph>
    <TTGlyph name="bracketright" xMin="20" yMin="-193" xMax="233" yMax="774">
      <contour>
        <pt x="233" y="774" on="1"/>
        <pt x="233" y="-193" on="1"/>
        <pt x="20" y="-193" on="1"/>
        <pt x="20" y="-121" on="1"/>
        <pt x="149" y="-121" on="1"/>
        <pt x="149" y="702" on="1"/>
        <pt x="20" y="702" on="1"/>
        <pt x="20" y="774" on="1"/>
      </contour>
    </TTGlyph>
    <TTGlyph name="brokenbar" xMin="85" yMin="-193" xMax="169" yMax="774">
      <contour>
        <pt x="169" y="397" on="1"/>
        <pt x="85" y="397" on="1"/>
        <pt x="85" y="774" on="1"/>
        <pt x="169" y="774" on="1"/>
      </contour>
      <contour>
        <pt x="85" y="200" on="1"/>
        <pt x="169" y="200" on="1"/>
        <pt x="169" y="-193" on="1"/>
        <pt x="85" y="-193" on="1"/>
      </contour>
    </TTGlyph>
    <TTGlyph name="bullet" xMin="88" yMin="193" xMax="362" yMax="467">
      <contour>
        <pt x="282" y="193" on="0"/>
        <pt x="168" y="193" on="0"/>
        <pt x="88" y="273" on="0"/>
        <pt x="88" y="387" on="0"/>
        <pt x="168" y="467" on="0"/>
        <pt x="282" y="467" on="0"/>
        <pt x="362" y="387" on="0"/>
        <pt x="362" y="273" on="0"/>
      </contour>
    </TTGlyph>
    <TTGlyph name="c" xMin="46" yMin="-6" xMax="470" yMax="523">
      <contour>
        <pt x="46" y="134" on="0"/>
        <pt x="46" y="382" on="0"/>
        <pt x="170" y="523" on="0"/>
        <pt x="409" y="523" on="0"/>
        <pt x="470" y="438" on="1"/>
        <pt x="407" y="391" on="1"/>
        <pt x="360" y="449" on="0"/>
        <pt x="221" y="449" on="0"/>
        <pt x="142" y="352" on="0"/>
        <pt x="142" y="163" on="0"/>
        <pt x="223" y="66" on="0"/>
        <pt x="364" y="66" on="0"/>
        <pt x="434" y="101" on="1"/>
        <pt x="460" y="37" on="1"/>
        <pt x="386" y="-6" on="0"/>
        <pt x="291" y="-6" on="1"/>
        <pt x="170" y="-6" on="0"/>
      </contour>
    </TTGlyph>
    <TTGlyph name="caron" xMin="20" yMin="574" xMax="348" yMax="742">
      <contour>
        <pt x="184" y="650" on="1"/>
        <pt x="318" y="742" on="1"/>
        <pt x="348" y="701" on="1"/>
        <pt x="195" y="574" on="1"/>
        <pt x="173" y="574" on="1"/>
        <pt x="20" y="701" on="1"/>
        <pt x="47" y="742" on="1"/>
      </contour>
    </TTGlyph>
    <TTGlyph name="ccedilla" xMin="46" yMin="-219" xMax="470" yMax="523">
      <contour>
        <pt x="255" y="-91" on="1"/>
        <pt x="233" y="-91" on="1"/>
        <pt x="221" y="-71" on="1"/>
        <pt x="252" y="-4" on="1"/>
        <pt x="149" y="7" on="0"/>
        <pt x="46" y="145" on="0"/>
        <pt x="46" y="382" on="0"/>
        <pt x="170" y="523" on="0"/>
        <pt x="409" y="523" on="0"/>
        <pt x="470" y="438" on="1"/>
        <pt x="407" y="391" on="1"/>
        <pt x="360" y="449" on="0"/>
        <pt x="221" y="449" on="0"/>
        <pt x="142" y="352" on="0"/>
        <pt x="142" y="163" on="0"/>
        <pt x="223" y="66" on="0"/>
        <pt x="364" y="66" on="0"/>
        <pt x="434" y="101" on="1"/>
        <pt x="460" y="37" on="1"/>
        <pt x="388" y="-5" on="0"/>
        <pt x="294" y="-6" on="1"/>
        <pt x="280" y="-52" on="1"/>
        <pt x="322" y="-57" on="0"/>
        <pt x="370" y="-102" on="0"/>
        <pt x="370" y="-173" on="0"/>
        <pt x="315" y="-219" on="0"/>
        <pt x="269" y="-219" on="1"/>
        <pt x="233" y="-219" on="0"/>
        <pt x="207" y="-199" on="1"/>
        <pt x="198" y="-192" on="0"/>
        <pt x="185" y="-178" on="1"/>
        <pt x="211" y="-147" on="1"/>
        <pt x="236" y="-175" on="0"/>
        <pt x="261" y="-175" on="1"/>
        <pt x="310" y="-175" on="0"/>
        <pt x="310" y="-135" on="1"/>
        <pt x="310" y="-114" on="0"/>
        <pt x="281" y="-91" on="0"/>
      </contour>
    </TTGlyph>
    <TTGlyph name="cedilla" xMin="17" yMin="-219" xMax="202" yMax="0">
      <contour>
        <pt x="86" y="0" on="1"/>
        <pt x="128" y="0" on="1"/>
        <pt x="112" y="-52" on="1"/>
        <pt x="154" y="-57" on="0"/>
        <pt x="202" y="-102" on="0"/>
        <pt x="202" y="-173" on="0"/>
        <pt x="147" y="-219" on="0"/>
        <pt x="101" y="-219" on="1"/>
        <pt x="65" y="-219" on="0"/>
        <pt x="39" y="-199" on="1"/>
        <pt x="30" y="-192" on="0"/>
        <pt x="17" y="-178" on="1"/>
        <pt x="43" y="-147" on="1"/>
        <pt x="68" y="-175" on="0"/>
        <pt x="93" y="-175" on="1"/>
        <pt x="142" y="-175" on="0"/>
        <pt x="142" y="-135" on="1"/>
        <pt x="142" y="-114" on="0"/>
        <pt x="113" y="-91" on="0"/>
        <pt x="87" y="-91" on="1"/>
        <pt x="65" y="-91" on="1"/>
        <pt x="53" y="-71" on="1"/>
      </contour>
    </TTGlyph>
    <TTGlyph name="cent" xMin="53" yMin="0" xMax="447" yMax="707">
      <contour>
        <pt x="447" y="534" on="1"/>
        <pt x="407" y="481" on="1"/>
        <pt x="357" y="516" on="0"/>
        <pt x="222" y="516" on="0"/>
        <pt x="149" y="426" on="0"/>
        <pt x="149" y="259" on="0"/>
        <pt x="224" y="171" on="0"/>
        <pt x="359" y="171" on="0"/>
        <pt x="423" y="204" on="1"/>
        <pt x="447" y="137" on="1"/>
        <pt x="395" y="107" on="0"/>
        <pt x="324" y="99" on="1"/>
        <pt x="324" y="0" on="1"/>
        <pt x="240" y="0" on="1"/>
        <pt x="240" y="100" on="1"/>
        <pt x="149" y="113" on="0"/>
        <pt x="53" y="239" on="0"/>
        <pt x="53" y="448" on="0"/>
        <pt x="149" y="572" on="0"/>
        <pt x="240" y="586" on="1"/>
        <pt x="240" y="707" on="1"/>
        <pt x="324" y="707" on="1"/>
        <pt x="324" y="588" on="1"/>
        <pt x="402" y="579" on="0"/>
      </contour>
    </TTGlyph>
    <TTGlyph name="circumflex" xMin="20" yMin="574" xMax="348" yMax="742">
      <contour>
        <pt x="173" y="742" on="1"/>
        <pt x="195" y="742" on="1"/>
        <pt x="348" y="615" on="1"/>
        <pt x="318" y="574" on="1"/>
        <pt x="184" y="666" on="1"/>
        <pt x="47" y="574" on="1"/>
        <pt x="20" y="615" on="1"/>
      </contour>
    </TTGlyph>
    <TTGlyph name="colon" xMin="75" yMin="17" xMax="175" yMax="461">
      <contour>
        <pt x="75" y="17" on="1"/>
        <pt x="75" y="117" on="1"/>
        <pt x="175" y="117" on="1"/>
        <pt x="175" y="17" on="1"/>
      </contour>
      <contour>
        <pt x="75" y="361" on="1"/>
        <pt x="75" y="461" on="1"/>
        <pt x="175" y="461" on="1"/>
        <pt x="175" y="361" on="1"/>
      </contour>
    </TTGlyph>
    <TTGlyph name="comma" xMin="65" yMin="-118" xMax="165" yMax="100">
      <contour>
        <pt x="65" y="0" on="1"/>
        <pt x="65" y="100" on="1"/>
        <pt x="165" y="100" on="1"/>
        <pt x="165" y="20" on="1"/>
        <pt x="146" y="-118" on="1"/>
        <pt x="110" y="-118" on="1"/>
        <pt x="110" y="0" on="1"/>
      </contour>
    </TTGlyph>
    <TTGlyph name="commaaccent" xMin="87" yMin="-260" xMax="187" yMax="-42">
      <contour>
        <pt x="87" y="-42" on="1"/>
        <pt x="187" y="-42" on="1"/>
        <pt x="187" y="-122" on="1"/>
        <pt x="168" y="-260" on="1"/>
        <pt x="132" y="-260" on="1"/>
        <pt x="132" y="-142" on="1"/>
        <pt x="87" y="-142" on="1"/>
      </contour>
    </TTGlyph>
    <TTGlyph name="copyright" xMin="35" yMin="66" xMax="576" yMax="605">
      <contour>
        <pt x="192" y="66" on="0"/>
        <pt x="35" y="223" on="0"/>
        <pt x="35" y="448" on="0"/>
        <pt x="193" y="605" on="0"/>
        <pt x="419" y="605" on="0"/>
        <pt x="576" y="450" on="0"/>
        <pt x="576" y="225" on="0"/>
        <pt x="418" y="66" on="0"/>
      </contour>
      <contour>
        <pt x="220" y="547" on="0"/>
        <pt x="99" y="424" on="0"/>
        <pt x="99" y="251" on="0"/>
        <pt x="220" y="126" on="0"/>
        <pt x="392" y="126" on="0"/>
        <pt x="513" y="249" on="0"/>
        <pt x="513" y="423" on="0"/>
        <pt x="392" y="547" on="0"/>
      </contour>
      <contour>
        <pt x="177" y="273" on="0"/>
        <pt x="177" y="401" on="0"/>
        <pt x="251" y="472" on="0"/>
        <pt x="372" y="472" on="0"/>
        <pt x="407" y="427" on="1"/>
        <pt x="371" y="391" on="1"/>
        <pt x="347" y="421" on="0"/>
        <pt x="279" y="421" on="0"/>
        <pt x="241" y="378" on="0"/>
        <pt x="241" y="337" on="1"/>
        <pt x="241" y="252" on="0"/>
        <pt x="316" y="252" on="1"/>
        <pt x="348" y="252" on="0"/>
        <pt x="384" y="271" on="1"/>
        <pt x="400" y="224" on="1"/>
        <pt x="364" y="201" on="0"/>
        <pt x="251" y="201" on="0"/>
      </contour>
    </TTGlyph>
    <TTGlyph name="currency" xMin="88" yMin="39" xMax="651" yMax="603">
      <contour>
        <pt x="88" y="102" on="1"/>
        <pt x="215" y="229" on="1"/>
        <pt x="189" y="271" on="0"/>
        <pt x="189" y="371" on="0"/>
        <pt x="217" y="413" on="1"/>
        <pt x="88" y="542" on="1"/>
        <pt x="150" y="603" on="1"/>
        <pt x="278" y="474" on="1"/>
        <pt x="322" y="502" on="0"/>
        <pt x="418" y="502" on="0"/>
        <pt x="462" y="475" on="1"/>
        <pt x="590" y="603" on="1"/>
        <pt x="651" y="544" on="1"/>
        <pt x="523" y="414" on="1"/>
        <pt x="551" y="365" on="0"/>
        <pt x="551" y="274" on="0"/>
        <pt x="523" y="229" on="1"/>
        <pt x="651" y="101" on="1"/>
        <pt x="591" y="41" on="1"/>
        <pt x="462" y="169" on="1"/>
        <pt x="417" y="141" on="0"/>
        <pt x="325" y="141" on="0"/>
        <pt x="276" y="169" on="1"/>
        <pt x="148" y="39" on="1"/>
      </contour>
      <contour>
        <pt x="330" y="425" on="0"/>
        <pt x="272" y="363" on="0"/>
        <pt x="272" y="280" on="0"/>
        <pt x="329" y="218" on="0"/>
        <pt x="409" y="218" on="0"/>
        <pt x="468" y="280" on="0"/>
        <pt x="468" y="362" on="0"/>
        <pt x="408" y="425" on="0"/>
      </contour>
    </TTGlyph>
    <TTGlyph name="d" xMin="46" yMin="-8" xMax="513" yMax="759">
      <contour>
        <pt x="165" y="-8" on="0"/>
        <pt x="46" y="125" on="0"/>
        <pt x="46" y="378" on="0"/>
        <pt x="187" y="523" on="0"/>
        <pt x="310" y="523" on="1"/>
        <pt x="363" y="523" on="0"/>
        <pt x="419" y="509" on="1"/>
        <pt x="419" y="759" on="1"/>
        <pt x="513" y="759" on="1"/>
        <pt x="513" y="1" on="1"/>
        <pt x="437" y="1" on="1"/>
        <pt x="424" y="64" on="1"/>
        <pt x="368" y="-8" on="0"/>
      </contour>
      <contour>
        <pt x="142" y="161" on="0"/>
        <pt x="213" y="66" on="0"/>
        <pt x="330" y="66" on="0"/>
        <pt x="405" y="124" on="0"/>
        <pt x="419" y="175" on="1"/>
        <pt x="419" y="434" on="1"/>
        <pt x="368" y="449" on="0"/>
        <pt x="311" y="449" on="1"/>
        <pt x="232" y="449" on="0"/>
        <pt x="142" y="344" on="0"/>
      </contour>
    </TTGlyph>
    <TTGlyph name="degree" xMin="88" yMin="378" xMax="418" yMax="708">
      <contour>
        <pt x="323" y="378" on="0"/>
        <pt x="185" y="378" on="0"/>
        <pt x="88" y="475" on="0"/>
        <pt x="88" y="613" on="0"/>
        <pt x="185" y="708" on="0"/>
        <pt x="323" y="708" on="0"/>
        <pt x="418" y="613" on="0"/>
        <pt x="418" y="475" on="0"/>
      </contour>
      <contour>
        <pt x="221" y="457" on="0"/>
        <pt x="287" y="457" on="0"/>
        <pt x="334" y="508" on="0"/>
        <pt x="334" y="580" on="0"/>
        <pt x="287" y="630" on="0"/>
        <pt x="221" y="630" on="0"/>
        <pt x="173" y="580" on="0"/>
        <pt x="173" y="508" on="0"/>
      </contour>
    </TTGlyph>
    <TTGlyph name="dieresis" xMin="20" yMin="623" xMax="294" yMax="716">
      <contour>
        <pt x="20" y="716" on="1"/>
        <pt x="113" y="716" on="1"/>
        <pt x="113" y="623" on="1"/>
        <pt x="20" y="623" on="1"/>
      </contour>
      <contour>
        <pt x="202" y="716" on="1"/>
        <pt x="294" y="716" on="1"/>
        <pt x="294" y="623" on="1"/>
        <pt x="202" y="623" on="1"/>
      </contour>
    </TTGlyph>
    <TTGlyph name="divide" xMin="86" yMin="86" xMax="553" yMax="532">
      <contour>
        <pt x="86" y="271" on="1"/>
        <pt x="86" y="343" on="1"/>
        <pt x="553" y="343" on="1"/>
        <pt x="553" y="271" on="1"/>
      </contour>
      <contour>
        <pt x="274" y="86" on="1"/>
        <pt x="274" y="170" on="1"/>
        <pt x="362" y="170" on="1"/>
        <pt x="362" y="86" on="1"/>
      </contour>
      <contour>
        <pt x="274" y="448" on="1"/>
        <pt x="274" y="532" on="1"/>
        <pt x="362" y="532" on="1"/>
        <pt x="362" y="448" on="1"/>
      </contour>
    </TTGlyph>
    <TTGlyph name="dollar" xMin="60" yMin="-84" xMax="479" yMax="774">
      <contour>
        <pt x="60" y="71" on="1"/>
        <pt x="89" y="152" on="1"/>
        <pt x="108" y="144" on="1"/>
        <pt x="191" y="109" on="0"/>
        <pt x="313" y="109" on="0"/>
        <pt x="380" y="160" on="0"/>
        <pt x="380" y="206" on="1"/>
        <pt x="380" y="259" on="0"/>
        <pt x="324" y="284" on="1"/>
        <pt x="296" y="297" on="0"/>
        <pt x="208" y="321" on="0"/>
        <pt x="164" y="338" on="0"/>
        <pt x="134" y="358" on="1"/>
        <pt x="75" y="395" on="0"/>
        <pt x="75" y="483" on="1"/>
        <pt x="75" y="550" on="0"/>
        <pt x="157" y="643" on="0"/>
        <pt x="239" y="656" on="1"/>
        <pt x="239" y="774" on="1"/>
        <pt x="323" y="774" on="1"/>
        <pt x="323" y="659" on="1"/>
        <pt x="381" y="655" on="0"/>
        <pt x="460" y="624" on="1"/>
        <pt x="436" y="545" on="1"/>
        <pt x="360" y="576" on="0"/>
        <pt x="239" y="576" on="0"/>
        <pt x="175" y="531" on="0"/>
        <pt x="175" y="493" on="1"/>
        <pt x="175" y="443" on="0"/>
        <pt x="230" y="418" on="1"/>
        <pt x="259" y="405" on="0"/>
        <pt x="335" y="382" on="0"/>
        <pt x="371" y="369" on="0"/>
        <pt x="427" y="339" on="0"/>
        <pt x="442" y="322" on="1"/>
        <pt x="479" y="276" on="0"/>
        <pt x="479" y="134" on="0"/>
        <pt x="396" y="45" on="0"/>
        <pt x="323" y="31" on="1"/>
        <pt x="323" y="-84" on="1"/>
        <pt x="239" y="-84" on="1"/>
        <pt x="239" y="26" on="1"/>
        <pt x="163" y="30" on="0"/>
        <pt x="73" y="66" on="1"/>
      </contour>
    </TTGlyph>
    <TTGlyph name="dotaccentcmb" xMin="20" yMin="622" xMax="112" yMax="708">
      <contour>
        <pt x="20" y="708" on="1"/>
        <pt x="112" y="708" on="1"/>
        <pt x="112" y="622" on="1"/>
        <pt x="20" y="622" on="1"/>
      </contour>
    </TTGlyph>
    <TTGlyph name="dotaccentcmb.cap" xMin="86" yMin="621" xMax="178" yMax="708">
      <contour>
        <pt x="86" y="621" on="1"/>
        <pt x="86" y="708" on="1"/>
        <pt x="178" y="708" on="1"/>
        <pt x="178" y="621" on="1"/>
      </contour>
    </TTGlyph>
    <TTGlyph name="dotlessi" xMin="86" yMin="0" xMax="178" yMax="514">
      <contour>
        <pt x="86" y="0" on="1"/>
        <pt x="86" y="514" on="1"/>
        <pt x="178" y="514" on="1"/>
        <pt x="178" y="0" on="1"/>
      </contour>
    </TTGlyph>
    <TTGlyph name="dotlessj" xMin="-12" yMin="-187" xMax="181" yMax="514">
      <contour>
        <pt x="89" y="85" on="1"/>
        <pt x="89" y="514" on="1"/>
        <pt x="181" y="514" on="1"/>
        <pt x="181" y="85" on="1"/>
        <pt x="181" y="14" on="0"/>
        <pt x="114" y="-114" on="0"/>
        <pt x="38" y="-187" on="1"/>
        <pt x="-12" y="-145" on="1"/>
        <pt x="89" y="-16" on="0"/>
      </contour>
    </TTGlyph>
    <TTGlyph name="e" xMin="46" yMin="-8" xMax="501" yMax="523">
      <contour>
        <pt x="46" y="132" on="0"/>
        <pt x="46" y="384" on="0"/>
        <pt x="172" y="523" on="0"/>
        <pt x="287" y="523" on="1"/>
        <pt x="501" y="523" on="0"/>
        <pt x="501" y="261" on="1"/>
        <pt x="501" y="245" on="1"/>
        <pt x="142" y="245" on="1"/>
        <pt x="144" y="158" on="0"/>
        <pt x="222" y="66" on="0"/>
        <pt x="367" y="66" on="0"/>
        <pt x="454" y="105" on="1"/>
        <pt x="481" y="41" on="1"/>
        <pt x="386" y="-8" on="0"/>
        <pt x="290" y="-8" on="1"/>
        <pt x="174" y="-8" on="0"/>
      </contour>
      <contour>
        <pt x="287" y="449" on="1"/>
        <pt x="168" y="449" on="0"/>
        <pt x="146" y="315" on="1"/>
        <pt x="402" y="315" on="1"/>
        <pt x="395" y="384" on="0"/>
        <pt x="339" y="449" on="0"/>
      </contour>
    </TTGlyph>
    <TTGlyph name="eacute" xMin="46" yMin="-8" xMax="501" yMax="765">
      <contour>
        <pt x="46" y="132" on="0"/>
        <pt x="46" y="384" on="0"/>
        <pt x="172" y="523" on="0"/>
        <pt x="287" y="523" on="1"/>
        <pt x="501" y="523" on="0"/>
        <pt x="501" y="261" on="1"/>
        <pt x="501" y="245" on="1"/>
        <pt x="142" y="245" on="1"/>
        <pt x="144" y="158" on="0"/>
        <pt x="222" y="66" on="0"/>
        <pt x="367" y="66" on="0"/>
        <pt x="454" y="105" on="1"/>
        <pt x="481" y="41" on="1"/>
        <pt x="386" y="-8" on="0"/>
        <pt x="290" y="-8" on="1"/>
        <pt x="174" y="-8" on="0"/>
      </contour>
      <contour>
        <pt x="287" y="449" on="1"/>
        <pt x="168" y="449" on="0"/>
        <pt x="146" y="315" on="1"/>
        <pt x="402" y="315" on="1"/>
        <pt x="395" y="384" on="0"/>
        <pt x="339" y="449" on="0"/>
      </contour>
      <contour>
        <pt x="189" y="601" on="1"/>
        <pt x="322" y="765" on="1"/>
        <pt x="382" y="703" on="1"/>
        <pt x="226" y="567" on="1"/>
      </contour>
    </TTGlyph>
    <TTGlyph name="ecircumflex" xMin="46" yMin="-8" xMax="501" yMax="742">
      <contour>
        <pt x="46" y="132" on="0"/>
        <pt x="46" y="384" on="0"/>
        <pt x="172" y="523" on="0"/>
        <pt x="287" y="523" on="1"/>
        <pt x="501" y="523" on="0"/>
        <pt x="501" y="261" on="1"/>
        <pt x="501" y="245" on="1"/>
        <pt x="142" y="245" on="1"/>
        <pt x="144" y="158" on="0"/>
        <pt x="222" y="66" on="0"/>
        <pt x="367" y="66" on="0"/>
        <pt x="454" y="105" on="1"/>
        <pt x="481" y="41" on="1"/>
        <pt x="386" y="-8" on="0"/>
        <pt x="290" y="-8" on="1"/>
        <pt x="174" y="-8" on="0"/>
      </contour>
      <contour>
        <pt x="287" y="449" on="1"/>
        <pt x="168" y="449" on="0"/>
        <pt x="146" y="315" on="1"/>
        <pt x="402" y="315" on="1"/>
        <pt x="395" y="384" on="0"/>
        <pt x="339" y="449" on="0"/>
      </contour>
      <contour>
        <pt x="273" y="742" on="1"/>
        <pt x="295" y="742" on="1"/>
        <pt x="448" y="615" on="1"/>
        <pt x="418" y="574" on="1"/>
        <pt x="284" y="666" on="1"/>
        <pt x="147" y="574" on="1"/>
        <pt x="120" y="615" on="1"/>
      </contour>
    </TTGlyph>
    <TTGlyph name="edieresis" xMin="46" yMin="-8" xMax="501" yMax="716">
      <contour>
        <pt x="46" y="132" on="0"/>
        <pt x="46" y="384" on="0"/>
        <pt x="172" y="523" on="0"/>
        <pt x="287" y="523" on="1"/>
        <pt x="501" y="523" on="0"/>
        <pt x="501" y="261" on="1"/>
        <pt x="501" y="245" on="1"/>
        <pt x="142" y="245" on="1"/>
        <pt x="144" y="158" on="0"/>
        <pt x="222" y="66" on="0"/>
        <pt x="367" y="66" on="0"/>
        <pt x="454" y="105" on="1"/>
        <pt x="481" y="41" on="1"/>
        <pt x="386" y="-8" on="0"/>
        <pt x="290" y="-8" on="1"/>
        <pt x="174" y="-8" on="0"/>
      </contour>
      <contour>
        <pt x="287" y="449" on="1"/>
        <pt x="168" y="449" on="0"/>
        <pt x="146" y="315" on="1"/>
        <pt x="402" y="315" on="1"/>
        <pt x="395" y="384" on="0"/>
        <pt x="339" y="449" on="0"/>
      </contour>
      <contour>
        <pt x="147" y="716" on="1"/>
        <pt x="240" y="716" on="1"/>
        <pt x="240" y="623" on="1"/>
        <pt x="147" y="623" on="1"/>
      </contour>
      <contour>
        <pt x="329" y="716" on="1"/>
        <pt x="421" y="716" on="1"/>
        <pt x="421" y="623" on="1"/>
        <pt x="329" y="623" on="1"/>
      </contour>
    </TTGlyph>
    <TTGlyph name="egrave" xMin="46" yMin="-8" xMax="501" yMax="765">
      <contour>
        <pt x="46" y="132" on="0"/>
        <pt x="46" y="384" on="0"/>
        <pt x="172" y="523" on="0"/>
        <pt x="287" y="523" on="1"/>
        <pt x="501" y="523" on="0"/>
        <pt x="501" y="261" on="1"/>
        <pt x="501" y="245" on="1"/>
        <pt x="142" y="245" on="1"/>
        <pt x="144" y="158" on="0"/>
        <pt x="222" y="66" on="0"/>
        <pt x="367" y="66" on="0"/>
        <pt x="454" y="105" on="1"/>
        <pt x="481" y="41" on="1"/>
        <pt x="386" y="-8" on="0"/>
        <pt x="290" y="-8" on="1"/>
        <pt x="174" y="-8" on="0"/>
      </contour>
      <contour>
        <pt x="287" y="449" on="1"/>
        <pt x="168" y="449" on="0"/>
        <pt x="146" y="315" on="1"/>
        <pt x="402" y="315" on="1"/>
        <pt x="395" y="384" on="0"/>
        <pt x="339" y="449" on="0"/>
      </contour>
      <contour>
        <pt x="163" y="703" on="1"/>
        <pt x="223" y="765" on="1"/>
        <pt x="356" y="601" on="1"/>
        <pt x="319" y="567" on="1"/>
      </contour>
    </TTGlyph>
    <TTGlyph name="eight" xMin="62" yMin="-10" xMax="562" yMax="716">
      <contour>
        <pt x="62" y="194" on="1"/>
        <pt x="62" y="308" on="0"/>
        <pt x="185" y="372" on="1"/>
        <pt x="88" y="426" on="0"/>
        <pt x="88" y="535" on="1"/>
        <pt x="88" y="618" on="0"/>
        <pt x="209" y="716" on="0"/>
        <pt x="415" y="716" on="0"/>
        <pt x="536" y="618" on="0"/>
        <pt x="536" y="535" on="1"/>
        <pt x="536" y="439" on="0"/>
        <pt x="423" y="374" on="1"/>
        <pt x="488" y="346" on="0"/>
        <pt x="562" y="264" on="0"/>
        <pt x="562" y="194" on="1"/>
        <pt x="562" y="103" on="0"/>
        <pt x="426" y="-10" on="0"/>
        <pt x="198" y="-10" on="0"/>
        <pt x="62" y="99" on="0"/>
      </contour>
      <contour>
        <pt x="395" y="291" on="1"/>
        <pt x="363" y="306" on="0"/>
        <pt x="270" y="336" on="0"/>
        <pt x="256" y="341" on="1"/>
        <pt x="162" y="283" on="0"/>
        <pt x="162" y="195" on="1"/>
        <pt x="162" y="136" on="0"/>
        <pt x="246" y="65" on="0"/>
        <pt x="382" y="65" on="0"/>
        <pt x="462" y="136" on="0"/>
        <pt x="462" y="259" on="0"/>
      </contour>
      <contour>
        <pt x="304" y="418" on="1"/>
        <pt x="319" y="412" on="0"/>
        <pt x="356" y="399" on="1"/>
        <pt x="399" y="430" on="0"/>
        <pt x="436" y="494" on="0"/>
        <pt x="436" y="585" on="0"/>
        <pt x="371" y="641" on="0"/>
        <pt x="253" y="641" on="0"/>
        <pt x="188" y="585" on="0"/>
        <pt x="188" y="493" on="0"/>
        <pt x="244" y="440" on="0"/>
      </contour>
    </TTGlyph>
    <TTGlyph name="emdash" xMin="0" yMin="279" xMax="750" yMax="359">
      <contour>
        <pt x="0" y="279" on="1"/>
        <pt x="0" y="359" on="1"/>
        <pt x="750" y="359" on="1"/>
        <pt x="750" y="279" on="1"/>
      </contour>
    </TTGlyph>
    <TTGlyph name="endash" xMin="0" yMin="279" xMax="500" yMax="359">
      <contour>
        <pt x="0" y="279" on="1"/>
        <pt x="0" y="359" on="1"/>
        <pt x="500" y="359" on="1"/>
        <pt x="500" y="279" on="1"/>
      </contour>
    </TTGlyph>
    <TTGlyph name="equal" xMin="91" yMin="149" xMax="549" yMax="435">
      <contour>
        <pt x="91" y="363" on="1"/>
        <pt x="91" y="435" on="1"/>
        <pt x="549" y="435" on="1"/>
        <pt x="549" y="363" on="1"/>
      </contour>
      <contour>
        <pt x="91" y="149" on="1"/>
        <pt x="91" y="221" on="1"/>
        <pt x="549" y="221" on="1"/>
        <pt x="549" y="149" on="1"/>
      </contour>
    </TTGlyph>
    <TTGlyph name="eth" xMin="28" yMin="-8" xMax="519" yMax="735">
      <contour>
        <pt x="268" y="500" on="1"/>
        <pt x="214" y="534" on="1"/>
        <pt x="270" y="614" on="1"/>
        <pt x="223" y="634" on="0"/>
        <pt x="162" y="636" on="1"/>
        <pt x="173" y="716" on="1"/>
        <pt x="255" y="713" on="0"/>
        <pt x="320" y="685" on="1"/>
        <pt x="355" y="735" on="1"/>
        <pt x="409" y="701" on="1"/>
        <pt x="376" y="654" on="1"/>
        <pt x="519" y="553" on="0"/>
        <pt x="519" y="333" on="1"/>
        <pt x="519" y="-8" on="0"/>
        <pt x="266" y="-8" on="1"/>
        <pt x="161" y="-8" on="0"/>
        <pt x="28" y="121" on="0"/>
        <pt x="28" y="320" on="0"/>
        <pt x="156" y="442" on="0"/>
        <pt x="355" y="442" on="0"/>
        <pt x="416" y="383" on="1"/>
        <pt x="405" y="513" on="0"/>
        <pt x="325" y="581" on="1"/>
      </contour>
      <contour>
        <pt x="265" y="74" on="1"/>
        <pt x="340" y="74" on="0"/>
        <pt x="414" y="181" on="0"/>
        <pt x="418" y="298" on="1"/>
        <pt x="388" y="330" on="0"/>
        <pt x="324" y="362" on="0"/>
        <pt x="207" y="362" on="0"/>
        <pt x="128" y="287" on="0"/>
        <pt x="128" y="159" on="0"/>
        <pt x="207" y="74" on="0"/>
      </contour>
    </TTGlyph>
    <TTGlyph name="exclam" xMin="86" yMin="0" xMax="182" yMax="720">
      <contour>
        <pt x="98" y="184" on="1"/>
        <pt x="86" y="720" on="1"/>
        <pt x="182" y="720" on="1"/>
        <pt x="169" y="184" on="1"/>
      </contour>
      <contour>
        <pt x="88" y="0" on="1"/>
        <pt x="88" y="92" on="1"/>
        <pt x="181" y="92" on="1"/>
        <pt x="181" y="0" on="1"/>
      </contour>
    </TTGlyph>
    <TTGlyph name="exclamdown" xMin="86" yMin="-244" xMax="182" yMax="476">
      <contour>
        <pt x="86" y="-244" on="1"/>
        <pt x="98" y="292" on="1"/>
        <pt x="169" y="292" on="1"/>
        <pt x="182" y="-244" on="1"/>
      </contour>
      <contour>
        <pt x="88" y="384" on="1"/>
        <pt x="88" y="476" on="1"/>
        <pt x="181" y="476" on="1"/>
        <pt x="181" y="384" on="1"/>
      </contour>
    </TTGlyph>
    <TTGlyph name="f" xMin="26" yMin="-156" xMax="403" yMax="760">
      <contour>
        <pt x="116" y="-156" on="1"/>
        <pt x="116" y="442" on="1"/>
        <pt x="26" y="442" on="1"/>
        <pt x="26" y="514" on="1"/>
        <pt x="116" y="514" on="1"/>
        <pt x="116" y="590" on="1"/>
        <pt x="116" y="678" on="0"/>
        <pt x="208" y="760" on="0"/>
        <pt x="339" y="760" on="0"/>
        <pt x="403" y="733" on="1"/>
        <pt x="375" y="667" on="1"/>
        <pt x="329" y="685" on="0"/>
        <pt x="252" y="685" on="0"/>
        <pt x="210" y="639" on="0"/>
        <pt x="210" y="597" on="1"/>
        <pt x="210" y="514" on="1"/>
        <pt x="368" y="514" on="1"/>
        <pt x="368" y="442" on="1"/>
        <pt x="210" y="442" on="1"/>
        <pt x="210" y="-156" on="1"/>
      </contour>
    </TTGlyph>
    <TTGlyph name="five" xMin="46" yMin="-8" xMax="525" yMax="708">
      <contour>
        <pt x="138" y="341" on="1"/>
        <pt x="83" y="367" on="1"/>
        <pt x="117" y="708" on="1"/>
        <pt x="481" y="708" on="1"/>
        <pt x="471" y="628" on="1"/>
        <pt x="199" y="628" on="1"/>
        <pt x="178" y="418" on="1"/>
        <pt x="241" y="443" on="0"/>
        <pt x="303" y="443" on="1"/>
        <pt x="399" y="443" on="0"/>
        <pt x="525" y="325" on="0"/>
        <pt x="525" y="115" on="0"/>
        <pt x="375" y="-8" on="0"/>
        <pt x="272" y="-8" on="1"/>
        <pt x="207" y="-8" on="0"/>
        <pt x="87" y="40" on="0"/>
        <pt x="46" y="86" on="1"/>
        <pt x="106" y="148" on="1"/>
        <pt x="173" y="73" on="0"/>
        <pt x="275" y="73" on="1"/>
        <pt x="338" y="73" on="0"/>
        <pt x="425" y="151" on="0"/>
        <pt x="425" y="297" on="0"/>
        <pt x="338" y="368" on="0"/>
        <pt x="207" y="368" on="0"/>
      </contour>
    </TTGlyph>
    <TTGlyph name="foundryicon" xMin="0" yMin="0" xMax="709" yMax="709">
      <contour>
        <pt x="279" y="474" on="1"/>
        <pt x="220" y="440" on="1"/>
        <pt x="214" y="436" on="0"/>
        <pt x="202" y="436" on="0"/>
        <pt x="202" y="446" on="1"/>
        <pt x="202" y="588" on="1"/>
        <pt x="112" y="588" on="1"/>
        <pt x="112" y="169" on="1"/>
        <pt x="202" y="169" on="1"/>
        <pt x="202" y="388" on="1"/>
        <pt x="202" y="403" on="0"/>
        <pt x="231" y="403" on="1"/>
        <pt x="283" y="403" on="0"/>
        <pt x="283" y="335" on="1"/>
        <pt x="283" y="169" on="1"/>
        <pt x="373" y="169" on="1"/>
        <pt x="373" y="386" on="1"/>
        <pt x="373" y="424" on="0"/>
        <pt x="320" y="474" on="0"/>
      </contour>
      <contour>
        <pt x="409" y="445" on="1"/>
        <pt x="409" y="423" on="1"/>
        <pt x="440" y="423" on="1"/>
        <pt x="453" y="423" on="0"/>
        <pt x="453" y="411" on="1"/>
        <pt x="453" y="251" on="1"/>
        <pt x="453" y="213" on="0"/>
        <pt x="507" y="162" on="0"/>
        <pt x="547" y="162" on="1"/>
        <pt x="624" y="207" on="1"/>
        <pt x="624" y="237" on="1"/>
        <pt x="606" y="232" on="0"/>
        <pt x="592" y="232" on="1"/>
        <pt x="543" y="232" on="0"/>
        <pt x="543" y="302" on="1"/>
        <pt x="543" y="411" on="1"/>
        <pt x="543" y="423" on="0"/>
        <pt x="555" y="423" on="1"/>
        <pt x="625" y="423" on="1"/>
        <pt x="625" y="467" on="1"/>
        <pt x="555" y="467" on="1"/>
        <pt x="543" y="467" on="0"/>
        <pt x="543" y="479" on="1"/>
        <pt x="543" y="513" on="1"/>
        <pt x="517" y="513" on="1"/>
      </contour>
      <contour>
        <pt x="97" y="0" on="1"/>
        <pt x="0" y="0" on="0"/>
        <pt x="0" y="97" on="1"/>
        <pt x="0" y="612" on="1"/>
        <pt x="0" y="709" on="0"/>
        <pt x="97" y="709" on="1"/>
        <pt x="612" y="709" on="1"/>
        <pt x="709" y="709" on="0"/>
        <pt x="709" y="612" on="1"/>
        <pt x="709" y="97" on="1"/>
        <pt x="709" y="0" on="0"/>
        <pt x="612" y="0" on="1"/>
      </contour>
    </TTGlyph>
    <TTGlyph name="four" xMin="30" yMin="0" xMax="575" yMax="708">
      <contour>
        <pt x="30" y="163" on="1"/>
        <pt x="30" y="226" on="1"/>
        <pt x="340" y="708" on="1"/>
        <pt x="490" y="708" on="1"/>
        <pt x="490" y="243" on="1"/>
        <pt x="575" y="243" on="1"/>
        <pt x="575" y="163" on="1"/>
        <pt x="490" y="163" on="1"/>
        <pt x="490" y="0" on="1"/>
        <pt x="396" y="0" on="1"/>
        <pt x="396" y="163" on="1"/>
      </contour>
      <contour>
        <pt x="146" y="243" on="1"/>
        <pt x="396" y="243" on="1"/>
        <pt x="396" y="644" on="1"/>
      </contour>
    </TTGlyph>
    <TTGlyph name="g" xMin="46" yMin="-251" xMax="513" yMax="523">
      <contour>
        <pt x="165" y="-8" on="0"/>
        <pt x="46" y="125" on="0"/>
        <pt x="46" y="378" on="0"/>
        <pt x="187" y="523" on="0"/>
        <pt x="310" y="523" on="1"/>
        <pt x="375" y="523" on="0"/>
        <pt x="435" y="504" on="1"/>
        <pt x="438" y="515" on="1"/>
        <pt x="513" y="515" on="1"/>
        <pt x="513" y="-30" on="1"/>
        <pt x="513" y="-251" on="0"/>
        <pt x="279" y="-251" on="1"/>
        <pt x="166" y="-251" on="0"/>
        <pt x="65" y="-199" on="1"/>
        <pt x="97" y="-130" on="1"/>
        <pt x="151" y="-157" on="0"/>
        <pt x="229" y="-177" on="0"/>
        <pt x="279" y="-177" on="1"/>
        <pt x="354" y="-177" on="0"/>
        <pt x="419" y="-110" on="0"/>
        <pt x="419" y="-32" on="1"/>
        <pt x="419" y="58" on="1"/>
        <pt x="364" y="-8" on="0"/>
      </contour>
      <contour>
        <pt x="142" y="161" on="0"/>
        <pt x="213" y="66" on="0"/>
        <pt x="330" y="66" on="0"/>
        <pt x="405" y="124" on="0"/>
        <pt x="419" y="175" on="1"/>
        <pt x="419" y="434" on="1"/>
        <pt x="368" y="449" on="0"/>
        <pt x="311" y="449" on="1"/>
        <pt x="232" y="449" on="0"/>
        <pt x="142" y="344" on="0"/>
      </contour>
    </TTGlyph>
    <TTGlyph name="germandbls" xMin="85" yMin="0" xMax="548" yMax="730">
      <contour>
        <pt x="85" y="0" on="1"/>
        <pt x="85" y="553" on="1"/>
        <pt x="85" y="639" on="0"/>
        <pt x="191" y="730" on="0"/>
        <pt x="373" y="730" on="0"/>
        <pt x="475" y="645" on="0"/>
        <pt x="475" y="575" on="1"/>
        <pt x="475" y="539" on="0"/>
        <pt x="442" y="477" on="0"/>
        <pt x="422" y="460" on="1"/>
        <pt x="370" y="412" on="0"/>
        <pt x="370" y="382" on="1"/>
        <pt x="370" y="351" on="0"/>
        <pt x="459" y="308" on="1"/>
        <pt x="492" y="292" on="0"/>
        <pt x="548" y="219" on="0"/>
        <pt x="548" y="168" on="1"/>
        <pt x="548" y="88" on="0"/>
        <pt x="430" y="0" on="0"/>
        <pt x="327" y="0" on="1"/>
        <pt x="250" y="0" on="1"/>
        <pt x="250" y="80" on="1"/>
        <pt x="336" y="80" on="1"/>
        <pt x="390" y="80" on="0"/>
        <pt x="450" y="125" on="0"/>
        <pt x="450" y="199" on="0"/>
        <pt x="413" y="238" on="0"/>
        <pt x="360" y="262" on="0"/>
        <pt x="307" y="288" on="0"/>
        <pt x="270" y="339" on="0"/>
        <pt x="270" y="408" on="0"/>
        <pt x="303" y="462" on="0"/>
        <pt x="344" y="495" on="0"/>
        <pt x="377" y="543" on="0"/>
        <pt x="377" y="569" on="1"/>
        <pt x="377" y="655" on="0"/>
        <pt x="285" y="655" on="1"/>
        <pt x="235" y="655" on="0"/>
        <pt x="179" y="608" on="0"/>
        <pt x="179" y="567" on="1"/>
        <pt x="179" y="0" on="1"/>
      </contour>
    </TTGlyph>
    <TTGlyph name="grave" xMin="20" yMin="567" xMax="213" yMax="765">
      <contour>
        <pt x="20" y="703" on="1"/>
        <pt x="80" y="765" on="1"/>
        <pt x="213" y="601" on="1"/>
        <pt x="176" y="567" on="1"/>
      </contour>
    </TTGlyph>
    <TTGlyph name="greater" xMin="86" yMin="59" xMax="580" yMax="546">
      <contour>
        <pt x="580" y="330" on="1"/>
        <pt x="580" y="275" on="1"/>
        <pt x="86" y="59" on="1"/>
        <pt x="86" y="145" on="1"/>
        <pt x="446" y="302" on="1"/>
        <pt x="86" y="460" on="1"/>
        <pt x="86" y="546" on="1"/>
      </contour>
    </TTGlyph>
    <TTGlyph name="guillemotleft" xMin="69" yMin="24" xMax="527" yMax="499">
      <contour>
        <pt x="305" y="261" on="1"/>
        <pt x="458" y="499" on="1"/>
        <pt x="527" y="448" on="1"/>
        <pt x="403" y="261" on="1"/>
        <pt x="526" y="77" on="1"/>
        <pt x="457" y="24" on="1"/>
      </contour>
      <contour>
        <pt x="221" y="24" on="1"/>
        <pt x="69" y="261" on="1"/>
        <pt x="222" y="499" on="1"/>
        <pt x="292" y="448" on="1"/>
        <pt x="168" y="261" on="1"/>
        <pt x="290" y="77" on="1"/>
      </contour>
    </TTGlyph>
    <TTGlyph name="guillemotright" xMin="84" yMin="24" xMax="541" yMax="499">
      <contour>
        <pt x="319" y="77" on="1"/>
        <pt x="442" y="261" on="1"/>
        <pt x="318" y="448" on="1"/>
        <pt x="388" y="499" on="1"/>
        <pt x="541" y="261" on="1"/>
        <pt x="389" y="24" on="1"/>
      </contour>
      <contour>
        <pt x="85" y="77" on="1"/>
        <pt x="206" y="261" on="1"/>
        <pt x="84" y="448" on="1"/>
        <pt x="152" y="499" on="1"/>
        <pt x="305" y="261" on="1"/>
        <pt x="153" y="24" on="1"/>
      </contour>
    </TTGlyph>
    <TTGlyph name="guilsinglleft" xMin="69" yMin="24" xMax="292" yMax="499">
      <contour>
        <pt x="221" y="24" on="1"/>
        <pt x="69" y="261" on="1"/>
        <pt x="222" y="499" on="1"/>
        <pt x="292" y="448" on="1"/>
        <pt x="168" y="261" on="1"/>
        <pt x="290" y="77" on="1"/>
      </contour>
    </TTGlyph>
    <TTGlyph name="guilsinglright" xMin="84" yMin="24" xMax="307" yMax="499">
      <contour>
        <pt x="86" y="77" on="1"/>
        <pt x="208" y="261" on="1"/>
        <pt x="84" y="448" on="1"/>
        <pt x="154" y="499" on="1"/>
        <pt x="307" y="261" on="1"/>
        <pt x="155" y="24" on="1"/>
      </contour>
    </TTGlyph>
    <TTGlyph name="h" xMin="85" yMin="0" xMax="522" yMax="759">
      <contour>
        <pt x="85" y="0" on="1"/>
        <pt x="85" y="759" on="1"/>
        <pt x="179" y="759" on="1"/>
        <pt x="179" y="449" on="1"/>
        <pt x="247" y="523" on="0"/>
        <pt x="353" y="523" on="1"/>
        <pt x="435" y="523" on="0"/>
        <pt x="522" y="429" on="0"/>
        <pt x="522" y="340" on="1"/>
        <pt x="522" y="0" on="1"/>
        <pt x="428" y="0" on="1"/>
        <pt x="428" y="333" on="1"/>
        <pt x="428" y="394" on="0"/>
        <pt x="381" y="449" on="0"/>
        <pt x="329" y="449" on="1"/>
        <pt x="231" y="449" on="0"/>
        <pt x="179" y="368" on="1"/>
        <pt x="179" y="0" on="1"/>
      </contour>
    </TTGlyph>
    <TTGlyph name="hbar" xMin="19" yMin="0" xMax="522" yMax="759">
      <contour>
        <pt x="19" y="605" on="1"/>
        <pt x="19" y="675" on="1"/>
        <pt x="85" y="675" on="1"/>
        <pt x="85" y="759" on="1"/>
        <pt x="179" y="759" on="1"/>
        <pt x="179" y="675" on="1"/>
        <pt x="323" y="675" on="1"/>
        <pt x="323" y="605" on="1"/>
        <pt x="179" y="605" on="1"/>
        <pt x="179" y="449" on="1"/>
        <pt x="247" y="523" on="0"/>
        <pt x="353" y="523" on="1"/>
        <pt x="435" y="523" on="0"/>
        <pt x="522" y="429" on="0"/>
        <pt x="522" y="340" on="1"/>
        <pt x="522" y="0" on="1"/>
        <pt x="428" y="0" on="1"/>
        <pt x="428" y="333" on="1"/>
        <pt x="428" y="394" on="0"/>
        <pt x="381" y="449" on="0"/>
        <pt x="329" y="449" on="1"/>
        <pt x="231" y="449" on="0"/>
        <pt x="179" y="368" on="1"/>
        <pt x="179" y="0" on="1"/>
        <pt x="85" y="0" on="1"/>
        <pt x="85" y="605" on="1"/>
      </contour>
    </TTGlyph>
    <TTGlyph name="hyphen" xMin="50" yMin="279" xMax="417" yMax="359">
      <contour>
        <pt x="50" y="279" on="1"/>
        <pt x="50" y="359" on="1"/>
        <pt x="417" y="359" on="1"/>
        <pt x="417" y="279" on="1"/>
      </contour>
    </TTGlyph>
    <TTGlyph name="i" xMin="86" yMin="0" xMax="178" yMax="708">
      <contour>
        <pt x="86" y="621" on="1"/>
        <pt x="86" y="708" on="1"/>
        <pt x="178" y="708" on="1"/>
        <pt x="178" y="621" on="1"/>
      </contour>
      <contour>
        <pt x="86" y="0" on="1"/>
        <pt x="86" y="514" on="1"/>
        <pt x="178" y="514" on="1"/>
        <pt x="178" y="0" on="1"/>
      </contour>
    </TTGlyph>
    <TTGlyph name="iacute" xMin="39" yMin="0" xMax="232" yMax="765">
      <contour>
        <pt x="86" y="0" on="1"/>
        <pt x="86" y="514" on="1"/>
        <pt x="178" y="514" on="1"/>
        <pt x="178" y="0" on="1"/>
      </contour>
      <contour>
        <pt x="39" y="601" on="1"/>
        <pt x="172" y="765" on="1"/>
        <pt x="232" y="703" on="1"/>
        <pt x="76" y="567" on="1"/>
      </contour>
    </TTGlyph>
    <TTGlyph name="icircumflex" xMin="-30" yMin="0" xMax="298" yMax="742">
      <contour>
        <pt x="86" y="0" on="1"/>
        <pt x="86" y="514" on="1"/>
        <pt x="178" y="514" on="1"/>
        <pt x="178" y="0" on="1"/>
      </contour>
      <contour>
        <pt x="123" y="742" on="1"/>
        <pt x="145" y="742" on="1"/>
        <pt x="298" y="615" on="1"/>
        <pt x="268" y="574" on="1"/>
        <pt x="134" y="666" on="1"/>
        <pt x="-3" y="574" on="1"/>
        <pt x="-30" y="615" on="1"/>
      </contour>
    </TTGlyph>
    <TTGlyph name="idieresis" xMin="-3" yMin="0" xMax="271" yMax="716">
      <contour>
        <pt x="86" y="0" on="1"/>
        <pt x="86" y="514" on="1"/>
        <pt x="178" y="514" on="1"/>
        <pt x="178" y="0" on="1"/>
      </contour>
      <contour>
        <pt x="-3" y="716" on="1"/>
        <pt x="90" y="716" on="1"/>
        <pt x="90" y="623" on="1"/>
        <pt x="-3" y="623" on="1"/>
      </contour>
      <contour>
        <pt x="179" y="716" on="1"/>
        <pt x="271" y="716" on="1"/>
        <pt x="271" y="623" on="1"/>
        <pt x="179" y="623" on="1"/>
      </contour>
    </TTGlyph>
    <TTGlyph name="igrave" xMin="13" yMin="0" xMax="206" yMax="765">
      <contour>
        <pt x="86" y="0" on="1"/>
        <pt x="86" y="514" on="1"/>
        <pt x="178" y="514" on="1"/>
        <pt x="178" y="0" on="1"/>
      </contour>
      <contour>
        <pt x="13" y="703" on="1"/>
        <pt x="73" y="765" on="1"/>
        <pt x="206" y="601" on="1"/>
        <pt x="169" y="567" on="1"/>
      </contour>
    </TTGlyph>
    <TTGlyph name="ij" xMin="86" yMin="-187" xMax="445" yMax="708">
      <contour>
        <pt x="86" y="621" on="1"/>
        <pt x="86" y="708" on="1"/>
        <pt x="178" y="708" on="1"/>
        <pt x="178" y="621" on="1"/>
      </contour>
      <contour>
        <pt x="86" y="0" on="1"/>
        <pt x="86" y="514" on="1"/>
        <pt x="178" y="514" on="1"/>
        <pt x="178" y="0" on="1"/>
      </contour>
      <contour>
        <pt x="353" y="621" on="1"/>
        <pt x="353" y="708" on="1"/>
        <pt x="445" y="708" on="1"/>
        <pt x="445" y="621" on="1"/>
      </contour>
      <contour>
        <pt x="353" y="85" on="1"/>
        <pt x="353" y="514" on="1"/>
        <pt x="445" y="514" on="1"/>
        <pt x="445" y="85" on="1"/>
        <pt x="445" y="14" on="0"/>
        <pt x="378" y="-114" on="0"/>
        <pt x="302" y="-187" on="1"/>
        <pt x="252" y="-145" on="1"/>
        <pt x="353" y="-16" on="0"/>
      </contour>
    </TTGlyph>
    <TTGlyph name="itilde" xMin="-49" yMin="0" xMax="311" yMax="718">
      <contour>
        <pt x="86" y="0" on="1"/>
        <pt x="86" y="514" on="1"/>
        <pt x="178" y="514" on="1"/>
        <pt x="178" y="0" on="1"/>
      </contour>
      <contour>
        <pt x="-49" y="599" on="1"/>
        <pt x="-49" y="653" on="0"/>
        <pt x="12" y="718" on="0"/>
        <pt x="64" y="718" on="1"/>
        <pt x="112" y="718" on="0"/>
        <pt x="175" y="655" on="0"/>
        <pt x="201" y="655" on="1"/>
        <pt x="252" y="655" on="0"/>
        <pt x="252" y="709" on="1"/>
        <pt x="311" y="709" on="1"/>
        <pt x="311" y="655" on="0"/>
        <pt x="252" y="590" on="0"/>
        <pt x="203" y="590" on="1"/>
        <pt x="171" y="590" on="0"/>
        <pt x="123" y="622" on="0"/>
        <pt x="84" y="654" on="0"/>
        <pt x="39" y="654" on="0"/>
        <pt x="10" y="624" on="0"/>
        <pt x="10" y="599" on="1"/>
      </contour>
    </TTGlyph>
    <TTGlyph name="j" xMin="-12" yMin="-187" xMax="181" yMax="708">
      <contour>
        <pt x="89" y="621" on="1"/>
        <pt x="89" y="708" on="1"/>
        <pt x="181" y="708" on="1"/>
        <pt x="181" y="621" on="1"/>
      </contour>
      <contour>
        <pt x="89" y="85" on="1"/>
        <pt x="89" y="514" on="1"/>
        <pt x="181" y="514" on="1"/>
        <pt x="181" y="85" on="1"/>
        <pt x="181" y="14" on="0"/>
        <pt x="114" y="-114" on="0"/>
        <pt x="38" y="-187" on="1"/>
        <pt x="-12" y="-145" on="1"/>
        <pt x="89" y="-16" on="0"/>
      </contour>
    </TTGlyph>
    <TTGlyph name="jcircumflex" xMin="-31" yMin="-187" xMax="297" yMax="742">
      <contour>
        <pt x="89" y="85" on="1"/>
        <pt x="89" y="514" on="1"/>
        <pt x="181" y="514" on="1"/>
        <pt x="181" y="85" on="1"/>
        <pt x="181" y="14" on="0"/>
        <pt x="114" y="-114" on="0"/>
        <pt x="38" y="-187" on="1"/>
        <pt x="-12" y="-145" on="1"/>
        <pt x="89" y="-16" on="0"/>
      </contour>
      <contour>
        <pt x="122" y="742" on="1"/>
        <pt x="144" y="742" on="1"/>
        <pt x="297" y="615" on="1"/>
        <pt x="267" y="574" on="1"/>
        <pt x="133" y="666" on="1"/>
        <pt x="-4" y="574" on="1"/>
        <pt x="-31" y="615" on="1"/>
      </contour>
    </TTGlyph>
    <TTGlyph name="k" xMin="85" yMin="0" xMax="523" yMax="759">
      <contour>
        <pt x="85" y="0" on="1"/>
        <pt x="85" y="759" on="1"/>
        <pt x="179" y="759" on="1"/>
        <pt x="179" y="0" on="1"/>
      </contour>
      <contour>
        <pt x="195" y="292" on="1"/>
        <pt x="380" y="514" on="1"/>
        <pt x="486" y="514" on="1"/>
        <pt x="303" y="297" on="1"/>
        <pt x="523" y="0" on="1"/>
        <pt x="412" y="0" on="1"/>
      </contour>
    </TTGlyph>
    <TTGlyph name="kcommaaccent" xMin="85" yMin="-260" xMax="523" yMax="759">
      <contour>
        <pt x="85" y="0" on="1"/>
        <pt x="85" y="759" on="1"/>
        <pt x="179" y="759" on="1"/>
        <pt x="179" y="0" on="1"/>
      </contour>
      <contour>
        <pt x="195" y="292" on="1"/>
        <pt x="380" y="514" on="1"/>
        <pt x="486" y="514" on="1"/>
        <pt x="303" y="297" on="1"/>
        <pt x="523" y="0" on="1"/>
        <pt x="412" y="0" on="1"/>
      </contour>
      <contour>
        <pt x="232" y="-42" on="1"/>
        <pt x="332" y="-42" on="1"/>
        <pt x="332" y="-122" on="1"/>
        <pt x="313" y="-260" on="1"/>
        <pt x="277" y="-260" on="1"/>
        <pt x="277" y="-142" on="1"/>
        <pt x="232" y="-142" on="1"/>
      </contour>
    </TTGlyph>
    <TTGlyph name="kgreenlandic" xMin="85" yMin="0" xMax="523" yMax="759">
      <contour>
        <pt x="85" y="0" on="1"/>
        <pt x="85" y="759" on="1"/>
        <pt x="179" y="759" on="1"/>
        <pt x="179" y="0" on="1"/>
      </contour>
      <contour>
        <pt x="195" y="292" on="1"/>
        <pt x="380" y="514" on="1"/>
        <pt x="486" y="514" on="1"/>
        <pt x="303" y="297" on="1"/>
        <pt x="523" y="0" on="1"/>
        <pt x="412" y="0" on="1"/>
      </contour>
    </TTGlyph>
    <TTGlyph name="l" xMin="86" yMin="0" xMax="178" yMax="759">
      <contour>
        <pt x="86" y="0" on="1"/>
        <pt x="86" y="759" on="1"/>
        <pt x="178" y="759" on="1"/>
        <pt x="178" y="0" on="1"/>
      </contour>
    </TTGlyph>
    <TTGlyph name="ldot" xMin="86" yMin="0" xMax="352" yMax="759">
      <contour>
        <pt x="86" y="0" on="1"/>
        <pt x="86" y="759" on="1"/>
        <pt x="178" y="759" on="1"/>
        <pt x="178" y="0" on="1"/>
      </contour>
      <contour>
        <pt x="252" y="489" on="1"/>
        <pt x="252" y="589" on="1"/>
        <pt x="352" y="589" on="1"/>
        <pt x="352" y="489" on="1"/>
      </contour>
    </TTGlyph>
    <TTGlyph name="less" xMin="60" yMin="59" xMax="554" yMax="546">
      <contour>
        <pt x="60" y="275" on="1"/>
        <pt x="60" y="330" on="1"/>
        <pt x="554" y="546" on="1"/>
        <pt x="554" y="460" on="1"/>
        <pt x="194" y="302" on="1"/>
        <pt x="554" y="145" on="1"/>
        <pt x="554" y="59" on="1"/>
      </contour>
    </TTGlyph>
    <TTGlyph name="logicalnot" xMin="89" yMin="190" xMax="547" yMax="435">
      <contour>
        <pt x="89" y="363" on="1"/>
        <pt x="89" y="435" on="1"/>
        <pt x="547" y="435" on="1"/>
        <pt x="547" y="190" on="1"/>
        <pt x="469" y="190" on="1"/>
        <pt x="469" y="363" on="1"/>
      </contour>
    </TTGlyph>
    <TTGlyph name="lslash" xMin="-20" yMin="0" xMax="290" yMax="759">
      <contour>
        <pt x="20" y="289" on="1"/>
        <pt x="-20" y="359" on="1"/>
        <pt x="86" y="420" on="1"/>
        <pt x="86" y="759" on="1"/>
        <pt x="178" y="759" on="1"/>
        <pt x="178" y="473" on="1"/>
        <pt x="250" y="515" on="1"/>
        <pt x="290" y="445" on="1"/>
        <pt x="178" y="380" on="1"/>
        <pt x="178" y="0" on="1"/>
        <pt x="86" y="0" on="1"/>
        <pt x="86" y="327" on="1"/>
      </contour>
    </TTGlyph>
    <TTGlyph name="m" xMin="82" yMin="0" xMax="851" yMax="523">
      <contour>
        <pt x="82" y="0" on="1"/>
        <pt x="82" y="514" on="1"/>
        <pt x="159" y="514" on="1"/>
        <pt x="169" y="444" on="1"/>
        <pt x="236" y="523" on="0"/>
        <pt x="339" y="523" on="1"/>
        <pt x="459" y="523" on="0"/>
        <pt x="497" y="433" on="1"/>
        <pt x="566" y="523" on="0"/>
        <pt x="676" y="523" on="1"/>
        <pt x="763" y="523" on="0"/>
        <pt x="851" y="430" on="0"/>
        <pt x="851" y="340" on="1"/>
        <pt x="851" y="0" on="1"/>
        <pt x="757" y="0" on="1"/>
        <pt x="757" y="333" on="1"/>
        <pt x="757" y="394" on="0"/>
        <pt x="710" y="449" on="0"/>
        <pt x="658" y="449" on="1"/>
        <pt x="564" y="449" on="0"/>
        <pt x="512" y="368" on="1"/>
        <pt x="514" y="350" on="0"/>
        <pt x="514" y="340" on="1"/>
        <pt x="514" y="0" on="1"/>
        <pt x="420" y="0" on="1"/>
        <pt x="420" y="333" on="1"/>
        <pt x="420" y="394" on="0"/>
        <pt x="373" y="449" on="0"/>
        <pt x="321" y="449" on="1"/>
        <pt x="227" y="449" on="0"/>
        <pt x="176" y="369" on="1"/>
        <pt x="176" y="0" on="1"/>
      </contour>
    </TTGlyph>
    <TTGlyph name="macron" xMin="20" yMin="614" xMax="324" yMax="684">
      <contour>
        <pt x="20" y="684" on="1"/>
        <pt x="324" y="684" on="1"/>
        <pt x="324" y="614" on="1"/>
        <pt x="20" y="614" on="1"/>
      </contour>
    </TTGlyph>
    <TTGlyph name="mu" xMin="77" yMin="-208" xMax="514" yMax="514">
      <contour>
        <pt x="77" y="514" on="1"/>
        <pt x="171" y="514" on="1"/>
        <pt x="171" y="181" on="1"/>
        <pt x="171" y="120" on="0"/>
        <pt x="218" y="65" on="0"/>
        <pt x="270" y="65" on="1"/>
        <pt x="366" y="65" on="0"/>
        <pt x="420" y="145" on="1"/>
        <pt x="420" y="514" on="1"/>
        <pt x="514" y="514" on="1"/>
        <pt x="514" y="0" on="1"/>
        <pt x="437" y="0" on="1"/>
        <pt x="426" y="71" on="1"/>
        <pt x="359" y="-9" on="0"/>
        <pt x="252" y="-9" on="1"/>
        <pt x="199" y="-9" on="0"/>
        <pt x="158" y="10" on="1"/>
        <pt x="171" y="-208" on="1"/>
        <pt x="77" y="-208" on="1"/>
      </contour>
    </TTGlyph>
    <TTGlyph name="multiply" xMin="104" yMin="82" xMax="535" yMax="513">
      <contour>
        <pt x="479" y="513" on="1"/>
        <pt x="535" y="457" on="1"/>
        <pt x="375" y="297" on="1"/>
        <pt x="535" y="138" on="1"/>
        <pt x="479" y="82" on="1"/>
        <pt x="319" y="241" on="1"/>
        <pt x="160" y="82" on="1"/>
        <pt x="104" y="138" on="1"/>
        <pt x="263" y="297" on="1"/>
        <pt x="104" y="457" on="1"/>
        <pt x="160" y="513" on="1"/>
        <pt x="319" y="353" on="1"/>
      </contour>
    </TTGlyph>
    <TTGlyph name="n" xMin="82" yMin="0" xMax="519" yMax="523">
      <contour>
        <pt x="82" y="0" on="1"/>
        <pt x="82" y="514" on="1"/>
        <pt x="159" y="514" on="1"/>
        <pt x="169" y="442" on="1"/>
        <pt x="240" y="523" on="0"/>
        <pt x="350" y="523" on="1"/>
        <pt x="432" y="523" on="0"/>
        <pt x="519" y="429" on="0"/>
        <pt x="519" y="340" on="1"/>
        <pt x="519" y="0" on="1"/>
        <pt x="425" y="0" on="1"/>
        <pt x="425" y="333" on="1"/>
        <pt x="425" y="394" on="0"/>
        <pt x="378" y="449" on="0"/>
        <pt x="326" y="449" on="1"/>
        <pt x="228" y="449" on="0"/>
        <pt x="176" y="368" on="1"/>
        <pt x="176" y="0" on="1"/>
      </contour>
    </TTGlyph>
    <TTGlyph name="nacute" xMin="82" yMin="0" xMax="519" yMax="765">
      <contour>
        <pt x="82" y="0" on="1"/>
        <pt x="82" y="514" on="1"/>
        <pt x="159" y="514" on="1"/>
        <pt x="169" y="442" on="1"/>
        <pt x="240" y="523" on="0"/>
        <pt x="350" y="523" on="1"/>
        <pt x="432" y="523" on="0"/>
        <pt x="519" y="429" on="0"/>
        <pt x="519" y="340" on="1"/>
        <pt x="519" y="0" on="1"/>
        <pt x="425" y="0" on="1"/>
        <pt x="425" y="333" on="1"/>
        <pt x="425" y="394" on="0"/>
        <pt x="378" y="449" on="0"/>
        <pt x="326" y="449" on="1"/>
        <pt x="228" y="449" on="0"/>
        <pt x="176" y="368" on="1"/>
        <pt x="176" y="0" on="1"/>
      </contour>
      <contour>
        <pt x="216" y="601" on="1"/>
        <pt x="349" y="765" on="1"/>
        <pt x="409" y="703" on="1"/>
        <pt x="253" y="567" on="1"/>
      </contour>
    </TTGlyph>
    <TTGlyph name="nine" xMin="55" yMin="-8" xMax="546" yMax="716">
      <contour>
        <pt x="83" y="33" on="1"/>
        <pt x="122" y="100" on="1"/>
        <pt x="174" y="72" on="0"/>
        <pt x="237" y="72" on="1"/>
        <pt x="336" y="72" on="0"/>
        <pt x="438" y="200" on="0"/>
        <pt x="445" y="333" on="1"/>
        <pt x="370" y="266" on="0"/>
        <pt x="174" y="266" on="0"/>
        <pt x="55" y="386" on="0"/>
        <pt x="55" y="584" on="0"/>
        <pt x="188" y="716" on="0"/>
        <pt x="293" y="716" on="1"/>
        <pt x="546" y="716" on="0"/>
        <pt x="546" y="375" on="1"/>
        <pt x="546" y="187" on="0"/>
        <pt x="389" y="-8" on="0"/>
        <pt x="238" y="-8" on="1"/>
        <pt x="153" y="-8" on="0"/>
      </contour>
      <contour>
        <pt x="287" y="346" on="1"/>
        <pt x="330" y="346" on="0"/>
        <pt x="415" y="380" on="0"/>
        <pt x="445" y="410" on="1"/>
        <pt x="441" y="527" on="0"/>
        <pt x="367" y="634" on="0"/>
        <pt x="292" y="634" on="1"/>
        <pt x="234" y="634" on="0"/>
        <pt x="155" y="546" on="0"/>
        <pt x="155" y="418" on="0"/>
        <pt x="225" y="346" on="0"/>
      </contour>
    </TTGlyph>
    <TTGlyph name="ntilde" xMin="82" yMin="0" xMax="519" yMax="718">
      <contour>
        <pt x="82" y="0" on="1"/>
        <pt x="82" y="514" on="1"/>
        <pt x="159" y="514" on="1"/>
        <pt x="169" y="442" on="1"/>
        <pt x="240" y="523" on="0"/>
        <pt x="350" y="523" on="1"/>
        <pt x="432" y="523" on="0"/>
        <pt x="519" y="429" on="0"/>
        <pt x="519" y="340" on="1"/>
        <pt x="519" y="0" on="1"/>
        <pt x="425" y="0" on="1"/>
        <pt x="425" y="333" on="1"/>
        <pt x="425" y="394" on="0"/>
        <pt x="378" y="449" on="0"/>
        <pt x="326" y="449" on="1"/>
        <pt x="228" y="449" on="0"/>
        <pt x="176" y="368" on="1"/>
        <pt x="176" y="0" on="1"/>
      </contour>
      <contour>
        <pt x="128" y="599" on="1"/>
        <pt x="128" y="653" on="0"/>
        <pt x="189" y="718" on="0"/>
        <pt x="241" y="718" on="1"/>
        <pt x="289" y="718" on="0"/>
        <pt x="352" y="655" on="0"/>
        <pt x="378" y="655" on="1"/>
        <pt x="429" y="655" on="0"/>
        <pt x="429" y="709" on="1"/>
        <pt x="488" y="709" on="1"/>
        <pt x="488" y="655" on="0"/>
        <pt x="429" y="590" on="0"/>
        <pt x="380" y="590" on="1"/>
        <pt x="348" y="590" on="0"/>
        <pt x="300" y="622" on="0"/>
        <pt x="261" y="654" on="0"/>
        <pt x="216" y="654" on="0"/>
        <pt x="187" y="624" on="0"/>
        <pt x="187" y="599" on="1"/>
      </contour>
    </TTGlyph>
    <TTGlyph name="numbersign" xMin="21" yMin="0" xMax="681" yMax="708">
      <contour>
        <pt x="65" y="440" on="1"/>
        <pt x="77" y="512" on="1"/>
        <pt x="216" y="512" on="1"/>
        <pt x="250" y="708" on="1"/>
        <pt x="328" y="708" on="1"/>
        <pt x="294" y="512" on="1"/>
        <pt x="463" y="512" on="1"/>
        <pt x="497" y="708" on="1"/>
        <pt x="576" y="708" on="1"/>
        <pt x="542" y="512" on="1"/>
        <pt x="681" y="512" on="1"/>
        <pt x="669" y="440" on="1"/>
        <pt x="530" y="440" on="1"/>
        <pt x="499" y="259" on="1"/>
        <pt x="636" y="259" on="1"/>
        <pt x="624" y="187" on="1"/>
        <pt x="487" y="187" on="1"/>
        <pt x="456" y="0" on="1"/>
        <pt x="376" y="0" on="1"/>
        <pt x="408" y="187" on="1"/>
        <pt x="239" y="187" on="1"/>
        <pt x="208" y="0" on="1"/>
        <pt x="129" y="0" on="1"/>
        <pt x="161" y="187" on="1"/>
        <pt x="21" y="187" on="1"/>
        <pt x="32" y="259" on="1"/>
        <pt x="173" y="259" on="1"/>
        <pt x="204" y="440" on="1"/>
      </contour>
      <contour>
        <pt x="282" y="440" on="1"/>
        <pt x="251" y="259" on="1"/>
        <pt x="420" y="259" on="1"/>
        <pt x="451" y="440" on="1"/>
      </contour>
    </TTGlyph>
    <TTGlyph name="o" xMin="46" yMin="-8" xMax="534" yMax="523">
      <contour>
        <pt x="46" y="133" on="0"/>
        <pt x="46" y="383" on="0"/>
        <pt x="173" y="523" on="0"/>
        <pt x="407" y="523" on="0"/>
        <pt x="534" y="383" on="0"/>
        <pt x="534" y="133" on="0"/>
        <pt x="407" y="-8" on="0"/>
        <pt x="173" y="-8" on="0"/>
      </contour>
      <contour>
        <pt x="142" y="352" on="0"/>
        <pt x="142" y="164" on="0"/>
        <pt x="219" y="66" on="0"/>
        <pt x="361" y="66" on="0"/>
        <pt x="438" y="164" on="0"/>
        <pt x="438" y="352" on="0"/>
        <pt x="361" y="449" on="0"/>
        <pt x="219" y="449" on="0"/>
      </contour>
    </TTGlyph>
    <TTGlyph name="oacute" xMin="46" yMin="-8" xMax="534" yMax="765">
      <contour>
        <pt x="46" y="133" on="0"/>
        <pt x="46" y="383" on="0"/>
        <pt x="173" y="523" on="0"/>
        <pt x="407" y="523" on="0"/>
        <pt x="534" y="383" on="0"/>
        <pt x="534" y="133" on="0"/>
        <pt x="407" y="-8" on="0"/>
        <pt x="173" y="-8" on="0"/>
      </contour>
      <contour>
        <pt x="142" y="352" on="0"/>
        <pt x="142" y="164" on="0"/>
        <pt x="219" y="66" on="0"/>
        <pt x="361" y="66" on="0"/>
        <pt x="438" y="164" on="0"/>
        <pt x="438" y="352" on="0"/>
        <pt x="361" y="449" on="0"/>
        <pt x="219" y="449" on="0"/>
      </contour>
      <contour>
        <pt x="194" y="601" on="1"/>
        <pt x="327" y="765" on="1"/>
        <pt x="387" y="703" on="1"/>
        <pt x="231" y="567" on="1"/>
      </contour>
    </TTGlyph>
    <TTGlyph name="ocircumflex" xMin="46" yMin="-8" xMax="534" yMax="742">
      <contour>
        <pt x="46" y="133" on="0"/>
        <pt x="46" y="383" on="0"/>
        <pt x="173" y="523" on="0"/>
        <pt x="407" y="523" on="0"/>
        <pt x="534" y="383" on="0"/>
        <pt x="534" y="133" on="0"/>
        <pt x="407" y="-8" on="0"/>
        <pt x="173" y="-8" on="0"/>
      </contour>
      <contour>
        <pt x="142" y="352" on="0"/>
        <pt x="142" y="164" on="0"/>
        <pt x="219" y="66" on="0"/>
        <pt x="361" y="66" on="0"/>
        <pt x="438" y="164" on="0"/>
        <pt x="438" y="352" on="0"/>
        <pt x="361" y="449" on="0"/>
        <pt x="219" y="449" on="0"/>
      </contour>
      <contour>
        <pt x="278" y="742" on="1"/>
        <pt x="300" y="742" on="1"/>
        <pt x="453" y="615" on="1"/>
        <pt x="423" y="574" on="1"/>
        <pt x="289" y="666" on="1"/>
        <pt x="152" y="574" on="1"/>
        <pt x="125" y="615" on="1"/>
      </contour>
    </TTGlyph>
    <TTGlyph name="odieresis" xMin="46" yMin="-8" xMax="534" yMax="716">
      <contour>
        <pt x="46" y="133" on="0"/>
        <pt x="46" y="383" on="0"/>
        <pt x="173" y="523" on="0"/>
        <pt x="407" y="523" on="0"/>
        <pt x="534" y="383" on="0"/>
        <pt x="534" y="133" on="0"/>
        <pt x="407" y="-8" on="0"/>
        <pt x="173" y="-8" on="0"/>
      </contour>
      <contour>
        <pt x="142" y="352" on="0"/>
        <pt x="142" y="164" on="0"/>
        <pt x="219" y="66" on="0"/>
        <pt x="361" y="66" on="0"/>
        <pt x="438" y="164" on="0"/>
        <pt x="438" y="352" on="0"/>
        <pt x="361" y="449" on="0"/>
        <pt x="219" y="449" on="0"/>
      </contour>
      <contour>
        <pt x="152" y="716" on="1"/>
        <pt x="245" y="716" on="1"/>
        <pt x="245" y="623" on="1"/>
        <pt x="152" y="623" on="1"/>
      </contour>
      <contour>
        <pt x="334" y="716" on="1"/>
        <pt x="426" y="716" on="1"/>
        <pt x="426" y="623" on="1"/>
        <pt x="334" y="623" on="1"/>
      </contour>
    </TTGlyph>
    <TTGlyph name="oe" xMin="46" yMin="-8" xMax="854" yMax="523">
      <contour>
        <pt x="46" y="133" on="0"/>
        <pt x="46" y="383" on="0"/>
        <pt x="167" y="523" on="0"/>
        <pt x="280" y="523" on="1"/>
        <pt x="408" y="523" on="0"/>
        <pt x="464" y="420" on="1"/>
        <pt x="519" y="523" on="0"/>
        <pt x="650" y="523" on="1"/>
        <pt x="854" y="523" on="0"/>
        <pt x="854" y="261" on="1"/>
        <pt x="854" y="245" on="1"/>
        <pt x="515" y="245" on="1"/>
        <pt x="517" y="158" on="0"/>
        <pt x="590" y="66" on="0"/>
        <pt x="726" y="66" on="0"/>
        <pt x="807" y="105" on="1"/>
        <pt x="834" y="41" on="1"/>
        <pt x="744" y="-8" on="0"/>
        <pt x="653" y="-8" on="1"/>
        <pt x="521" y="-8" on="0"/>
        <pt x="464" y="96" on="1"/>
        <pt x="410" y="-8" on="0"/>
        <pt x="280" y="-8" on="1"/>
        <pt x="168" y="-8" on="0"/>
      </contour>
      <contour>
        <pt x="142" y="352" on="0"/>
        <pt x="142" y="164" on="0"/>
        <pt x="214" y="66" on="0"/>
        <pt x="346" y="66" on="0"/>
        <pt x="418" y="164" on="0"/>
        <pt x="418" y="352" on="0"/>
        <pt x="346" y="449" on="0"/>
        <pt x="214" y="449" on="0"/>
      </contour>
      <contour>
        <pt x="650" y="449" on="1"/>
        <pt x="539" y="449" on="0"/>
        <pt x="519" y="315" on="1"/>
        <pt x="755" y="315" on="1"/>
        <pt x="748" y="385" on="0"/>
        <pt x="697" y="449" on="0"/>
      </contour>
    </TTGlyph>
    <TTGlyph name="ograve" xMin="46" yMin="-8" xMax="534" yMax="765">
      <contour>
        <pt x="46" y="133" on="0"/>
        <pt x="46" y="383" on="0"/>
        <pt x="173" y="523" on="0"/>
        <pt x="407" y="523" on="0"/>
        <pt x="534" y="383" on="0"/>
        <pt x="534" y="133" on="0"/>
        <pt x="407" y="-8" on="0"/>
        <pt x="173" y="-8" on="0"/>
      </contour>
      <contour>
        <pt x="142" y="352" on="0"/>
        <pt x="142" y="164" on="0"/>
        <pt x="219" y="66" on="0"/>
        <pt x="361" y="66" on="0"/>
        <pt x="438" y="164" on="0"/>
        <pt x="438" y="352" on="0"/>
        <pt x="361" y="449" on="0"/>
        <pt x="219" y="449" on="0"/>
      </contour>
      <contour>
        <pt x="168" y="703" on="1"/>
        <pt x="228" y="765" on="1"/>
        <pt x="361" y="601" on="1"/>
        <pt x="324" y="567" on="1"/>
      </contour>
    </TTGlyph>
    <TTGlyph name="one" xMin="54" yMin="0" xMax="481" yMax="712">
      <contour>
        <pt x="93" y="0" on="1"/>
        <pt x="93" y="80" on="1"/>
        <pt x="248" y="80" on="1"/>
        <pt x="248" y="609" on="1"/>
        <pt x="77" y="556" on="1"/>
        <pt x="54" y="615" on="1"/>
        <pt x="271" y="712" on="1"/>
        <pt x="342" y="700" on="1"/>
        <pt x="342" y="80" on="1"/>
        <pt x="481" y="80" on="1"/>
        <pt x="481" y="0" on="1"/>
      </contour>
    </TTGlyph>
    <TTGlyph name="onehalf" xMin="78" yMin="-228" xMax="545" yMax="811">
      <contour>
        <pt x="373" y="378" on="1"/>
        <pt x="297" y="378" on="1"/>
        <pt x="297" y="728" on="1"/>
        <pt x="202" y="698" on="1"/>
        <pt x="183" y="749" on="1"/>
        <pt x="319" y="811" on="1"/>
        <pt x="373" y="801" on="1"/>
      </contour>
      <contour>
        <pt x="228" y="81" on="1"/>
        <pt x="166" y="110" on="1"/>
        <pt x="183" y="156" on="0"/>
        <pt x="262" y="206" on="0"/>
        <pt x="382" y="206" on="0"/>
        <pt x="457" y="134" on="0"/>
        <pt x="457" y="10" on="0"/>
        <pt x="377" y="-101" on="0"/>
        <pt x="294" y="-163" on="1"/>
        <pt x="467" y="-163" on="1"/>
        <pt x="467" y="-228" on="1"/>
        <pt x="167" y="-228" on="1"/>
        <pt x="167" y="-176" on="1"/>
        <pt x="281" y="-94" on="0"/>
        <pt x="377" y="14" on="0"/>
        <pt x="377" y="67" on="1"/>
        <pt x="377" y="102" on="0"/>
        <pt x="344" y="141" on="0"/>
        <pt x="315" y="141" on="1"/>
        <pt x="261" y="141" on="0"/>
      </contour>
      <contour>
        <pt x="78" y="257" on="1"/>
        <pt x="78" y="329" on="1"/>
        <pt x="545" y="329" on="1"/>
        <pt x="545" y="257" on="1"/>
      </contour>
    </TTGlyph>
    <TTGlyph name="onequarter" xMin="81" yMin="-227" xMax="548" yMax="811">
      <contour>
        <pt x="124" y="-132" on="1"/>
        <pt x="124" y="-84" on="1"/>
        <pt x="313" y="203" on="1"/>
        <pt x="414" y="203" on="1"/>
        <pt x="414" y="-68" on="1"/>
        <pt x="462" y="-68" on="1"/>
        <pt x="462" y="-132" on="1"/>
        <pt x="414" y="-132" on="1"/>
        <pt x="414" y="-227" on="1"/>
        <pt x="341" y="-227" on="1"/>
        <pt x="341" y="-132" on="1"/>
      </contour>
      <contour>
        <pt x="213" y="-68" on="1"/>
        <pt x="341" y="-68" on="1"/>
        <pt x="341" y="131" on="1"/>
      </contour>
      <contour>
        <pt x="372" y="378" on="1"/>
        <pt x="296" y="378" on="1"/>
        <pt x="296" y="728" on="1"/>
        <pt x="201" y="698" on="1"/>
        <pt x="182" y="749" on="1"/>
        <pt x="318" y="811" on="1"/>
        <pt x="372" y="801" on="1"/>
      </contour>
      <contour>
        <pt x="81" y="257" on="1"/>
        <pt x="81" y="329" on="1"/>
        <pt x="548" y="329" on="1"/>
        <pt x="548" y="257" on="1"/>
      </contour>
    </TTGlyph>
    <TTGlyph name="onesuperior" xMin="57" yMin="378" xMax="247" yMax="811">
      <contour>
        <pt x="247" y="378" on="1"/>
        <pt x="171" y="378" on="1"/>
        <pt x="171" y="728" on="1"/>
        <pt x="76" y="698" on="1"/>
        <pt x="57" y="749" on="1"/>
        <pt x="193" y="811" on="1"/>
        <pt x="247" y="801" on="1"/>
      </contour>
    </TTGlyph>
    <TTGlyph name="ordfeminine" xMin="28" yMin="370" xMax="310" yMax="721">
      <contour>
        <pt x="90" y="370" on="0"/>
        <pt x="28" y="425" on="0"/>
        <pt x="28" y="528" on="0"/>
        <pt x="115" y="588" on="0"/>
        <pt x="195" y="588" on="1"/>
        <pt x="233" y="588" on="1"/>
        <pt x="233" y="593" on="1"/>
        <pt x="233" y="630" on="0"/>
        <pt x="204" y="660" on="0"/>
        <pt x="129" y="660" on="0"/>
        <pt x="67" y="634" on="1"/>
        <pt x="44" y="688" on="1"/>
        <pt x="110" y="721" on="0"/>
        <pt x="243" y="721" on="0"/>
        <pt x="310" y="659" on="0"/>
        <pt x="310" y="592" on="1"/>
        <pt x="310" y="378" on="1"/>
        <pt x="252" y="378" on="1"/>
        <pt x="242" y="407" on="1"/>
        <pt x="199" y="370" on="0"/>
      </contour>
      <contour>
        <pt x="104" y="474" on="1"/>
        <pt x="104" y="431" on="0"/>
        <pt x="200" y="431" on="0"/>
        <pt x="233" y="470" on="1"/>
        <pt x="233" y="534" on="1"/>
        <pt x="198" y="534" on="1"/>
        <pt x="104" y="534" on="0"/>
      </contour>
    </TTGlyph>
    <TTGlyph name="ordmasculine" xMin="29" yMin="374" xMax="351" yMax="722">
      <contour>
        <pt x="29" y="466" on="0"/>
        <pt x="29" y="630" on="0"/>
        <pt x="113" y="722" on="0"/>
        <pt x="268" y="722" on="0"/>
        <pt x="351" y="631" on="0"/>
        <pt x="351" y="466" on="0"/>
        <pt x="267" y="374" on="0"/>
        <pt x="113" y="374" on="0"/>
      </contour>
      <contour>
        <pt x="106" y="603" on="0"/>
        <pt x="106" y="493" on="0"/>
        <pt x="150" y="435" on="0"/>
        <pt x="190" y="435" on="1"/>
        <pt x="274" y="435" on="0"/>
        <pt x="274" y="661" on="0"/>
        <pt x="190" y="661" on="1"/>
        <pt x="150" y="661" on="0"/>
      </contour>
    </TTGlyph>
    <TTGlyph name="oslash" xMin="46" yMin="-61" xMax="534" yMax="567">
      <contour>
        <pt x="46" y="258" on="1"/>
        <pt x="46" y="383" on="0"/>
        <pt x="173" y="523" on="0"/>
        <pt x="290" y="523" on="1"/>
        <pt x="314" y="523" on="0"/>
        <pt x="336" y="520" on="1"/>
        <pt x="351" y="567" on="1"/>
        <pt x="419" y="567" on="1"/>
        <pt x="398" y="503" on="1"/>
        <pt x="464" y="476" on="0"/>
        <pt x="534" y="350" on="0"/>
        <pt x="534" y="258" on="1"/>
        <pt x="534" y="133" on="0"/>
        <pt x="407" y="-8" on="0"/>
        <pt x="290" y="-8" on="1"/>
        <pt x="259" y="-8" on="0"/>
        <pt x="236" y="-4" on="1"/>
        <pt x="218" y="-61" on="1"/>
        <pt x="150" y="-61" on="1"/>
        <pt x="174" y="15" on="1"/>
        <pt x="46" y="74" on="0"/>
      </contour>
      <contour>
        <pt x="438" y="258" on="1"/>
        <pt x="438" y="380" on="0"/>
        <pt x="373" y="425" on="1"/>
        <pt x="259" y="68" on="1"/>
        <pt x="279" y="66" on="0"/>
        <pt x="290" y="66" on="1"/>
        <pt x="361" y="66" on="0"/>
        <pt x="438" y="164" on="0"/>
      </contour>
      <contour>
        <pt x="142" y="258" on="1"/>
        <pt x="142" y="141" on="0"/>
        <pt x="200" y="95" on="1"/>
        <pt x="313" y="447" on="1"/>
        <pt x="297" y="449" on="0"/>
        <pt x="290" y="449" on="1"/>
        <pt x="219" y="449" on="0"/>
        <pt x="142" y="352" on="0"/>
      </contour>
    </TTGlyph>
    <TTGlyph name="otilde" xMin="46" yMin="-8" xMax="534" yMax="718">
      <contour>
        <pt x="46" y="133" on="0"/>
        <pt x="46" y="383" on="0"/>
        <pt x="173" y="523" on="0"/>
        <pt x="407" y="523" on="0"/>
        <pt x="534" y="383" on="0"/>
        <pt x="534" y="133" on="0"/>
        <pt x="407" y="-8" on="0"/>
        <pt x="173" y="-8" on="0"/>
      </contour>
      <contour>
        <pt x="142" y="352" on="0"/>
        <pt x="142" y="164" on="0"/>
        <pt x="219" y="66" on="0"/>
        <pt x="361" y="66" on="0"/>
        <pt x="438" y="164" on="0"/>
        <pt x="438" y="352" on="0"/>
        <pt x="361" y="449" on="0"/>
        <pt x="219" y="449" on="0"/>
      </contour>
      <contour>
        <pt x="106" y="599" on="1"/>
        <pt x="106" y="653" on="0"/>
        <pt x="167" y="718" on="0"/>
        <pt x="219" y="718" on="1"/>
        <pt x="267" y="718" on="0"/>
        <pt x="330" y="655" on="0"/>
        <pt x="356" y="655" on="1"/>
        <pt x="407" y="655" on="0"/>
        <pt x="407" y="709" on="1"/>
        <pt x="466" y="709" on="1"/>
        <pt x="466" y="655" on="0"/>
        <pt x="407" y="590" on="0"/>
        <pt x="358" y="590" on="1"/>
        <pt x="326" y="590" on="0"/>
        <pt x="278" y="622" on="0"/>
        <pt x="239" y="654" on="0"/>
        <pt x="194" y="654" on="0"/>
        <pt x="165" y="624" on="0"/>
        <pt x="165" y="599" on="1"/>
      </contour>
    </TTGlyph>
    <TTGlyph name="p" xMin="82" yMin="-245" xMax="547" yMax="523">
      <contour>
        <pt x="428" y="523" on="0"/>
        <pt x="547" y="390" on="0"/>
        <pt x="547" y="137" on="0"/>
        <pt x="406" y="-8" on="0"/>
        <pt x="283" y="-8" on="1"/>
        <pt x="227" y="-8" on="0"/>
        <pt x="176" y="5" on="1"/>
        <pt x="176" y="-245" on="1"/>
        <pt x="82" y="-245" on="1"/>
        <pt x="82" y="514" on="1"/>
        <pt x="158" y="514" on="1"/>
        <pt x="170" y="451" on="1"/>
        <pt x="225" y="523" on="0"/>
      </contour>
      <contour>
        <pt x="451" y="354" on="0"/>
        <pt x="380" y="449" on="0"/>
        <pt x="264" y="449" on="0"/>
        <pt x="191" y="395" on="0"/>
        <pt x="176" y="347" on="1"/>
        <pt x="176" y="80" on="1"/>
        <pt x="227" y="66" on="0"/>
        <pt x="282" y="66" on="1"/>
        <pt x="361" y="66" on="0"/>
        <pt x="451" y="171" on="0"/>
      </contour>
    </TTGlyph>
    <TTGlyph name="paragraph" xMin="45" yMin="-192" xMax="432" yMax="708">
      <contour>
        <pt x="240" y="-192" on="1"/>
        <pt x="240" y="337" on="1"/>
        <pt x="152" y="337" on="0"/>
        <pt x="45" y="439" on="0"/>
        <pt x="45" y="610" on="0"/>
        <pt x="148" y="708" on="0"/>
        <pt x="240" y="708" on="1"/>
        <pt x="432" y="708" on="1"/>
        <pt x="432" y="-192" on="1"/>
        <pt x="367" y="-192" on="1"/>
        <pt x="367" y="653" on="1"/>
        <pt x="305" y="653" on="1"/>
        <pt x="305" y="-192" on="1"/>
      </contour>
    </TTGlyph>
    <TTGlyph name="parenleft" xMin="50" yMin="-222" xMax="270" yMax="792">
      <contour>
        <pt x="133" y="-95" on="0"/>
        <pt x="50" y="140" on="0"/>
        <pt x="50" y="429" on="0"/>
        <pt x="133" y="663" on="0"/>
        <pt x="214" y="792" on="1"/>
        <pt x="270" y="756" on="1"/>
        <pt x="205" y="637" on="0"/>
        <pt x="140" y="422" on="0"/>
        <pt x="140" y="150" on="0"/>
        <pt x="205" y="-63" on="0"/>
        <pt x="270" y="-186" on="1"/>
        <pt x="214" y="-222" on="1"/>
      </contour>
    </TTGlyph>
    <TTGlyph name="parenright" xMin="25" yMin="-222" xMax="245" yMax="792">
      <contour>
        <pt x="162" y="663" on="0"/>
        <pt x="245" y="429" on="0"/>
        <pt x="245" y="140" on="0"/>
        <pt x="162" y="-95" on="0"/>
        <pt x="81" y="-222" on="1"/>
        <pt x="25" y="-186" on="1"/>
        <pt x="90" y="-63" on="0"/>
        <pt x="155" y="150" on="0"/>
        <pt x="155" y="422" on="0"/>
        <pt x="90" y="637" on="0"/>
        <pt x="25" y="756" on="1"/>
        <pt x="81" y="792" on="1"/>
      </contour>
    </TTGlyph>
    <TTGlyph name="percent" xMin="70" yMin="-38" xMax="829" yMax="741">
      <contour>
        <pt x="384" y="413" on="0"/>
        <pt x="306" y="303" on="0"/>
        <pt x="149" y="303" on="0"/>
        <pt x="70" y="414" on="0"/>
        <pt x="70" y="608" on="0"/>
        <pt x="149" y="717" on="0"/>
        <pt x="306" y="717" on="0"/>
        <pt x="384" y="608" on="0"/>
      </contour>
      <contour>
        <pt x="150" y="375" on="0"/>
        <pt x="304" y="375" on="0"/>
        <pt x="304" y="646" on="0"/>
        <pt x="150" y="646" on="0"/>
      </contour>
      <contour>
        <pt x="829" y="101" on="0"/>
        <pt x="751" y="-9" on="0"/>
        <pt x="594" y="-9" on="0"/>
        <pt x="515" y="102" on="0"/>
        <pt x="515" y="296" on="0"/>
        <pt x="594" y="405" on="0"/>
        <pt x="751" y="405" on="0"/>
        <pt x="829" y="296" on="0"/>
      </contour>
      <contour>
        <pt x="595" y="63" on="0"/>
        <pt x="749" y="63" on="0"/>
        <pt x="749" y="334" on="0"/>
        <pt x="595" y="334" on="0"/>
      </contour>
      <contour>
        <pt x="266" y="-38" on="1"/>
        <pt x="196" y="2" on="1"/>
        <pt x="623" y="741" on="1"/>
        <pt x="693" y="701" on="1"/>
      </contour>
    </TTGlyph>
    <TTGlyph name="period" xMin="65" yMin="0" xMax="165" yMax="100">
      <contour>
        <pt x="65" y="0" on="1"/>
        <pt x="65" y="100" on="1"/>
        <pt x="165" y="100" on="1"/>
        <pt x="165" y="0" on="1"/>
      </contour>
    </TTGlyph>
    <TTGlyph name="periodcentered" xMin="88" yMin="251" xMax="188" yMax="351">
      <contour>
        <pt x="88" y="251" on="1"/>
        <pt x="88" y="351" on="1"/>
        <pt x="188" y="351" on="1"/>
        <pt x="188" y="251" on="1"/>
      </contour>
    </TTGlyph>
    <TTGlyph name="plus" xMin="90" yMin="71" xMax="557" yMax="542">
      <contour>
        <pt x="90" y="271" on="1"/>
        <pt x="90" y="343" on="1"/>
        <pt x="279" y="343" on="1"/>
        <pt x="279" y="542" on="1"/>
        <pt x="363" y="542" on="1"/>
        <pt x="363" y="343" on="1"/>
        <pt x="557" y="343" on="1"/>
        <pt x="557" y="271" on="1"/>
        <pt x="363" y="271" on="1"/>
        <pt x="363" y="71" on="1"/>
        <pt x="279" y="71" on="1"/>
        <pt x="279" y="271" on="1"/>
      </contour>
    </TTGlyph>
    <TTGlyph name="plusminus" xMin="86" yMin="0" xMax="553" yMax="581">
      <contour>
        <pt x="86" y="320" on="1"/>
        <pt x="86" y="392" on="1"/>
        <pt x="275" y="392" on="1"/>
        <pt x="275" y="581" on="1"/>
        <pt x="359" y="581" on="1"/>
        <pt x="359" y="392" on="1"/>
        <pt x="553" y="392" on="1"/>
        <pt x="553" y="320" on="1"/>
        <pt x="359" y="320" on="1"/>
        <pt x="359" y="130" on="1"/>
        <pt x="275" y="130" on="1"/>
        <pt x="275" y="320" on="1"/>
      </contour>
      <contour>
        <pt x="86" y="0" on="1"/>
        <pt x="86" y="72" on="1"/>
        <pt x="553" y="72" on="1"/>
        <pt x="553" y="0" on="1"/>
      </contour>
    </TTGlyph>
    <TTGlyph name="q" xMin="48" yMin="-245" xMax="508" yMax="523">
      <contour>
        <pt x="48" y="117" on="0"/>
        <pt x="48" y="369" on="0"/>
        <pt x="190" y="523" on="0"/>
        <pt x="422" y="523" on="0"/>
        <pt x="508" y="485" on="1"/>
        <pt x="508" y="-245" on="1"/>
        <pt x="414" y="-245" on="1"/>
        <pt x="414" y="53" on="1"/>
        <pt x="359" y="-8" on="0"/>
        <pt x="173" y="-8" on="0"/>
      </contour>
      <contour>
        <pt x="239" y="451" on="0"/>
        <pt x="141" y="341" on="0"/>
        <pt x="141" y="163" on="0"/>
        <pt x="217" y="64" on="0"/>
        <pt x="274" y="64" on="1"/>
        <pt x="370" y="64" on="0"/>
        <pt x="414" y="166" on="1"/>
        <pt x="414" y="436" on="1"/>
        <pt x="369" y="451" on="0"/>
        <pt x="315" y="451" on="1"/>
      </contour>
    </TTGlyph>
    <TTGlyph name="question" xMin="65" yMin="0" xMax="432" yMax="722">
      <contour>
        <pt x="139" y="154" on="1"/>
        <pt x="139" y="274" on="0"/>
        <pt x="178" y="336" on="1"/>
        <pt x="208" y="384" on="0"/>
        <pt x="258" y="417" on="1"/>
        <pt x="279" y="431" on="0"/>
        <pt x="296" y="446" on="1"/>
        <pt x="335" y="480" on="0"/>
        <pt x="335" y="538" on="1"/>
        <pt x="335" y="578" on="0"/>
        <pt x="276" y="635" on="0"/>
        <pt x="158" y="635" on="0"/>
        <pt x="78" y="609" on="1"/>
        <pt x="65" y="695" on="1"/>
        <pt x="141" y="722" on="0"/>
        <pt x="220" y="722" on="1"/>
        <pt x="322" y="722" on="0"/>
        <pt x="432" y="613" on="0"/>
        <pt x="432" y="538" on="1"/>
        <pt x="432" y="489" on="0"/>
        <pt x="402" y="419" on="0"/>
        <pt x="358" y="384" on="0"/>
        <pt x="305" y="341" on="0"/>
        <pt x="261" y="299" on="0"/>
        <pt x="231" y="214" on="0"/>
        <pt x="231" y="154" on="1"/>
      </contour>
      <contour>
        <pt x="139" y="0" on="1"/>
        <pt x="139" y="89" on="1"/>
        <pt x="231" y="89" on="1"/>
        <pt x="231" y="0" on="1"/>
      </contour>
    </TTGlyph>
    <TTGlyph name="questiondown" xMin="48" yMin="-208" xMax="415" yMax="513">
      <contour>
        <pt x="249" y="424" on="1"/>
        <pt x="249" y="513" on="1"/>
        <pt x="342" y="513" on="1"/>
        <pt x="342" y="424" on="1"/>
      </contour>
      <contour>
        <pt x="88" y="99" on="1"/>
        <pt x="106" y="118" on="0"/>
        <pt x="148" y="150" on="0"/>
        <pt x="191" y="185" on="0"/>
        <pt x="209" y="208" on="1"/>
        <pt x="249" y="258" on="0"/>
        <pt x="249" y="358" on="1"/>
        <pt x="342" y="358" on="1"/>
        <pt x="342" y="239" on="0"/>
        <pt x="303" y="177" on="1"/>
        <pt x="273" y="129" on="0"/>
        <pt x="223" y="96" on="1"/>
        <pt x="202" y="82" on="0"/>
        <pt x="185" y="67" on="1"/>
        <pt x="146" y="33" on="0"/>
        <pt x="146" y="-25" on="1"/>
        <pt x="146" y="-65" on="0"/>
        <pt x="204" y="-121" on="0"/>
        <pt x="328" y="-121" on="0"/>
        <pt x="401" y="-96" on="1"/>
        <pt x="415" y="-182" on="1"/>
        <pt x="343" y="-208" on="0"/>
        <pt x="157" y="-208" on="0"/>
        <pt x="48" y="-99" on="0"/>
        <pt x="48" y="57" on="0"/>
      </contour>
    </TTGlyph>
    <TTGlyph name="quotedbl" xMin="40" yMin="542" xMax="258" yMax="759">
      <contour>
        <pt x="186" y="542" on="1"/>
        <pt x="186" y="759" on="1"/>
        <pt x="258" y="759" on="1"/>
        <pt x="258" y="542" on="1"/>
      </contour>
      <contour>
        <pt x="40" y="542" on="1"/>
        <pt x="40" y="759" on="1"/>
        <pt x="112" y="759" on="1"/>
        <pt x="112" y="542" on="1"/>
      </contour>
    </TTGlyph>
    <TTGlyph name="quotedblbase" xMin="88" yMin="-113" xMax="355" yMax="107">
      <contour>
        <pt x="251" y="-102" on="1"/>
        <pt x="268" y="107" on="1"/>
        <pt x="355" y="107" on="1"/>
        <pt x="294" y="-113" on="1"/>
      </contour>
      <contour>
        <pt x="88" y="-102" on="1"/>
        <pt x="105" y="107" on="1"/>
        <pt x="192" y="107" on="1"/>
        <pt x="131" y="-113" on="1"/>
      </contour>
    </TTGlyph>
    <TTGlyph name="quotedblleft" xMin="43" yMin="542" xMax="313" yMax="759">
      <contour>
        <pt x="143" y="642" on="1"/>
        <pt x="143" y="542" on="1"/>
        <pt x="43" y="542" on="1"/>
        <pt x="43" y="622" on="1"/>
        <pt x="102" y="759" on="1"/>
        <pt x="147" y="759" on="1"/>
        <pt x="98" y="642" on="1"/>
      </contour>
      <contour>
        <pt x="309" y="642" on="1"/>
        <pt x="309" y="542" on="1"/>
        <pt x="209" y="542" on="1"/>
        <pt x="209" y="622" on="1"/>
        <pt x="268" y="759" on="1"/>
        <pt x="313" y="759" on="1"/>
        <pt x="264" y="642" on="1"/>
      </contour>
    </TTGlyph>
    <TTGlyph name="quotedblright" xMin="43" yMin="542" xMax="313" yMax="759">
      <contour>
        <pt x="213" y="659" on="1"/>
        <pt x="213" y="759" on="1"/>
        <pt x="313" y="759" on="1"/>
        <pt x="313" y="679" on="1"/>
        <pt x="254" y="542" on="1"/>
        <pt x="209" y="542" on="1"/>
        <pt x="258" y="659" on="1"/>
      </contour>
      <contour>
        <pt x="47" y="659" on="1"/>
        <pt x="47" y="759" on="1"/>
        <pt x="147" y="759" on="1"/>
        <pt x="147" y="679" on="1"/>
        <pt x="88" y="542" on="1"/>
        <pt x="43" y="542" on="1"/>
        <pt x="92" y="659" on="1"/>
      </contour>
    </TTGlyph>
    <TTGlyph name="quoteleft" xMin="43" yMin="542" xMax="147" yMax="759">
      <contour>
        <pt x="143" y="642" on="1"/>
        <pt x="143" y="542" on="1"/>
        <pt x="43" y="542" on="1"/>
        <pt x="43" y="622" on="1"/>
        <pt x="102" y="759" on="1"/>
        <pt x="147" y="759" on="1"/>
        <pt x="98" y="642" on="1"/>
      </contour>
    </TTGlyph>
    <TTGlyph name="quoteright" xMin="43" yMin="542" xMax="147" yMax="759">
      <contour>
        <pt x="47" y="659" on="1"/>
        <pt x="47" y="759" on="1"/>
        <pt x="147" y="759" on="1"/>
        <pt x="147" y="679" on="1"/>
        <pt x="88" y="542" on="1"/>
        <pt x="43" y="542" on="1"/>
        <pt x="92" y="659" on="1"/>
      </contour>
    </TTGlyph>
    <TTGlyph name="quotesinglbase" xMin="88" yMin="-113" xMax="192" yMax="107">
      <contour>
        <pt x="88" y="-102" on="1"/>
        <pt x="105" y="107" on="1"/>
        <pt x="192" y="107" on="1"/>
        <pt x="131" y="-113" on="1"/>
      </contour>
    </TTGlyph>
    <TTGlyph name="quotesingle" xMin="30" yMin="542" xMax="102" yMax="759">
      <contour>
        <pt x="30" y="542" on="1"/>
        <pt x="30" y="759" on="1"/>
        <pt x="102" y="759" on="1"/>
        <pt x="102" y="542" on="1"/>
      </contour>
    </TTGlyph>
    <TTGlyph name="r" xMin="85" yMin="0" xMax="380" yMax="523">
      <contour>
        <pt x="85" y="0" on="1"/>
        <pt x="85" y="514" on="1"/>
        <pt x="161" y="514" on="1"/>
        <pt x="172" y="443" on="1"/>
        <pt x="226" y="523" on="0"/>
        <pt x="314" y="523" on="1"/>
        <pt x="342" y="523" on="0"/>
        <pt x="380" y="513" on="1"/>
        <pt x="365" y="429" on="1"/>
        <pt x="322" y="439" on="0"/>
        <pt x="289" y="439" on="1"/>
        <pt x="220" y="439" on="0"/>
        <pt x="179" y="367" on="1"/>
        <pt x="179" y="0" on="1"/>
      </contour>
    </TTGlyph>
    <TTGlyph name="rcaron" xMin="71" yMin="0" xMax="399" yMax="742">
      <contour>
        <pt x="85" y="0" on="1"/>
        <pt x="85" y="514" on="1"/>
        <pt x="161" y="514" on="1"/>
        <pt x="172" y="443" on="1"/>
        <pt x="226" y="523" on="0"/>
        <pt x="314" y="523" on="1"/>
        <pt x="342" y="523" on="0"/>
        <pt x="380" y="513" on="1"/>
        <pt x="365" y="429" on="1"/>
        <pt x="322" y="439" on="0"/>
        <pt x="289" y="439" on="1"/>
        <pt x="220" y="439" on="0"/>
        <pt x="179" y="367" on="1"/>
        <pt x="179" y="0" on="1"/>
      </contour>
      <contour>
        <pt x="235" y="650" on="1"/>
        <pt x="369" y="742" on="1"/>
        <pt x="399" y="701" on="1"/>
        <pt x="246" y="574" on="1"/>
        <pt x="224" y="574" on="1"/>
        <pt x="71" y="701" on="1"/>
        <pt x="98" y="742" on="1"/>
      </contour>
    </TTGlyph>
    <TTGlyph name="rcommaaccent" xMin="81" yMin="-260" xMax="380" yMax="523">
      <contour>
        <pt x="85" y="0" on="1"/>
        <pt x="85" y="514" on="1"/>
        <pt x="161" y="514" on="1"/>
        <pt x="172" y="443" on="1"/>
        <pt x="226" y="523" on="0"/>
        <pt x="314" y="523" on="1"/>
        <pt x="342" y="523" on="0"/>
        <pt x="380" y="513" on="1"/>
        <pt x="365" y="429" on="1"/>
        <pt x="322" y="439" on="0"/>
        <pt x="289" y="439" on="1"/>
        <pt x="220" y="439" on="0"/>
        <pt x="179" y="367" on="1"/>
        <pt x="179" y="0" on="1"/>
      </contour>
      <contour>
        <pt x="81" y="-42" on="1"/>
        <pt x="181" y="-42" on="1"/>
        <pt x="181" y="-122" on="1"/>
        <pt x="162" y="-260" on="1"/>
        <pt x="126" y="-260" on="1"/>
        <pt x="126" y="-142" on="1"/>
        <pt x="81" y="-142" on="1"/>
      </contour>
    </TTGlyph>
    <TTGlyph name="registered" xMin="35" yMin="178" xMax="576" yMax="717">
      <contour>
        <pt x="419" y="333" on="1"/>
        <pt x="375" y="309" on="1"/>
        <pt x="307" y="423" on="1"/>
        <pt x="268" y="423" on="1"/>
        <pt x="268" y="315" on="1"/>
        <pt x="217" y="315" on="1"/>
        <pt x="217" y="594" on="1"/>
        <pt x="310" y="594" on="1"/>
        <pt x="360" y="594" on="0"/>
        <pt x="410" y="549" on="0"/>
        <pt x="410" y="509" on="1"/>
        <pt x="410" y="450" on="0"/>
        <pt x="359" y="431" on="1"/>
      </contour>
      <contour>
        <pt x="268" y="549" on="1"/>
        <pt x="268" y="468" on="1"/>
        <pt x="310" y="468" on="1"/>
        <pt x="357" y="468" on="0"/>
        <pt x="357" y="549" on="0"/>
        <pt x="310" y="549" on="1"/>
      </contour>
      <contour>
        <pt x="192" y="178" on="0"/>
        <pt x="35" y="335" on="0"/>
        <pt x="35" y="560" on="0"/>
        <pt x="193" y="717" on="0"/>
        <pt x="419" y="717" on="0"/>
        <pt x="576" y="562" on="0"/>
        <pt x="576" y="337" on="0"/>
        <pt x="418" y="178" on="0"/>
      </contour>
      <contour>
        <pt x="220" y="659" on="0"/>
        <pt x="99" y="536" on="0"/>
        <pt x="99" y="363" on="0"/>
        <pt x="220" y="238" on="0"/>
        <pt x="392" y="238" on="0"/>
        <pt x="513" y="361" on="0"/>
        <pt x="513" y="535" on="0"/>
        <pt x="392" y="659" on="0"/>
      </contour>
    </TTGlyph>
    <TTGlyph name="ring" xMin="20" yMin="557" xMax="218" yMax="755">
      <contour>
        <pt x="20" y="615" on="0"/>
        <pt x="20" y="697" on="0"/>
        <pt x="78" y="755" on="0"/>
        <pt x="160" y="755" on="0"/>
        <pt x="218" y="697" on="0"/>
        <pt x="218" y="615" on="0"/>
        <pt x="160" y="557" on="0"/>
        <pt x="78" y="557" on="0"/>
      </contour>
      <contour>
        <pt x="169" y="633" on="0"/>
        <pt x="169" y="679" on="0"/>
        <pt x="141" y="711" on="0"/>
        <pt x="97" y="711" on="0"/>
        <pt x="70" y="680" on="0"/>
        <pt x="70" y="633" on="0"/>
        <pt x="97" y="602" on="0"/>
        <pt x="141" y="602" on="0"/>
      </contour>
    </TTGlyph>
    <TTGlyph name="s" xMin="50" yMin="-9" xMax="414" yMax="523">
      <contour>
        <pt x="50" y="30" on="1"/>
        <pt x="79" y="106" on="1"/>
        <pt x="166" y="69" on="0"/>
        <pt x="218" y="69" on="1"/>
        <pt x="320" y="69" on="0"/>
        <pt x="320" y="144" on="1"/>
        <pt x="320" y="174" on="0"/>
        <pt x="298" y="188" on="1"/>
        <pt x="273" y="204" on="0"/>
        <pt x="222" y="222" on="0"/>
        <pt x="208" y="228" on="0"/>
        <pt x="171" y="241" on="0"/>
        <pt x="154" y="248" on="0"/>
        <pt x="123" y="264" on="0"/>
        <pt x="107" y="277" on="0"/>
        <pt x="85" y="299" on="0"/>
        <pt x="80" y="311" on="1"/>
        <pt x="67" y="342" on="0"/>
        <pt x="67" y="377" on="1"/>
        <pt x="67" y="439" on="0"/>
        <pt x="163" y="523" on="0"/>
        <pt x="256" y="523" on="1"/>
        <pt x="318" y="523" on="0"/>
        <pt x="402" y="490" on="1"/>
        <pt x="377" y="416" on="1"/>
        <pt x="303" y="445" on="0"/>
        <pt x="209" y="445" on="0"/>
        <pt x="161" y="408" on="0"/>
        <pt x="161" y="378" on="1"/>
        <pt x="161" y="357" on="0"/>
        <pt x="178" y="339" on="0"/>
        <pt x="188" y="330" on="0"/>
        <pt x="211" y="320" on="0"/>
        <pt x="218" y="317" on="1"/>
        <pt x="238" y="308" on="0"/>
        <pt x="268" y="298" on="0"/>
        <pt x="311" y="283" on="0"/>
        <pt x="330" y="275" on="0"/>
        <pt x="366" y="257" on="0"/>
        <pt x="384" y="237" on="0"/>
        <pt x="394" y="223" on="1"/>
        <pt x="414" y="197" on="0"/>
        <pt x="414" y="146" on="1"/>
        <pt x="414" y="72" on="0"/>
        <pt x="309" y="-9" on="0"/>
        <pt x="142" y="-9" on="0"/>
      </contour>
    </TTGlyph>
    <TTGlyph name="section" xMin="50" yMin="-191" xMax="407" yMax="772">
      <contour>
        <pt x="95" y="-177" on="1"/>
        <pt x="105" y="-106" on="1"/>
        <pt x="138" y="-115" on="0"/>
        <pt x="178" y="-115" on="1"/>
        <pt x="267" y="-115" on="0"/>
        <pt x="267" y="-30" on="1"/>
        <pt x="267" y="23" on="0"/>
        <pt x="190" y="90" on="1"/>
        <pt x="158" y="117" on="0"/>
        <pt x="95" y="177" on="0"/>
        <pt x="50" y="259" on="0"/>
        <pt x="50" y="306" on="1"/>
        <pt x="50" y="416" on="0"/>
        <pt x="144" y="476" on="1"/>
        <pt x="89" y="540" on="0"/>
        <pt x="89" y="678" on="0"/>
        <pt x="177" y="772" on="0"/>
        <pt x="266" y="772" on="1"/>
        <pt x="313" y="772" on="0"/>
        <pt x="362" y="758" on="1"/>
        <pt x="358" y="722" on="0"/>
        <pt x="352" y="688" on="1"/>
        <pt x="314" y="697" on="0"/>
        <pt x="279" y="697" on="1"/>
        <pt x="189" y="697" on="0"/>
        <pt x="189" y="612" on="1"/>
        <pt x="189" y="561" on="0"/>
        <pt x="266" y="492" on="1"/>
        <pt x="298" y="464" on="0"/>
        <pt x="362" y="402" on="0"/>
        <pt x="407" y="319" on="0"/>
        <pt x="407" y="274" on="1"/>
        <pt x="407" y="165" on="0"/>
        <pt x="313" y="105" on="1"/>
        <pt x="367" y="41" on="0"/>
        <pt x="367" y="-98" on="0"/>
        <pt x="279" y="-191" on="0"/>
        <pt x="191" y="-191" on="1"/>
        <pt x="149" y="-191" on="0"/>
      </contour>
      <contour>
        <pt x="176" y="444" on="1"/>
        <pt x="134" y="389" on="0"/>
        <pt x="134" y="331" on="1"/>
        <pt x="134" y="285" on="0"/>
        <pt x="175" y="239" on="1"/>
        <pt x="209" y="201" on="0"/>
        <pt x="281" y="137" on="1"/>
        <pt x="323" y="191" on="0"/>
        <pt x="323" y="294" on="0"/>
        <pt x="258" y="372" on="0"/>
      </contour>
    </TTGlyph>
    <TTGlyph name="semicolon" xMin="70" yMin="-118" xMax="171" yMax="420">
      <contour>
        <pt x="70" y="0" on="1"/>
        <pt x="70" y="100" on="1"/>
        <pt x="170" y="100" on="1"/>
        <pt x="170" y="20" on="1"/>
        <pt x="151" y="-118" on="1"/>
        <pt x="115" y="-118" on="1"/>
        <pt x="115" y="0" on="1"/>
      </contour>
      <contour>
        <pt x="71" y="320" on="1"/>
        <pt x="71" y="420" on="1"/>
        <pt x="171" y="420" on="1"/>
        <pt x="171" y="320" on="1"/>
      </contour>
    </TTGlyph>
    <TTGlyph name="seven" xMin="18" yMin="0" xMax="488" yMax="708">
      <contour>
        <pt x="106" y="0" on="1"/>
        <pt x="389" y="628" on="1"/>
        <pt x="18" y="628" on="1"/>
        <pt x="18" y="708" on="1"/>
        <pt x="488" y="708" on="1"/>
        <pt x="488" y="637" on="1"/>
        <pt x="202" y="0" on="1"/>
      </contour>
    </TTGlyph>
    <TTGlyph name="six" xMin="68" yMin="-8" xMax="559" yMax="716">
      <contour>
        <pt x="531" y="675" on="1"/>
        <pt x="492" y="608" on="1"/>
        <pt x="440" y="636" on="0"/>
        <pt x="377" y="636" on="1"/>
        <pt x="277" y="636" on="0"/>
        <pt x="175" y="507" on="0"/>
        <pt x="169" y="374" on="1"/>
        <pt x="243" y="442" on="0"/>
        <pt x="440" y="442" on="0"/>
        <pt x="559" y="322" on="0"/>
        <pt x="559" y="124" on="0"/>
        <pt x="426" y="-8" on="0"/>
        <pt x="321" y="-8" on="1"/>
        <pt x="68" y="-8" on="0"/>
        <pt x="68" y="333" on="1"/>
        <pt x="68" y="521" on="0"/>
        <pt x="225" y="716" on="0"/>
        <pt x="376" y="716" on="1"/>
        <pt x="461" y="716" on="0"/>
      </contour>
      <contour>
        <pt x="327" y="362" on="1"/>
        <pt x="284" y="362" on="0"/>
        <pt x="199" y="327" on="0"/>
        <pt x="169" y="297" on="1"/>
        <pt x="173" y="180" on="0"/>
        <pt x="246" y="74" on="0"/>
        <pt x="322" y="74" on="1"/>
        <pt x="380" y="74" on="0"/>
        <pt x="459" y="162" on="0"/>
        <pt x="459" y="290" on="0"/>
        <pt x="389" y="362" on="0"/>
      </contour>
    </TTGlyph>
    <TTGlyph name="slash" xMin="22" yMin="-61" xMax="361" yMax="742">
      <contour>
        <pt x="22" y="-61" on="1"/>
        <pt x="279" y="742" on="1"/>
        <pt x="361" y="742" on="1"/>
        <pt x="104" y="-61" on="1"/>
      </contour>
    </TTGlyph>
    <TTGlyph name="sterling" xMin="61" yMin="0" xMax="517" yMax="716">
      <contour>
        <pt x="517" y="610" on="1"/>
        <pt x="446" y="575" on="1"/>
        <pt x="425" y="636" on="0"/>
        <pt x="340" y="636" on="1"/>
        <pt x="282" y="636" on="0"/>
        <pt x="215" y="573" on="0"/>
        <pt x="215" y="519" on="1"/>
        <pt x="215" y="482" on="0"/>
        <pt x="244" y="401" on="0"/>
        <pt x="248" y="389" on="1"/>
        <pt x="407" y="389" on="1"/>
        <pt x="407" y="317" on="1"/>
        <pt x="259" y="317" on="1"/>
        <pt x="260" y="310" on="0"/>
        <pt x="260" y="297" on="1"/>
        <pt x="260" y="234" on="0"/>
        <pt x="202" y="111" on="0"/>
        <pt x="163" y="80" on="1"/>
        <pt x="512" y="80" on="1"/>
        <pt x="512" y="0" on="1"/>
        <pt x="73" y="0" on="1"/>
        <pt x="73" y="74" on="1"/>
        <pt x="160" y="162" on="0"/>
        <pt x="160" y="297" on="1"/>
        <pt x="160" y="310" on="0"/>
        <pt x="159" y="317" on="1"/>
        <pt x="61" y="317" on="1"/>
        <pt x="61" y="389" on="1"/>
        <pt x="149" y="389" on="1"/>
        <pt x="147" y="397" on="0"/>
        <pt x="138" y="426" on="1"/>
        <pt x="121" y="478" on="0"/>
        <pt x="121" y="523" on="1"/>
        <pt x="121" y="612" on="0"/>
        <pt x="240" y="716" on="0"/>
        <pt x="340" y="716" on="1"/>
        <pt x="406" y="716" on="0"/>
        <pt x="498" y="660" on="0"/>
      </contour>
    </TTGlyph>
    <TTGlyph name="t" xMin="29" yMin="-6" xMax="378" yMax="664">
      <contour>
        <pt x="119" y="153" on="1"/>
        <pt x="119" y="442" on="1"/>
        <pt x="29" y="442" on="1"/>
        <pt x="29" y="514" on="1"/>
        <pt x="127" y="514" on="1"/>
        <pt x="143" y="664" on="1"/>
        <pt x="213" y="664" on="1"/>
        <pt x="213" y="514" on="1"/>
        <pt x="370" y="514" on="1"/>
        <pt x="370" y="442" on="1"/>
        <pt x="213" y="442" on="1"/>
        <pt x="213" y="158" on="1"/>
        <pt x="213" y="69" on="0"/>
        <pt x="288" y="69" on="1"/>
        <pt x="318" y="69" on="0"/>
        <pt x="362" y="83" on="1"/>
        <pt x="378" y="17" on="1"/>
        <pt x="323" y="-6" on="0"/>
        <pt x="204" y="-6" on="0"/>
        <pt x="119" y="74" on="0"/>
      </contour>
    </TTGlyph>
    <TTGlyph name="thorn" xMin="82" yMin="-245" xMax="547" yMax="758">
      <contour>
        <pt x="428" y="523" on="0"/>
        <pt x="547" y="390" on="0"/>
        <pt x="547" y="137" on="0"/>
        <pt x="406" y="-8" on="0"/>
        <pt x="283" y="-8" on="1"/>
        <pt x="227" y="-8" on="0"/>
        <pt x="176" y="5" on="1"/>
        <pt x="176" y="-245" on="1"/>
        <pt x="82" y="-245" on="1"/>
        <pt x="82" y="758" on="1"/>
        <pt x="176" y="758" on="1"/>
        <pt x="176" y="459" on="1"/>
        <pt x="231" y="523" on="0"/>
      </contour>
      <contour>
        <pt x="451" y="354" on="0"/>
        <pt x="380" y="449" on="0"/>
        <pt x="264" y="449" on="0"/>
        <pt x="191" y="395" on="0"/>
        <pt x="176" y="347" on="1"/>
        <pt x="176" y="80" on="1"/>
        <pt x="227" y="66" on="0"/>
        <pt x="282" y="66" on="1"/>
        <pt x="361" y="66" on="0"/>
        <pt x="451" y="171" on="0"/>
      </contour>
    </TTGlyph>
    <TTGlyph name="three" xMin="42" yMin="-10" xMax="518" yMax="716">
      <contour>
        <pt x="42" y="97" on="1"/>
        <pt x="99" y="155" on="1"/>
        <pt x="143" y="107" on="0"/>
        <pt x="217" y="70" on="0"/>
        <pt x="340" y="70" on="0"/>
        <pt x="418" y="139" on="0"/>
        <pt x="418" y="203" on="1"/>
        <pt x="418" y="332" on="0"/>
        <pt x="250" y="332" on="1"/>
        <pt x="199" y="332" on="1"/>
        <pt x="199" y="404" on="1"/>
        <pt x="244" y="404" on="1"/>
        <pt x="321" y="405" on="0"/>
        <pt x="403" y="472" on="0"/>
        <pt x="403" y="535" on="1"/>
        <pt x="403" y="581" on="0"/>
        <pt x="335" y="636" on="0"/>
        <pt x="218" y="636" on="0"/>
        <pt x="145" y="594" on="0"/>
        <pt x="117" y="541" on="1"/>
        <pt x="48" y="578" on="1"/>
        <pt x="73" y="637" on="0"/>
        <pt x="193" y="716" on="0"/>
        <pt x="381" y="716" on="0"/>
        <pt x="503" y="618" on="0"/>
        <pt x="503" y="535" on="1"/>
        <pt x="503" y="420" on="0"/>
        <pt x="382" y="373" on="1"/>
        <pt x="518" y="332" on="0"/>
        <pt x="518" y="194" on="1"/>
        <pt x="518" y="102" on="0"/>
        <pt x="385" y="-10" on="0"/>
        <pt x="276" y="-10" on="1"/>
        <pt x="132" y="-10" on="0"/>
      </contour>
    </TTGlyph>
    <TTGlyph name="threequarters" xMin="76" yMin="-229" xMax="543" yMax="812">
      <contour>
        <pt x="117" y="-134" on="1"/>
        <pt x="117" y="-86" on="1"/>
        <pt x="306" y="201" on="1"/>
        <pt x="407" y="201" on="1"/>
        <pt x="407" y="-70" on="1"/>
        <pt x="455" y="-70" on="1"/>
        <pt x="455" y="-134" on="1"/>
        <pt x="407" y="-134" on="1"/>
        <pt x="407" y="-229" on="1"/>
        <pt x="334" y="-229" on="1"/>
        <pt x="334" y="-134" on="1"/>
      </contour>
      <contour>
        <pt x="206" y="-70" on="1"/>
        <pt x="334" y="-70" on="1"/>
        <pt x="334" y="129" on="1"/>
      </contour>
      <contour>
        <pt x="165" y="444" on="1"/>
        <pt x="212" y="492" on="1"/>
        <pt x="240" y="461" on="0"/>
        <pt x="283" y="437" on="0"/>
        <pt x="345" y="437" on="0"/>
        <pt x="385" y="472" on="0"/>
        <pt x="385" y="504" on="1"/>
        <pt x="385" y="571" on="0"/>
        <pt x="299" y="571" on="1"/>
        <pt x="258" y="571" on="1"/>
        <pt x="258" y="631" on="1"/>
        <pt x="295" y="631" on="1"/>
        <pt x="333" y="632" on="0"/>
        <pt x="376" y="667" on="0"/>
        <pt x="376" y="720" on="0"/>
        <pt x="343" y="747" on="0"/>
        <pt x="284" y="747" on="0"/>
        <pt x="245" y="721" on="0"/>
        <pt x="227" y="688" on="1"/>
        <pt x="169" y="719" on="1"/>
        <pt x="186" y="759" on="0"/>
        <pt x="263" y="812" on="0"/>
        <pt x="380" y="812" on="0"/>
        <pt x="456" y="750" on="0"/>
        <pt x="456" y="636" on="0"/>
        <pt x="400" y="605" on="1"/>
        <pt x="464" y="577" on="0"/>
        <pt x="464" y="500" on="1"/>
        <pt x="464" y="442" on="0"/>
        <pt x="382" y="372" on="0"/>
        <pt x="314" y="372" on="1"/>
        <pt x="226" y="372" on="0"/>
      </contour>
      <contour>
        <pt x="76" y="257" on="1"/>
        <pt x="76" y="329" on="1"/>
        <pt x="543" y="329" on="1"/>
        <pt x="543" y="257" on="1"/>
      </contour>
    </TTGlyph>
    <TTGlyph name="threesuperior" xMin="32" yMin="372" xMax="331" yMax="812">
      <contour>
        <pt x="32" y="444" on="1"/>
        <pt x="79" y="492" on="1"/>
        <pt x="107" y="461" on="0"/>
        <pt x="150" y="437" on="0"/>
        <pt x="212" y="437" on="0"/>
        <pt x="252" y="472" on="0"/>
        <pt x="252" y="504" on="1"/>
        <pt x="252" y="571" on="0"/>
        <pt x="166" y="571" on="1"/>
        <pt x="125" y="571" on="1"/>
        <pt x="125" y="631" on="1"/>
        <pt x="162" y="631" on="1"/>
        <pt x="200" y="632" on="0"/>
        <pt x="243" y="667" on="0"/>
        <pt x="243" y="720" on="0"/>
        <pt x="210" y="747" on="0"/>
        <pt x="151" y="747" on="0"/>
        <pt x="112" y="721" on="0"/>
        <pt x="94" y="688" on="1"/>
        <pt x="36" y="719" on="1"/>
        <pt x="53" y="759" on="0"/>
        <pt x="130" y="812" on="0"/>
        <pt x="247" y="812" on="0"/>
        <pt x="323" y="750" on="0"/>
        <pt x="323" y="636" on="0"/>
        <pt x="267" y="605" on="1"/>
        <pt x="331" y="577" on="0"/>
        <pt x="331" y="500" on="1"/>
        <pt x="331" y="442" on="0"/>
        <pt x="249" y="372" on="0"/>
        <pt x="181" y="372" on="1"/>
        <pt x="93" y="372" on="0"/>
      </contour>
    </TTGlyph>
    <TTGlyph name="tilde" xMin="89" yMin="590" xMax="449" yMax="718">
      <contour>
        <pt x="89" y="599" on="1"/>
        <pt x="89" y="653" on="0"/>
        <pt x="150" y="718" on="0"/>
        <pt x="202" y="718" on="1"/>
        <pt x="250" y="718" on="0"/>
        <pt x="313" y="655" on="0"/>
        <pt x="339" y="655" on="1"/>
        <pt x="390" y="655" on="0"/>
        <pt x="390" y="709" on="1"/>
        <pt x="449" y="709" on="1"/>
        <pt x="449" y="655" on="0"/>
        <pt x="390" y="590" on="0"/>
        <pt x="341" y="590" on="1"/>
        <pt x="309" y="590" on="0"/>
        <pt x="261" y="622" on="0"/>
        <pt x="222" y="654" on="0"/>
        <pt x="177" y="654" on="0"/>
        <pt x="148" y="624" on="0"/>
        <pt x="148" y="599" on="1"/>
      </contour>
    </TTGlyph>
    <TTGlyph name="two" xMin="50" yMin="0" xMax="527" yMax="716">
      <contour>
        <pt x="128" y="539" on="1"/>
        <pt x="52" y="574" on="1"/>
        <pt x="78" y="641" on="0"/>
        <pt x="202" y="716" on="0"/>
        <pt x="288" y="716" on="1"/>
        <pt x="395" y="716" on="0"/>
        <pt x="515" y="600" on="0"/>
        <pt x="515" y="392" on="0"/>
        <pt x="360" y="196" on="0"/>
        <pt x="200" y="80" on="1"/>
        <pt x="527" y="80" on="1"/>
        <pt x="527" y="0" on="1"/>
        <pt x="50" y="0" on="1"/>
        <pt x="50" y="67" on="1"/>
        <pt x="247" y="207" on="0"/>
        <pt x="415" y="397" on="0"/>
        <pt x="415" y="492" on="1"/>
        <pt x="415" y="560" on="0"/>
        <pt x="347" y="636" on="0"/>
        <pt x="231" y="636" on="0"/>
        <pt x="155" y="590" on="0"/>
      </contour>
    </TTGlyph>
    <TTGlyph name="twosuperior" xMin="36" yMin="378" xMax="337" yMax="812">
      <contour>
        <pt x="98" y="687" on="1"/>
        <pt x="36" y="716" on="1"/>
        <pt x="53" y="762" on="0"/>
        <pt x="132" y="812" on="0"/>
        <pt x="252" y="812" on="0"/>
        <pt x="327" y="740" on="0"/>
        <pt x="327" y="616" on="0"/>
        <pt x="247" y="505" on="0"/>
        <pt x="164" y="443" on="1"/>
        <pt x="337" y="443" on="1"/>
        <pt x="337" y="378" on="1"/>
        <pt x="37" y="378" on="1"/>
        <pt x="37" y="430" on="1"/>
        <pt x="151" y="512" on="0"/>
        <pt x="247" y="620" on="0"/>
        <pt x="247" y="673" on="1"/>
        <pt x="247" y="708" on="0"/>
        <pt x="214" y="747" on="0"/>
        <pt x="185" y="747" on="1"/>
        <pt x="131" y="747" on="0"/>
      </contour>
    </TTGlyph>
    <TTGlyph name="u" xMin="77" yMin="-9" xMax="514" yMax="514">
      <contour>
        <pt x="77" y="174" on="1"/>
        <pt x="77" y="514" on="1"/>
        <pt x="171" y="514" on="1"/>
        <pt x="171" y="181" on="1"/>
        <pt x="171" y="120" on="0"/>
        <pt x="218" y="65" on="0"/>
        <pt x="270" y="65" on="1"/>
        <pt x="366" y="65" on="0"/>
        <pt x="420" y="145" on="1"/>
        <pt x="420" y="514" on="1"/>
        <pt x="514" y="514" on="1"/>
        <pt x="514" y="0" on="1"/>
        <pt x="437" y="0" on="1"/>
        <pt x="426" y="71" on="1"/>
        <pt x="359" y="-9" on="0"/>
        <pt x="252" y="-9" on="1"/>
        <pt x="165" y="-9" on="0"/>
        <pt x="77" y="84" on="0"/>
      </contour>
    </TTGlyph>
    <TTGlyph name="uacute" xMin="77" yMin="-9" xMax="514" yMax="765">
      <contour>
        <pt x="77" y="174" on="1"/>
        <pt x="77" y="514" on="1"/>
        <pt x="171" y="514" on="1"/>
        <pt x="171" y="181" on="1"/>
        <pt x="171" y="120" on="0"/>
        <pt x="218" y="65" on="0"/>
        <pt x="270" y="65" on="1"/>
        <pt x="366" y="65" on="0"/>
        <pt x="420" y="145" on="1"/>
        <pt x="420" y="514" on="1"/>
        <pt x="514" y="514" on="1"/>
        <pt x="514" y="0" on="1"/>
        <pt x="437" y="0" on="1"/>
        <pt x="426" y="71" on="1"/>
        <pt x="359" y="-9" on="0"/>
        <pt x="252" y="-9" on="1"/>
        <pt x="165" y="-9" on="0"/>
        <pt x="77" y="84" on="0"/>
      </contour>
      <contour>
        <pt x="202" y="601" on="1"/>
        <pt x="335" y="765" on="1"/>
        <pt x="395" y="703" on="1"/>
        <pt x="239" y="567" on="1"/>
      </contour>
    </TTGlyph>
    <TTGlyph name="ucircumflex" xMin="77" yMin="-9" xMax="514" yMax="742">
      <contour>
        <pt x="77" y="174" on="1"/>
        <pt x="77" y="514" on="1"/>
        <pt x="171" y="514" on="1"/>
        <pt x="171" y="181" on="1"/>
        <pt x="171" y="120" on="0"/>
        <pt x="218" y="65" on="0"/>
        <pt x="270" y="65" on="1"/>
        <pt x="366" y="65" on="0"/>
        <pt x="420" y="145" on="1"/>
        <pt x="420" y="514" on="1"/>
        <pt x="514" y="514" on="1"/>
        <pt x="514" y="0" on="1"/>
        <pt x="437" y="0" on="1"/>
        <pt x="426" y="71" on="1"/>
        <pt x="359" y="-9" on="0"/>
        <pt x="252" y="-9" on="1"/>
        <pt x="165" y="-9" on="0"/>
        <pt x="77" y="84" on="0"/>
      </contour>
      <contour>
        <pt x="286" y="742" on="1"/>
        <pt x="308" y="742" on="1"/>
        <pt x="461" y="615" on="1"/>
        <pt x="431" y="574" on="1"/>
        <pt x="297" y="666" on="1"/>
        <pt x="160" y="574" on="1"/>
        <pt x="133" y="615" on="1"/>
      </contour>
    </TTGlyph>
    <TTGlyph name="udieresis" xMin="77" yMin="-9" xMax="514" yMax="716">
      <contour>
        <pt x="77" y="174" on="1"/>
        <pt x="77" y="514" on="1"/>
        <pt x="171" y="514" on="1"/>
        <pt x="171" y="181" on="1"/>
        <pt x="171" y="120" on="0"/>
        <pt x="218" y="65" on="0"/>
        <pt x="270" y="65" on="1"/>
        <pt x="366" y="65" on="0"/>
        <pt x="420" y="145" on="1"/>
        <pt x="420" y="514" on="1"/>
        <pt x="514" y="514" on="1"/>
        <pt x="514" y="0" on="1"/>
        <pt x="437" y="0" on="1"/>
        <pt x="426" y="71" on="1"/>
        <pt x="359" y="-9" on="0"/>
        <pt x="252" y="-9" on="1"/>
        <pt x="165" y="-9" on="0"/>
        <pt x="77" y="84" on="0"/>
      </contour>
      <contour>
        <pt x="160" y="716" on="1"/>
        <pt x="253" y="716" on="1"/>
        <pt x="253" y="623" on="1"/>
        <pt x="160" y="623" on="1"/>
      </contour>
      <contour>
        <pt x="342" y="716" on="1"/>
        <pt x="434" y="716" on="1"/>
        <pt x="434" y="623" on="1"/>
        <pt x="342" y="623" on="1"/>
      </contour>
    </TTGlyph>
    <TTGlyph name="ugrave" xMin="77" yMin="-9" xMax="514" yMax="765">
      <contour>
        <pt x="77" y="174" on="1"/>
        <pt x="77" y="514" on="1"/>
        <pt x="171" y="514" on="1"/>
        <pt x="171" y="181" on="1"/>
        <pt x="171" y="120" on="0"/>
        <pt x="218" y="65" on="0"/>
        <pt x="270" y="65" on="1"/>
        <pt x="366" y="65" on="0"/>
        <pt x="420" y="145" on="1"/>
        <pt x="420" y="514" on="1"/>
        <pt x="514" y="514" on="1"/>
        <pt x="514" y="0" on="1"/>
        <pt x="437" y="0" on="1"/>
        <pt x="426" y="71" on="1"/>
        <pt x="359" y="-9" on="0"/>
        <pt x="252" y="-9" on="1"/>
        <pt x="165" y="-9" on="0"/>
        <pt x="77" y="84" on="0"/>
      </contour>
      <contour>
        <pt x="176" y="703" on="1"/>
        <pt x="236" y="765" on="1"/>
        <pt x="369" y="601" on="1"/>
        <pt x="332" y="567" on="1"/>
      </contour>
    </TTGlyph>
    <TTGlyph name="underscore" xMin="0" yMin="-132" xMax="510" yMax="-50">
      <contour>
        <pt x="0" y="-50" on="1"/>
        <pt x="510" y="-50" on="1"/>
        <pt x="510" y="-132" on="1"/>
        <pt x="0" y="-132" on="1"/>
      </contour>
    </TTGlyph>
    <TTGlyph name="uni00AD" xMin="50" yMin="279" xMax="417" yMax="359">
      <contour>
        <pt x="50" y="279" on="1"/>
        <pt x="50" y="359" on="1"/>
        <pt x="417" y="359" on="1"/>
        <pt x="417" y="279" on="1"/>
      </contour>
    </TTGlyph>
    <TTGlyph name="v" xMin="11" yMin="0" xMax="492" yMax="514">
      <contour>
        <pt x="193" y="0" on="1"/>
        <pt x="11" y="514" on="1"/>
        <pt x="108" y="514" on="1"/>
        <pt x="255" y="84" on="1"/>
        <pt x="401" y="514" on="1"/>
        <pt x="492" y="514" on="1"/>
        <pt x="312" y="0" on="1"/>
      </contour>
    </TTGlyph>
    <TTGlyph name="w" xMin="28" yMin="0" xMax="768" yMax="514">
      <contour>
        <pt x="172" y="0" on="1"/>
        <pt x="28" y="514" on="1"/>
        <pt x="122" y="514" on="1"/>
        <pt x="237" y="90" on="1"/>
        <pt x="349" y="514" on="1"/>
        <pt x="443" y="514" on="1"/>
        <pt x="558" y="90" on="1"/>
        <pt x="674" y="514" on="1"/>
        <pt x="768" y="514" on="1"/>
        <pt x="624" y="0" on="1"/>
        <pt x="498" y="0" on="1"/>
        <pt x="396" y="385" on="1"/>
        <pt x="296" y="0" on="1"/>
      </contour>
    </TTGlyph>
    <TTGlyph name="x" xMin="9" yMin="0" xMax="494" yMax="514">
      <contour>
        <pt x="9" y="0" on="1"/>
        <pt x="196" y="266" on="1"/>
        <pt x="22" y="514" on="1"/>
        <pt x="131" y="514" on="1"/>
        <pt x="255" y="339" on="1"/>
        <pt x="378" y="514" on="1"/>
        <pt x="479" y="514" on="1"/>
        <pt x="305" y="267" on="1"/>
        <pt x="494" y="0" on="1"/>
        <pt x="384" y="0" on="1"/>
        <pt x="247" y="194" on="1"/>
        <pt x="111" y="0" on="1"/>
      </contour>
    </TTGlyph>
    <TTGlyph name="y" xMin="11" yMin="-246" xMax="498" yMax="514">
      <contour>
        <pt x="193" y="0" on="1"/>
        <pt x="11" y="514" on="1"/>
        <pt x="108" y="514" on="1"/>
        <pt x="258" y="78" on="1"/>
        <pt x="407" y="514" on="1"/>
        <pt x="498" y="514" on="1"/>
        <pt x="233" y="-246" on="1"/>
        <pt x="148" y="-246" on="1"/>
        <pt x="232" y="0" on="1"/>
      </contour>
    </TTGlyph>
    <TTGlyph name="yacute" xMin="11" yMin="-246" xMax="498" yMax="765">
      <contour>
        <pt x="193" y="0" on="1"/>
        <pt x="11" y="514" on="1"/>
        <pt x="108" y="514" on="1"/>
        <pt x="258" y="78" on="1"/>
        <pt x="407" y="514" on="1"/>
        <pt x="498" y="514" on="1"/>
        <pt x="233" y="-246" on="1"/>
        <pt x="148" y="-246" on="1"/>
        <pt x="232" y="0" on="1"/>
      </contour>
      <contour>
        <pt x="169" y="601" on="1"/>
        <pt x="302" y="765" on="1"/>
        <pt x="362" y="703" on="1"/>
        <pt x="206" y="567" on="1"/>
      </contour>
    </TTGlyph>
    <TTGlyph name="ydieresis" xMin="11" yMin="-246" xMax="498" yMax="716">
      <contour>
        <pt x="193" y="0" on="1"/>
        <pt x="11" y="514" on="1"/>
        <pt x="108" y="514" on="1"/>
        <pt x="258" y="78" on="1"/>
        <pt x="407" y="514" on="1"/>
        <pt x="498" y="514" on="1"/>
        <pt x="233" y="-246" on="1"/>
        <pt x="148" y="-246" on="1"/>
        <pt x="232" y="0" on="1"/>
      </contour>
      <contour>
        <pt x="127" y="716" on="1"/>
        <pt x="220" y="716" on="1"/>
        <pt x="220" y="623" on="1"/>
        <pt x="127" y="623" on="1"/>
      </contour>
      <contour>
        <pt x="309" y="716" on="1"/>
        <pt x="401" y="716" on="1"/>
        <pt x="401" y="623" on="1"/>
        <pt x="309" y="623" on="1"/>
      </contour>
    </TTGlyph>
    <TTGlyph name="yen" xMin="35" yMin="0" xMax="539" yMax="708">
      <contour>
        <pt x="62" y="296" on="1"/>
        <pt x="62" y="368" on="1"/>
        <pt x="213" y="368" on="1"/>
        <pt x="35" y="708" on="1"/>
        <pt x="143" y="708" on="1"/>
        <pt x="290" y="411" on="1"/>
        <pt x="438" y="708" on="1"/>
        <pt x="539" y="708" on="1"/>
        <pt x="360" y="368" on="1"/>
        <pt x="509" y="368" on="1"/>
        <pt x="509" y="296" on="1"/>
        <pt x="334" y="296" on="1"/>
        <pt x="334" y="202" on="1"/>
        <pt x="509" y="202" on="1"/>
        <pt x="509" y="130" on="1"/>
        <pt x="334" y="130" on="1"/>
        <pt x="334" y="0" on="1"/>
        <pt x="239" y="0" on="1"/>
        <pt x="239" y="130" on="1"/>
        <pt x="62" y="130" on="1"/>
        <pt x="62" y="202" on="1"/>
        <pt x="239" y="202" on="1"/>
        <pt x="239" y="296" on="1"/>
      </contour>
    </TTGlyph>
    <TTGlyph name="z" xMin="42" yMin="0" xMax="437" yMax="514">
      <contour>
        <pt x="56" y="440" on="1"/>
        <pt x="56" y="514" on="1"/>
        <pt x="426" y="514" on="1"/>
        <pt x="426" y="457" on="1"/>
        <pt x="154" y="74" on="1"/>
        <pt x="437" y="74" on="1"/>
        <pt x="437" y="0" on="1"/>
        <pt x="42" y="0" on="1"/>
        <pt x="42" y="60" on="1"/>
        <pt x="312" y="440" on="1"/>
      </contour>
    </TTGlyph>
    <TTGlyph name="zero" xMin="61" yMin="-8" xMax="579" yMax="716">
      <contour>
        <pt x="450" y="-8" on="0"/>
        <pt x="190" y="-8" on="0"/>
        <pt x="61" y="184" on="0"/>
        <pt x="61" y="526" on="0"/>
        <pt x="189" y="716" on="0"/>
        <pt x="451" y="716" on="0"/>
        <pt x="579" y="526" on="0"/>
        <pt x="579" y="184" on="0"/>
      </contour>
      <contour>
        <pt x="161" y="215" on="0"/>
        <pt x="244" y="72" on="0"/>
        <pt x="397" y="72" on="0"/>
        <pt x="479" y="215" on="0"/>
        <pt x="479" y="494" on="0"/>
        <pt x="397" y="636" on="0"/>
        <pt x="244" y="636" on="0"/>
        <pt x="161" y="494" on="0"/>
      </contour>
    </TTGlyph>
</ttFont>
